STARTFONT 2.1
COMMENT
COMMENT Converted from OpenType font "KH-Dot-Dougenzaka-12.ttf" by "otf2bdf 3.0".
COMMENT
FONT -FreeType-KH Dot Dougenzaka 12-Medium-R-Normal--17-120-100-100-P-122-ISO10646-1
SIZE 12 100 100
FONTBOUNDINGBOX 12 12 0 -2
STARTPROPERTIES 19
FOUNDRY "FreeType"
FAMILY_NAME "KH Dot Dougenzaka 12"
WEIGHT_NAME "Medium"
SLANT "R"
SETWIDTH_NAME "Normal"
ADD_STYLE_NAME ""
PIXEL_SIZE 17
POINT_SIZE 120
RESOLUTION_X 100
RESOLUTION_Y 100
SPACING "P"
AVERAGE_WIDTH 122
CHARSET_REGISTRY "ISO10646"
CHARSET_ENCODING "1"
FONT_ASCENT 10
FONT_DESCENT 1
COPYRIGHT "Copyright (c) Keitarou Hiraki, Font Silo. 1990-2015"
_OTF_FONTFILE "KH-Dot-Dougenzaka-12.ttf"
_OTF_PSNAME "KH-Dot-Dougenzaka-12"
ENDPROPERTIES
CHARS 7199
STARTCHAR 0020
ENCODING 32
SWIDTH 360 0
DWIDTH 6 0
BBX 6 11 0 -2
BITMAP
00
00
00
00
00
00
00
00
00
00
00
ENDCHAR
STARTCHAR 0021
ENCODING 33
SWIDTH 360 0
DWIDTH 6 0
BBX 6 11 0 -2
BITMAP
00
30
30
30
30
30
00
00
30
30
00
ENDCHAR
STARTCHAR 0022
ENCODING 34
SWIDTH 360 0
DWIDTH 6 0
BBX 6 11 0 -2
BITMAP
D8
D8
48
90
00
00
00
00
00
00
00
ENDCHAR
STARTCHAR 0023
ENCODING 35
SWIDTH 360 0
DWIDTH 6 0
BBX 6 11 0 -2
BITMAP
10
58
78
F0
D0
58
78
F0
D0
40
00
ENDCHAR
STARTCHAR 0024
ENCODING 36
SWIDTH 360 0
DWIDTH 6 0
BBX 6 11 0 -2
BITMAP
20
70
A8
B8
E0
70
38
E8
A8
70
20
ENDCHAR
STARTCHAR 0025
ENCODING 37
SWIDTH 360 0
DWIDTH 6 0
BBX 6 11 0 -2
BITMAP
00
E0
A8
E8
10
20
40
B8
A8
38
00
ENDCHAR
STARTCHAR 0026
ENCODING 38
SWIDTH 360 0
DWIDTH 6 0
BBX 6 11 0 -2
BITMAP
00
60
D0
D0
60
58
F8
D0
D8
68
00
ENDCHAR
STARTCHAR 0027
ENCODING 39
SWIDTH 360 0
DWIDTH 6 0
BBX 6 11 0 -2
BITMAP
30
30
10
20
00
00
00
00
00
00
00
ENDCHAR
STARTCHAR 0028
ENCODING 40
SWIDTH 360 0
DWIDTH 6 0
BBX 6 11 0 -2
BITMAP
08
10
10
30
30
30
30
10
10
08
00
ENDCHAR
STARTCHAR 0029
ENCODING 41
SWIDTH 360 0
DWIDTH 6 0
BBX 6 11 0 -2
BITMAP
40
20
20
30
30
30
30
20
20
40
00
ENDCHAR
STARTCHAR 002A
ENCODING 42
SWIDTH 360 0
DWIDTH 6 0
BBX 6 11 0 -2
BITMAP
00
00
20
A8
70
70
A8
20
00
00
00
ENDCHAR
STARTCHAR 002B
ENCODING 43
SWIDTH 360 0
DWIDTH 6 0
BBX 6 11 0 -2
BITMAP
00
00
20
20
F8
20
20
00
00
00
00
ENDCHAR
STARTCHAR 002C
ENCODING 44
SWIDTH 360 0
DWIDTH 6 0
BBX 6 11 0 -2
BITMAP
00
00
00
00
00
00
00
30
30
10
20
ENDCHAR
STARTCHAR 002D
ENCODING 45
SWIDTH 360 0
DWIDTH 6 0
BBX 6 11 0 -2
BITMAP
00
00
00
00
F8
00
00
00
00
00
00
ENDCHAR
STARTCHAR 002E
ENCODING 46
SWIDTH 360 0
DWIDTH 6 0
BBX 6 11 0 -2
BITMAP
00
00
00
00
00
00
00
30
30
30
00
ENDCHAR
STARTCHAR 002F
ENCODING 47
SWIDTH 360 0
DWIDTH 6 0
BBX 6 11 0 -2
BITMAP
08
08
10
10
20
20
40
40
80
80
00
ENDCHAR
STARTCHAR 0030
ENCODING 48
SWIDTH 360 0
DWIDTH 6 0
BBX 6 11 0 -2
BITMAP
00
70
50
D8
D8
D8
D8
D8
50
70
00
ENDCHAR
STARTCHAR 0031
ENCODING 49
SWIDTH 360 0
DWIDTH 6 0
BBX 6 11 0 -2
BITMAP
00
30
70
30
30
30
30
30
30
78
00
ENDCHAR
STARTCHAR 0032
ENCODING 50
SWIDTH 360 0
DWIDTH 6 0
BBX 6 11 0 -2
BITMAP
00
70
D8
D8
18
30
40
88
F8
F8
00
ENDCHAR
STARTCHAR 0033
ENCODING 51
SWIDTH 360 0
DWIDTH 6 0
BBX 6 11 0 -2
BITMAP
00
70
D8
D8
18
70
18
D8
D8
70
00
ENDCHAR
STARTCHAR 0034
ENCODING 52
SWIDTH 360 0
DWIDTH 6 0
BBX 6 11 0 -2
BITMAP
00
18
38
38
78
58
D8
F8
18
38
00
ENDCHAR
STARTCHAR 0035
ENCODING 53
SWIDTH 360 0
DWIDTH 6 0
BBX 6 11 0 -2
BITMAP
00
F8
C0
C0
F0
D8
18
D8
F8
70
00
ENDCHAR
STARTCHAR 0036
ENCODING 54
SWIDTH 360 0
DWIDTH 6 0
BBX 6 11 0 -2
BITMAP
00
70
D8
D8
C0
F0
D8
D8
D8
70
00
ENDCHAR
STARTCHAR 0037
ENCODING 55
SWIDTH 360 0
DWIDTH 6 0
BBX 6 11 0 -2
BITMAP
00
F8
F8
90
10
30
20
60
60
60
00
ENDCHAR
STARTCHAR 0038
ENCODING 56
SWIDTH 360 0
DWIDTH 6 0
BBX 6 11 0 -2
BITMAP
00
70
D8
D8
D8
70
D8
D8
D8
70
00
ENDCHAR
STARTCHAR 0039
ENCODING 57
SWIDTH 360 0
DWIDTH 6 0
BBX 6 11 0 -2
BITMAP
00
70
D8
D8
D8
78
18
D8
D8
70
00
ENDCHAR
STARTCHAR 003A
ENCODING 58
SWIDTH 360 0
DWIDTH 6 0
BBX 6 11 0 -2
BITMAP
00
00
30
30
30
00
00
30
30
30
00
ENDCHAR
STARTCHAR 003B
ENCODING 59
SWIDTH 360 0
DWIDTH 6 0
BBX 6 11 0 -2
BITMAP
00
00
30
30
30
00
00
30
30
10
20
ENDCHAR
STARTCHAR 003C
ENCODING 60
SWIDTH 360 0
DWIDTH 6 0
BBX 6 11 0 -2
BITMAP
00
08
18
30
60
60
30
18
08
00
00
ENDCHAR
STARTCHAR 003D
ENCODING 61
SWIDTH 360 0
DWIDTH 6 0
BBX 6 11 0 -2
BITMAP
00
00
00
F8
00
F8
00
00
00
00
00
ENDCHAR
STARTCHAR 003E
ENCODING 62
SWIDTH 360 0
DWIDTH 6 0
BBX 6 11 0 -2
BITMAP
00
40
60
30
18
18
30
60
40
00
00
ENDCHAR
STARTCHAR 003F
ENCODING 63
SWIDTH 360 0
DWIDTH 6 0
BBX 6 11 0 -2
BITMAP
00
70
D8
D8
18
30
60
00
60
60
00
ENDCHAR
STARTCHAR 0040
ENCODING 64
SWIDTH 360 0
DWIDTH 6 0
BBX 6 11 0 -2
BITMAP
00
70
D8
F8
D8
D8
D8
F0
C8
70
00
ENDCHAR
STARTCHAR 0041
ENCODING 65
SWIDTH 360 0
DWIDTH 6 0
BBX 6 11 0 -2
BITMAP
00
70
98
98
98
98
F8
98
98
D8
00
ENDCHAR
STARTCHAR 0042
ENCODING 66
SWIDTH 360 0
DWIDTH 6 0
BBX 6 11 0 -2
BITMAP
00
F0
D8
D8
D8
F0
D8
D8
D8
F0
00
ENDCHAR
STARTCHAR 0043
ENCODING 67
SWIDTH 360 0
DWIDTH 6 0
BBX 6 11 0 -2
BITMAP
00
68
D8
C8
C0
C0
C8
C8
C8
70
00
ENDCHAR
STARTCHAR 0044
ENCODING 68
SWIDTH 360 0
DWIDTH 6 0
BBX 6 11 0 -2
BITMAP
00
E0
D0
D8
D8
D8
D8
D8
D0
E0
00
ENDCHAR
STARTCHAR 0045
ENCODING 69
SWIDTH 360 0
DWIDTH 6 0
BBX 6 11 0 -2
BITMAP
00
F8
D8
C8
D0
F0
D0
C8
D8
F8
00
ENDCHAR
STARTCHAR 0046
ENCODING 70
SWIDTH 360 0
DWIDTH 6 0
BBX 6 11 0 -2
BITMAP
00
F8
D8
C8
D0
F0
D0
C0
C0
E0
00
ENDCHAR
STARTCHAR 0047
ENCODING 71
SWIDTH 360 0
DWIDTH 6 0
BBX 6 11 0 -2
BITMAP
00
68
D8
C8
C0
F8
D8
D8
D8
68
00
ENDCHAR
STARTCHAR 0048
ENCODING 72
SWIDTH 360 0
DWIDTH 6 0
BBX 6 11 0 -2
BITMAP
00
D8
D8
D8
D8
F8
D8
D8
D8
D8
00
ENDCHAR
STARTCHAR 0049
ENCODING 73
SWIDTH 360 0
DWIDTH 6 0
BBX 6 11 0 -2
BITMAP
00
78
30
30
30
30
30
30
30
78
00
ENDCHAR
STARTCHAR 004A
ENCODING 74
SWIDTH 360 0
DWIDTH 6 0
BBX 6 11 0 -2
BITMAP
00
38
18
18
18
18
D8
D8
98
70
00
ENDCHAR
STARTCHAR 004B
ENCODING 75
SWIDTH 360 0
DWIDTH 6 0
BBX 6 11 0 -2
BITMAP
00
D8
D8
D8
D0
E0
D0
D8
D8
D8
00
ENDCHAR
STARTCHAR 004C
ENCODING 76
SWIDTH 360 0
DWIDTH 6 0
BBX 6 11 0 -2
BITMAP
00
E0
C0
C0
C0
C0
C0
C8
D8
F8
00
ENDCHAR
STARTCHAR 004D
ENCODING 77
SWIDTH 360 0
DWIDTH 6 0
BBX 6 11 0 -2
BITMAP
00
88
D8
F8
B8
98
98
98
98
D8
00
ENDCHAR
STARTCHAR 004E
ENCODING 78
SWIDTH 360 0
DWIDTH 6 0
BBX 6 11 0 -2
BITMAP
00
98
C8
C8
E8
A8
B8
98
98
C8
00
ENDCHAR
STARTCHAR 004F
ENCODING 79
SWIDTH 360 0
DWIDTH 6 0
BBX 6 11 0 -2
BITMAP
00
70
D8
D8
D8
D8
D8
D8
D8
70
00
ENDCHAR
STARTCHAR 0050
ENCODING 80
SWIDTH 360 0
DWIDTH 6 0
BBX 6 11 0 -2
BITMAP
00
F0
D8
D8
D8
F0
C0
C0
C0
E0
00
ENDCHAR
STARTCHAR 0051
ENCODING 81
SWIDTH 360 0
DWIDTH 6 0
BBX 6 11 0 -2
BITMAP
00
70
D8
D8
D8
D8
F8
D8
D8
70
18
ENDCHAR
STARTCHAR 0052
ENCODING 82
SWIDTH 360 0
DWIDTH 6 0
BBX 6 11 0 -2
BITMAP
00
F0
D8
D8
D8
F0
D8
D8
D8
D8
00
ENDCHAR
STARTCHAR 0053
ENCODING 83
SWIDTH 360 0
DWIDTH 6 0
BBX 6 11 0 -2
BITMAP
00
68
D8
C8
C0
70
18
98
D8
B0
00
ENDCHAR
STARTCHAR 0054
ENCODING 84
SWIDTH 360 0
DWIDTH 6 0
BBX 6 11 0 -2
BITMAP
00
FC
B4
30
30
30
30
30
30
78
00
ENDCHAR
STARTCHAR 0055
ENCODING 85
SWIDTH 360 0
DWIDTH 6 0
BBX 6 11 0 -2
BITMAP
00
D8
C8
C8
C8
C8
C8
C8
C8
70
00
ENDCHAR
STARTCHAR 0056
ENCODING 86
SWIDTH 360 0
DWIDTH 6 0
BBX 6 11 0 -2
BITMAP
00
D8
C8
C8
C8
C8
C8
50
70
20
00
ENDCHAR
STARTCHAR 0057
ENCODING 87
SWIDTH 360 0
DWIDTH 6 0
BBX 6 11 0 -2
BITMAP
00
D8
C8
C8
C8
E8
E8
D8
C8
88
00
ENDCHAR
STARTCHAR 0058
ENCODING 88
SWIDTH 360 0
DWIDTH 6 0
BBX 6 11 0 -2
BITMAP
00
D8
C8
D0
70
20
70
58
98
D8
00
ENDCHAR
STARTCHAR 0059
ENCODING 89
SWIDTH 360 0
DWIDTH 6 0
BBX 6 11 0 -2
BITMAP
00
EC
C8
68
70
30
30
30
30
78
00
ENDCHAR
STARTCHAR 005A
ENCODING 90
SWIDTH 360 0
DWIDTH 6 0
BBX 6 11 0 -2
BITMAP
00
F8
98
B0
30
60
60
C8
D8
F8
00
ENDCHAR
STARTCHAR 005B
ENCODING 91
SWIDTH 360 0
DWIDTH 6 0
BBX 6 11 0 -2
BITMAP
78
60
60
60
60
60
60
60
60
78
00
ENDCHAR
STARTCHAR 005C
ENCODING 92
SWIDTH 360 0
DWIDTH 6 0
BBX 6 11 0 -2
BITMAP
00
DC
C8
70
FC
30
FC
30
30
78
00
ENDCHAR
STARTCHAR 005D
ENCODING 93
SWIDTH 360 0
DWIDTH 6 0
BBX 6 11 0 -2
BITMAP
78
18
18
18
18
18
18
18
18
78
00
ENDCHAR
STARTCHAR 005E
ENCODING 94
SWIDTH 360 0
DWIDTH 6 0
BBX 6 11 0 -2
BITMAP
20
70
88
00
00
00
00
00
00
00
00
ENDCHAR
STARTCHAR 005F
ENCODING 95
SWIDTH 360 0
DWIDTH 6 0
BBX 6 11 0 -2
BITMAP
00
00
00
00
00
00
00
00
00
F8
00
ENDCHAR
STARTCHAR 0060
ENCODING 96
SWIDTH 360 0
DWIDTH 6 0
BBX 6 11 0 -2
BITMAP
30
30
20
10
00
00
00
00
00
00
00
ENDCHAR
STARTCHAR 0061
ENCODING 97
SWIDTH 360 0
DWIDTH 6 0
BBX 6 11 0 -2
BITMAP
00
00
00
70
D8
18
78
D8
D8
78
00
ENDCHAR
STARTCHAR 0062
ENCODING 98
SWIDTH 360 0
DWIDTH 6 0
BBX 6 11 0 -2
BITMAP
C0
C0
C0
F0
D8
D8
D8
D8
D8
F0
00
ENDCHAR
STARTCHAR 0063
ENCODING 99
SWIDTH 360 0
DWIDTH 6 0
BBX 6 11 0 -2
BITMAP
00
00
00
70
D8
C0
C0
C8
C8
70
00
ENDCHAR
STARTCHAR 0064
ENCODING 100
SWIDTH 360 0
DWIDTH 6 0
BBX 6 11 0 -2
BITMAP
38
18
18
78
D8
D8
D8
D8
D8
7C
00
ENDCHAR
STARTCHAR 0065
ENCODING 101
SWIDTH 360 0
DWIDTH 6 0
BBX 6 11 0 -2
BITMAP
00
00
00
70
D8
D8
F8
C0
C8
70
00
ENDCHAR
STARTCHAR 0066
ENCODING 102
SWIDTH 360 0
DWIDTH 6 0
BBX 6 11 0 -2
BITMAP
38
58
60
F8
60
60
60
60
60
F0
00
ENDCHAR
STARTCHAR 0067
ENCODING 103
SWIDTH 360 0
DWIDTH 6 0
BBX 6 11 0 -2
BITMAP
00
00
08
70
D8
D8
70
40
F8
D8
70
ENDCHAR
STARTCHAR 0068
ENCODING 104
SWIDTH 360 0
DWIDTH 6 0
BBX 6 11 0 -2
BITMAP
C0
C0
C0
F0
D8
D8
D8
D8
D8
D8
00
ENDCHAR
STARTCHAR 0069
ENCODING 105
SWIDTH 360 0
DWIDTH 6 0
BBX 6 11 0 -2
BITMAP
30
30
00
70
30
30
30
30
30
78
00
ENDCHAR
STARTCHAR 006A
ENCODING 106
SWIDTH 360 0
DWIDTH 6 0
BBX 6 11 0 -2
BITMAP
18
18
00
38
18
18
18
D8
D8
D8
70
ENDCHAR
STARTCHAR 006B
ENCODING 107
SWIDTH 360 0
DWIDTH 6 0
BBX 6 11 0 -2
BITMAP
C0
C0
C0
D8
D8
D0
F0
D8
D8
D8
00
ENDCHAR
STARTCHAR 006C
ENCODING 108
SWIDTH 360 0
DWIDTH 6 0
BBX 6 11 0 -2
BITMAP
70
30
30
30
30
30
30
30
30
78
00
ENDCHAR
STARTCHAR 006D
ENCODING 109
SWIDTH 360 0
DWIDTH 6 0
BBX 6 11 0 -2
BITMAP
00
00
00
F0
F8
F8
F8
F8
F8
A8
00
ENDCHAR
STARTCHAR 006E
ENCODING 110
SWIDTH 360 0
DWIDTH 6 0
BBX 6 11 0 -2
BITMAP
00
00
00
F0
D8
D8
D8
D8
D8
D8
00
ENDCHAR
STARTCHAR 006F
ENCODING 111
SWIDTH 360 0
DWIDTH 6 0
BBX 6 11 0 -2
BITMAP
00
00
00
70
D8
D8
D8
D8
D8
70
00
ENDCHAR
STARTCHAR 0070
ENCODING 112
SWIDTH 360 0
DWIDTH 6 0
BBX 6 11 0 -2
BITMAP
00
00
00
F0
D8
D8
D8
D8
F0
C0
E0
ENDCHAR
STARTCHAR 0071
ENCODING 113
SWIDTH 360 0
DWIDTH 6 0
BBX 6 11 0 -2
BITMAP
00
00
00
78
D8
D8
D8
D8
78
18
38
ENDCHAR
STARTCHAR 0072
ENCODING 114
SWIDTH 360 0
DWIDTH 6 0
BBX 6 11 0 -2
BITMAP
00
00
00
F8
58
60
60
60
60
E0
00
ENDCHAR
STARTCHAR 0073
ENCODING 115
SWIDTH 360 0
DWIDTH 6 0
BBX 6 11 0 -2
BITMAP
00
00
00
68
D8
C0
70
18
D8
B0
00
ENDCHAR
STARTCHAR 0074
ENCODING 116
SWIDTH 360 0
DWIDTH 6 0
BBX 6 11 0 -2
BITMAP
00
60
60
F8
60
60
60
60
58
38
00
ENDCHAR
STARTCHAR 0075
ENCODING 117
SWIDTH 360 0
DWIDTH 6 0
BBX 6 11 0 -2
BITMAP
00
00
00
D8
D8
D8
D8
D8
D8
78
00
ENDCHAR
STARTCHAR 0076
ENCODING 118
SWIDTH 360 0
DWIDTH 6 0
BBX 6 11 0 -2
BITMAP
00
00
00
D8
C8
C8
50
70
20
20
00
ENDCHAR
STARTCHAR 0077
ENCODING 119
SWIDTH 360 0
DWIDTH 6 0
BBX 6 11 0 -2
BITMAP
00
00
00
D8
C8
C8
C8
E8
D8
88
00
ENDCHAR
STARTCHAR 0078
ENCODING 120
SWIDTH 360 0
DWIDTH 6 0
BBX 6 11 0 -2
BITMAP
00
00
00
D8
C8
70
20
70
98
D8
00
ENDCHAR
STARTCHAR 0079
ENCODING 121
SWIDTH 360 0
DWIDTH 6 0
BBX 6 11 0 -2
BITMAP
00
00
00
D8
C8
48
70
30
20
E0
C0
ENDCHAR
STARTCHAR 007A
ENCODING 122
SWIDTH 360 0
DWIDTH 6 0
BBX 6 11 0 -2
BITMAP
00
00
00
F8
B0
30
60
68
C8
F8
00
ENDCHAR
STARTCHAR 007B
ENCODING 123
SWIDTH 360 0
DWIDTH 6 0
BBX 6 11 0 -2
BITMAP
18
30
30
30
E0
30
30
30
30
18
00
ENDCHAR
STARTCHAR 007C
ENCODING 124
SWIDTH 360 0
DWIDTH 6 0
BBX 6 11 0 -2
BITMAP
30
30
30
30
30
30
30
30
30
30
00
ENDCHAR
STARTCHAR 007D
ENCODING 125
SWIDTH 360 0
DWIDTH 6 0
BBX 6 11 0 -2
BITMAP
C0
60
60
60
38
60
60
60
60
C0
00
ENDCHAR
STARTCHAR 00A0
ENCODING 160
SWIDTH 360 0
DWIDTH 6 0
BBX 6 11 0 -2
BITMAP
00
00
00
00
00
00
00
00
00
00
00
ENDCHAR
STARTCHAR 00A2
ENCODING 162
SWIDTH 720 0
DWIDTH 12 0
BBX 7 10 2 -2
BITMAP
08
08
3C
4A
D6
D0
D0
54
38
20
ENDCHAR
STARTCHAR 00A3
ENCODING 163
SWIDTH 720 0
DWIDTH 12 0
BBX 11 11 0 -2
BITMAP
0F80
10C0
30C0
3000
FF80
1800
0C00
3C00
4C20
5BE0
31C0
ENDCHAR
STARTCHAR 00A5
ENCODING 165
SWIDTH 360 0
DWIDTH 6 0
BBX 6 9 0 -1
BITMAP
DC
C8
70
FC
30
FC
30
30
78
ENDCHAR
STARTCHAR 00A7
ENCODING 167
SWIDTH 720 0
DWIDTH 12 0
BBX 11 12 0 -2
BITMAP
0F00
1180
1980
0E00
0B00
1180
1880
0F00
0300
1980
1980
0F00
ENDCHAR
STARTCHAR 00A8
ENCODING 168
SWIDTH 720 0
DWIDTH 12 0
BBX 11 12 0 -2
BITMAP
1B00
1B00
0000
0000
0000
0000
0000
0000
0000
0000
0000
0000
ENDCHAR
STARTCHAR 00AC
ENCODING 172
SWIDTH 720 0
DWIDTH 12 0
BBX 11 12 0 -2
BITMAP
0000
0000
0000
0000
0000
3FC0
0040
0040
0040
0000
0000
0000
ENDCHAR
STARTCHAR 00B0
ENCODING 176
SWIDTH 720 0
DWIDTH 12 0
BBX 11 12 0 -2
BITMAP
6000
9000
9000
6000
0000
0000
0000
0000
0000
0000
0000
0000
ENDCHAR
STARTCHAR 00B1
ENCODING 177
SWIDTH 720 0
DWIDTH 12 0
BBX 11 12 0 -2
BITMAP
0000
0400
0400
0400
7FC0
0400
0400
0400
0000
7FC0
0000
0000
ENDCHAR
STARTCHAR 00B4
ENCODING 180
SWIDTH 720 0
DWIDTH 12 0
BBX 11 12 0 -2
BITMAP
0200
0E00
0000
0000
0000
0000
0000
0000
0000
0000
0000
0000
ENDCHAR
STARTCHAR 00B6
ENCODING 182
SWIDTH 720 0
DWIDTH 12 0
BBX 11 12 0 -2
BITMAP
0000
1F80
3C80
3C80
3C80
1C80
0480
0480
0480
0480
0480
0480
ENDCHAR
STARTCHAR 00D7
ENCODING 215
SWIDTH 720 0
DWIDTH 12 0
BBX 11 12 0 -2
BITMAP
0000
0000
2080
1100
0A00
0400
0A00
1100
2080
0000
0000
0000
ENDCHAR
STARTCHAR 00F7
ENCODING 247
SWIDTH 720 0
DWIDTH 12 0
BBX 11 12 0 -2
BITMAP
0000
0600
0600
0000
0000
3FC0
0000
0000
0600
0600
0000
0000
ENDCHAR
STARTCHAR 0391
ENCODING 913
SWIDTH 720 0
DWIDTH 12 0
BBX 11 12 0 -2
BITMAP
0000
0000
0400
0400
0E00
0A00
1300
1F00
2180
2180
73C0
0000
ENDCHAR
STARTCHAR 0392
ENCODING 914
SWIDTH 720 0
DWIDTH 12 0
BBX 11 12 0 -2
BITMAP
0000
0000
3F00
1980
1980
1F00
1880
18C0
18C0
1880
3F00
0000
ENDCHAR
STARTCHAR 0393
ENCODING 915
SWIDTH 720 0
DWIDTH 12 0
BBX 11 12 0 -2
BITMAP
0000
0000
3FC0
1840
1840
1800
1800
1800
1800
1800
3C00
0000
ENDCHAR
STARTCHAR 0394
ENCODING 916
SWIDTH 720 0
DWIDTH 12 0
BBX 11 12 0 -2
BITMAP
0000
0000
0400
0400
0E00
0A00
1300
1100
2180
3F80
7FC0
0000
ENDCHAR
STARTCHAR 0395
ENCODING 917
SWIDTH 720 0
DWIDTH 12 0
BBX 11 12 0 -2
BITMAP
0000
0000
3FC0
1840
1900
1F00
1900
1900
1840
1840
3FC0
0000
ENDCHAR
STARTCHAR 0396
ENCODING 918
SWIDTH 720 0
DWIDTH 12 0
BBX 11 12 0 -2
BITMAP
0000
0000
3F80
2180
2300
0600
0600
0C00
1840
3040
3FC0
0000
ENDCHAR
STARTCHAR 0397
ENCODING 919
SWIDTH 720 0
DWIDTH 12 0
BBX 11 12 0 -2
BITMAP
0000
0000
7BC0
3180
3180
3F80
3180
3180
3180
3180
7BC0
0000
ENDCHAR
STARTCHAR 0398
ENCODING 920
SWIDTH 720 0
DWIDTH 12 0
BBX 11 12 0 -2
BITMAP
0000
0000
0F00
1080
30C0
30C0
3FC0
30C0
30C0
1080
0F00
0000
ENDCHAR
STARTCHAR 0399
ENCODING 921
SWIDTH 720 0
DWIDTH 12 0
BBX 11 12 0 -2
BITMAP
0000
0000
0F00
0600
0600
0600
0600
0600
0600
0600
0F00
0000
ENDCHAR
STARTCHAR 039A
ENCODING 922
SWIDTH 720 0
DWIDTH 12 0
BBX 11 12 0 -2
BITMAP
0000
0000
3DC0
1900
1A00
1C00
1A00
1B00
1980
18C0
3DE0
0000
ENDCHAR
STARTCHAR 039B
ENCODING 923
SWIDTH 720 0
DWIDTH 12 0
BBX 11 12 0 -2
BITMAP
0000
0000
0400
0400
0E00
0A00
1300
1300
2180
2180
73C0
0000
ENDCHAR
STARTCHAR 039C
ENCODING 924
SWIDTH 720 0
DWIDTH 12 0
BBX 11 12 0 -2
BITMAP
0000
0000
60E0
31C0
31C0
3AC0
2EC0
2CC0
24C0
20C0
71E0
0000
ENDCHAR
STARTCHAR 039D
ENCODING 925
SWIDTH 720 0
DWIDTH 12 0
BBX 11 12 0 -2
BITMAP
0000
0000
73C0
3080
3880
2C80
2480
2680
2380
2180
7080
0000
ENDCHAR
STARTCHAR 039E
ENCODING 926
SWIDTH 720 0
DWIDTH 12 0
BBX 11 12 0 -2
BITMAP
0000
0000
1FE0
3FC0
2040
1080
1F80
1080
2040
3FC0
7F80
0000
ENDCHAR
STARTCHAR 039F
ENCODING 927
SWIDTH 720 0
DWIDTH 12 0
BBX 11 12 0 -2
BITMAP
0000
0000
0F00
1080
30C0
30C0
30C0
30C0
30C0
1080
0F00
0000
ENDCHAR
STARTCHAR 03A0
ENCODING 928
SWIDTH 720 0
DWIDTH 12 0
BBX 11 12 0 -2
BITMAP
0000
0000
7FC0
3180
3180
3180
3180
3180
3180
3180
7BC0
0000
ENDCHAR
STARTCHAR 03A1
ENCODING 929
SWIDTH 720 0
DWIDTH 12 0
BBX 11 12 0 -2
BITMAP
0000
0000
3F80
18C0
18C0
18C0
1F80
1800
1800
1800
3C00
0000
ENDCHAR
STARTCHAR 03A3
ENCODING 931
SWIDTH 720 0
DWIDTH 12 0
BBX 11 12 0 -2
BITMAP
0000
0000
3FC0
1840
0C00
0600
0300
0400
0840
1FC0
3FC0
0000
ENDCHAR
STARTCHAR 03A4
ENCODING 932
SWIDTH 720 0
DWIDTH 12 0
BBX 11 12 0 -2
BITMAP
0000
0000
7FE0
4620
4620
0600
0600
0600
0600
0600
0F00
0000
ENDCHAR
STARTCHAR 03A5
ENCODING 933
SWIDTH 720 0
DWIDTH 12 0
BBX 11 12 0 -2
BITMAP
0000
0000
39C0
4F20
0600
0600
0600
0600
0600
0600
0F00
0000
ENDCHAR
STARTCHAR 03A6
ENCODING 934
SWIDTH 720 0
DWIDTH 12 0
BBX 11 12 0 -2
BITMAP
0000
0000
0F00
0600
1F80
36C0
36C0
36C0
1F80
0600
0F00
0000
ENDCHAR
STARTCHAR 03A7
ENCODING 935
SWIDTH 720 0
DWIDTH 12 0
BBX 11 12 0 -2
BITMAP
0000
0000
79C0
3080
1900
0E00
0400
0E00
1300
2180
73C0
0000
ENDCHAR
STARTCHAR 03A8
ENCODING 936
SWIDTH 720 0
DWIDTH 12 0
BBX 11 12 0 -2
BITMAP
0000
0000
0F00
6660
76E0
1680
1680
0F00
0600
0600
0F00
0000
ENDCHAR
STARTCHAR 03A9
ENCODING 937
SWIDTH 720 0
DWIDTH 12 0
BBX 11 12 0 -2
BITMAP
0000
0000
0F00
1080
30C0
30C0
30C0
1980
2940
39C0
39C0
0000
ENDCHAR
STARTCHAR 03B1
ENCODING 945
SWIDTH 720 0
DWIDTH 12 0
BBX 11 12 0 -2
BITMAP
0000
0000
0000
0000
0000
0640
0B40
1380
3200
3680
1980
0000
ENDCHAR
STARTCHAR 03B2
ENCODING 946
SWIDTH 720 0
DWIDTH 12 0
BBX 11 12 0 -2
BITMAP
0000
0000
0380
04C0
0C80
0B00
0980
1980
1900
1600
3000
3000
ENDCHAR
STARTCHAR 03B3
ENCODING 947
SWIDTH 720 0
DWIDTH 12 0
BBX 11 12 0 -2
BITMAP
0000
0000
0000
0000
0000
0CC0
1740
0200
0600
0400
0C00
0C00
ENDCHAR
STARTCHAR 03B4
ENCODING 948
SWIDTH 720 0
DWIDTH 12 0
BBX 11 12 0 -2
BITMAP
0000
0000
0300
05C0
02C0
0700
0980
1880
1180
1900
0E00
0000
ENDCHAR
STARTCHAR 03B5
ENCODING 949
SWIDTH 720 0
DWIDTH 12 0
BBX 11 12 0 -2
BITMAP
0000
0000
0000
0000
0000
0780
0C40
0700
0800
1C80
0F00
0000
ENDCHAR
STARTCHAR 03B6
ENCODING 950
SWIDTH 720 0
DWIDTH 12 0
BBX 11 12 0 -2
BITMAP
0000
0000
0600
0980
0700
0400
0800
1800
1E00
0F00
0900
0E00
ENDCHAR
STARTCHAR 03B7
ENCODING 951
SWIDTH 720 0
DWIDTH 12 0
BBX 11 12 0 -2
BITMAP
0000
0000
0000
0000
0000
1B00
0480
0880
1980
1900
1300
0300
ENDCHAR
STARTCHAR 03B8
ENCODING 952
SWIDTH 720 0
DWIDTH 12 0
BBX 11 12 0 -2
BITMAP
0000
0000
0300
0480
0880
0F80
1980
1100
1300
1A00
0C00
0000
ENDCHAR
STARTCHAR 03B9
ENCODING 953
SWIDTH 720 0
DWIDTH 12 0
BBX 11 12 0 -2
BITMAP
0000
0000
0000
0000
0000
0600
0600
0C00
0880
0B00
0600
0000
ENDCHAR
STARTCHAR 03BA
ENCODING 954
SWIDTH 720 0
DWIDTH 12 0
BBX 11 12 0 -2
BITMAP
0000
0000
0000
0000
0000
0D80
0A80
0E00
1A00
1A80
1300
0000
ENDCHAR
STARTCHAR 03BB
ENCODING 955
SWIDTH 720 0
DWIDTH 12 0
BBX 11 12 0 -2
BITMAP
0000
0000
0C00
0E00
0200
0200
0200
0500
0900
1980
10C0
0000
ENDCHAR
STARTCHAR 03BC
ENCODING 956
SWIDTH 720 0
DWIDTH 12 0
BBX 11 12 0 -2
BITMAP
0000
0000
0000
0000
0000
0880
1980
1100
1100
1340
2C80
6000
ENDCHAR
STARTCHAR 03BD
ENCODING 957
SWIDTH 720 0
DWIDTH 12 0
BBX 11 12 0 -2
BITMAP
0000
0000
0000
0000
0000
1040
1880
0900
0E00
1C00
1000
0000
ENDCHAR
STARTCHAR 03BE
ENCODING 958
SWIDTH 720 0
DWIDTH 12 0
BBX 11 12 0 -2
BITMAP
0000
0000
0700
0800
0780
0800
0F80
1100
1E00
0F00
0900
0E00
ENDCHAR
STARTCHAR 03BF
ENCODING 959
SWIDTH 720 0
DWIDTH 12 0
BBX 11 12 0 -2
BITMAP
0000
0000
0000
0000
0000
0700
0980
1980
1100
1900
0E00
0000
ENDCHAR
STARTCHAR 03C0
ENCODING 960
SWIDTH 720 0
DWIDTH 12 0
BBX 11 12 0 -2
BITMAP
0000
0000
0000
0000
0040
3FC0
7F80
1A00
1600
3480
2300
0000
ENDCHAR
STARTCHAR 03C1
ENCODING 961
SWIDTH 720 0
DWIDTH 12 0
BBX 11 12 0 -2
BITMAP
0000
0000
0000
0000
0000
0700
0980
0980
1900
1600
1000
3000
ENDCHAR
STARTCHAR 03C3
ENCODING 963
SWIDTH 720 0
DWIDTH 12 0
BBX 11 12 0 -2
BITMAP
0000
0000
0000
0000
0040
07C0
0F80
1A00
1300
1A00
0C00
0000
ENDCHAR
STARTCHAR 03C4
ENCODING 964
SWIDTH 720 0
DWIDTH 12 0
BBX 11 12 0 -2
BITMAP
0000
0000
0000
0000
0040
1FC0
3F80
2600
0C00
0D00
0600
0000
ENDCHAR
STARTCHAR 03C5
ENCODING 965
SWIDTH 720 0
DWIDTH 12 0
BBX 11 12 0 -2
BITMAP
0000
0000
0000
0000
0000
0D00
0C80
0980
1900
1200
0C00
0000
ENDCHAR
STARTCHAR 03C6
ENCODING 966
SWIDTH 720 0
DWIDTH 12 0
BBX 11 12 0 -2
BITMAP
0000
0000
0100
0300
0200
0F80
1AC0
12C0
1480
0F00
0400
0C00
ENDCHAR
STARTCHAR 03C7
ENCODING 967
SWIDTH 720 0
DWIDTH 12 0
BBX 11 12 0 -2
BITMAP
0000
0000
0000
0000
0000
0CC0
1680
0300
0600
0A00
1B40
1180
ENDCHAR
STARTCHAR 03C8
ENCODING 968
SWIDTH 720 0
DWIDTH 12 0
BBX 11 12 0 -2
BITMAP
0000
0000
0100
0300
0200
1AC0
0A40
1440
1580
0E00
0C00
0800
ENDCHAR
STARTCHAR 03C9
ENCODING 969
SWIDTH 720 0
DWIDTH 12 0
BBX 11 12 0 -2
BITMAP
0000
0000
0000
0000
0000
0880
10C0
3640
24C0
3480
1B00
0000
ENDCHAR
STARTCHAR 0401
ENCODING 1025
SWIDTH 720 0
DWIDTH 12 0
BBX 11 12 0 -2
BITMAP
0D80
0D80
3FC0
1840
1880
1F80
1880
1800
1840
1840
3FC0
0000
ENDCHAR
STARTCHAR 0410
ENCODING 1040
SWIDTH 720 0
DWIDTH 12 0
BBX 11 12 0 -2
BITMAP
0000
0000
0400
0400
0E00
0A00
1300
1F00
2180
2180
73C0
0000
ENDCHAR
STARTCHAR 0411
ENCODING 1041
SWIDTH 720 0
DWIDTH 12 0
BBX 11 12 0 -2
BITMAP
0000
0000
3F80
1880
1800
1F00
1880
18C0
18C0
1880
3F00
0000
ENDCHAR
STARTCHAR 0412
ENCODING 1042
SWIDTH 720 0
DWIDTH 12 0
BBX 11 12 0 -2
BITMAP
0000
0000
3F00
1980
1980
1F00
1880
18C0
18C0
1880
3F00
0000
ENDCHAR
STARTCHAR 0413
ENCODING 1043
SWIDTH 720 0
DWIDTH 12 0
BBX 11 12 0 -2
BITMAP
0000
0000
3F80
1880
1880
1800
1800
1800
1800
1800
3E00
0000
ENDCHAR
STARTCHAR 0414
ENCODING 1044
SWIDTH 720 0
DWIDTH 12 0
BBX 11 12 0 -2
BITMAP
0000
0000
1FC0
0980
0980
0980
0980
0980
0980
1180
3FC0
2040
ENDCHAR
STARTCHAR 0415
ENCODING 1045
SWIDTH 720 0
DWIDTH 12 0
BBX 11 12 0 -2
BITMAP
0000
0000
3FC0
1840
1880
1F80
1880
1800
1840
1840
3FC0
0000
ENDCHAR
STARTCHAR 0416
ENCODING 1046
SWIDTH 720 0
DWIDTH 12 0
BBX 11 12 0 -2
BITMAP
0000
0000
6F60
6660
1680
1F80
16C0
26C0
2660
2660
6F60
0000
ENDCHAR
STARTCHAR 0417
ENCODING 1047
SWIDTH 720 0
DWIDTH 12 0
BBX 11 12 0 -2
BITMAP
0000
0000
1F00
3180
2180
0F00
0100
0180
2180
3100
1E00
0000
ENDCHAR
STARTCHAR 0418
ENCODING 1048
SWIDTH 720 0
DWIDTH 12 0
BBX 11 12 0 -2
BITMAP
0000
0000
7BC0
3180
3380
3580
3580
3980
3180
3180
7BC0
0000
ENDCHAR
STARTCHAR 0419
ENCODING 1049
SWIDTH 720 0
DWIDTH 12 0
BBX 11 12 0 -2
BITMAP
1B00
0E00
7BC0
3180
3380
3580
3580
3980
3180
3180
7BC0
0000
ENDCHAR
STARTCHAR 041A
ENCODING 1050
SWIDTH 720 0
DWIDTH 12 0
BBX 11 12 0 -2
BITMAP
0000
0000
3D80
1AC0
1A00
1C00
1B00
1980
1980
18C0
3DE0
0000
ENDCHAR
STARTCHAR 041B
ENCODING 1051
SWIDTH 720 0
DWIDTH 12 0
BBX 11 12 0 -2
BITMAP
0000
0000
0FC0
0580
0580
0580
0580
0580
6980
6980
33C0
0000
ENDCHAR
STARTCHAR 041C
ENCODING 1052
SWIDTH 720 0
DWIDTH 12 0
BBX 11 12 0 -2
BITMAP
0000
0000
61C0
3180
3180
3B80
2B80
4CC0
4CC0
40C0
E1E0
0000
ENDCHAR
STARTCHAR 041D
ENCODING 1053
SWIDTH 720 0
DWIDTH 12 0
BBX 11 12 0 -2
BITMAP
0000
0000
7BC0
3180
3180
3F80
3180
3180
3180
3180
7BC0
0000
ENDCHAR
STARTCHAR 041E
ENCODING 1054
SWIDTH 720 0
DWIDTH 12 0
BBX 11 12 0 -2
BITMAP
0000
0000
0F00
1080
30C0
30C0
30C0
30C0
30C0
1080
0F00
0000
ENDCHAR
STARTCHAR 041F
ENCODING 1055
SWIDTH 720 0
DWIDTH 12 0
BBX 11 12 0 -2
BITMAP
0000
0000
7FC0
3180
3180
3180
3180
3180
3180
3180
7BC0
0000
ENDCHAR
STARTCHAR 0420
ENCODING 1056
SWIDTH 720 0
DWIDTH 12 0
BBX 11 12 0 -2
BITMAP
0000
0000
3F80
18C0
18C0
18C0
1F80
1800
1800
1800
3C00
0000
ENDCHAR
STARTCHAR 0421
ENCODING 1057
SWIDTH 720 0
DWIDTH 12 0
BBX 11 12 0 -2
BITMAP
0000
0000
0F80
18C0
3040
3000
3000
3000
3040
10C0
0F00
0000
ENDCHAR
STARTCHAR 0422
ENCODING 1058
SWIDTH 720 0
DWIDTH 12 0
BBX 11 12 0 -2
BITMAP
0000
0000
7FE0
4620
4620
0600
0600
0600
0600
0600
0F00
0000
ENDCHAR
STARTCHAR 0423
ENCODING 1059
SWIDTH 720 0
DWIDTH 12 0
BBX 11 12 0 -2
BITMAP
0000
0000
3DC0
1880
0C80
0D00
0500
0600
0200
1C00
1800
0000
ENDCHAR
STARTCHAR 0424
ENCODING 1060
SWIDTH 720 0
DWIDTH 12 0
BBX 11 12 0 -2
BITMAP
0000
0000
0F00
0600
1F80
36C0
36C0
36C0
1F80
0600
0F00
0000
ENDCHAR
STARTCHAR 0425
ENCODING 1061
SWIDTH 720 0
DWIDTH 12 0
BBX 11 12 0 -2
BITMAP
0000
0000
79C0
3080
1900
0E00
0400
0E00
1300
2180
73C0
0000
ENDCHAR
STARTCHAR 0426
ENCODING 1062
SWIDTH 720 0
DWIDTH 12 0
BBX 11 12 0 -2
BITMAP
0000
0000
7BC0
3180
3180
3180
3180
3180
3180
3180
7FC0
0040
ENDCHAR
STARTCHAR 0427
ENCODING 1063
SWIDTH 720 0
DWIDTH 12 0
BBX 11 12 0 -2
BITMAP
0000
0000
7BC0
3180
3180
3180
3380
1D80
0180
0180
03C0
0000
ENDCHAR
STARTCHAR 0428
ENCODING 1064
SWIDTH 720 0
DWIDTH 12 0
BBX 11 12 0 -2
BITMAP
0000
0000
7FE0
36C0
36C0
36C0
36C0
36C0
36C0
36C0
7FE0
0000
ENDCHAR
STARTCHAR 0429
ENCODING 1065
SWIDTH 720 0
DWIDTH 12 0
BBX 11 12 0 -2
BITMAP
0000
0000
7FE0
36C0
36C0
36C0
36C0
36C0
36C0
36C0
7FE0
0020
ENDCHAR
STARTCHAR 042A
ENCODING 1066
SWIDTH 720 0
DWIDTH 12 0
BBX 11 12 0 -2
BITMAP
0000
0000
3C00
2C00
0C00
0F80
0CC0
0CC0
0CC0
0CC0
1F80
0000
ENDCHAR
STARTCHAR 042B
ENCODING 1067
SWIDTH 720 0
DWIDTH 12 0
BBX 11 12 0 -2
BITMAP
0000
0000
79E0
30C0
30C0
3CC0
36C0
36C0
36C0
36C0
7DE0
0000
ENDCHAR
STARTCHAR 042C
ENCODING 1068
SWIDTH 720 0
DWIDTH 12 0
BBX 11 12 0 -2
BITMAP
0000
0000
3C00
1800
1800
1F00
1880
18C0
18C0
1880
3F00
0000
ENDCHAR
STARTCHAR 042D
ENCODING 1069
SWIDTH 720 0
DWIDTH 12 0
BBX 11 12 0 -2
BITMAP
0000
0000
0F00
1880
00C0
0DC0
16C0
00C0
10C0
1880
0F00
0000
ENDCHAR
STARTCHAR 042E
ENCODING 1070
SWIDTH 720 0
DWIDTH 12 0
BBX 11 12 0 -2
BITMAP
0000
0000
7980
3240
3660
3E60
3660
3660
3660
3240
7980
0000
ENDCHAR
STARTCHAR 042F
ENCODING 1071
SWIDTH 720 0
DWIDTH 12 0
BBX 11 12 0 -2
BITMAP
0000
0000
0FC0
1980
1980
1980
0F80
0D80
0D80
1980
63C0
0000
ENDCHAR
STARTCHAR 0430
ENCODING 1072
SWIDTH 720 0
DWIDTH 12 0
BBX 11 12 0 -2
BITMAP
0000
0000
0000
0000
0000
0E00
0300
0F00
1B00
1B00
0F80
0000
ENDCHAR
STARTCHAR 0431
ENCODING 1073
SWIDTH 720 0
DWIDTH 12 0
BBX 11 12 0 -2
BITMAP
0000
0080
0780
0F00
1000
1600
1900
1180
1980
0900
0600
0000
ENDCHAR
STARTCHAR 0432
ENCODING 1074
SWIDTH 720 0
DWIDTH 12 0
BBX 11 12 0 -2
BITMAP
0000
0000
0000
0000
0000
3F00
1980
1F00
1980
1980
3F00
0000
ENDCHAR
STARTCHAR 0433
ENCODING 1075
SWIDTH 720 0
DWIDTH 12 0
BBX 11 12 0 -2
BITMAP
0000
0000
0000
0000
0000
3F80
1880
1800
1800
1800
3E00
0000
ENDCHAR
STARTCHAR 0434
ENCODING 1076
SWIDTH 720 0
DWIDTH 12 0
BBX 11 12 0 -2
BITMAP
0000
0000
0000
0000
0000
1F80
0B00
0B00
0B00
1300
3F80
2080
ENDCHAR
STARTCHAR 0435
ENCODING 1077
SWIDTH 720 0
DWIDTH 12 0
BBX 11 12 0 -2
BITMAP
0000
0000
0000
0000
0000
0F00
1980
1F80
1800
1880
0F00
0000
ENDCHAR
STARTCHAR 0436
ENCODING 1078
SWIDTH 720 0
DWIDTH 12 0
BBX 11 12 0 -2
BITMAP
0000
0000
0000
0000
0000
6F60
2640
1F80
2640
2640
6F60
0000
ENDCHAR
STARTCHAR 0437
ENCODING 1079
SWIDTH 720 0
DWIDTH 12 0
BBX 11 12 0 -2
BITMAP
0000
0000
0000
0000
0000
0F00
1980
0700
1180
1980
0F00
0000
ENDCHAR
STARTCHAR 0438
ENCODING 1080
SWIDTH 720 0
DWIDTH 12 0
BBX 11 12 0 -2
BITMAP
0000
0000
0000
0000
0000
3DC0
1980
1B80
1D80
1980
3BC0
0000
ENDCHAR
STARTCHAR 0439
ENCODING 1081
SWIDTH 720 0
DWIDTH 12 0
BBX 11 12 0 -2
BITMAP
0000
0000
0D80
0700
0000
3DC0
1980
1B80
1D80
1980
3BC0
0000
ENDCHAR
STARTCHAR 043A
ENCODING 1082
SWIDTH 720 0
DWIDTH 12 0
BBX 11 12 0 -2
BITMAP
0000
0000
0000
0000
0000
3D80
1AC0
1C00
1B00
1980
3DC0
0000
ENDCHAR
STARTCHAR 043B
ENCODING 1083
SWIDTH 720 0
DWIDTH 12 0
BBX 11 12 0 -2
BITMAP
0000
0000
0000
0000
0000
0FC0
0580
0580
3580
3580
1BC0
0000
ENDCHAR
STARTCHAR 043C
ENCODING 1084
SWIDTH 720 0
DWIDTH 12 0
BBX 11 12 0 -2
BITMAP
0000
0000
0000
0000
0000
31C0
1B80
1D80
1580
1180
3BC0
0000
ENDCHAR
STARTCHAR 043D
ENCODING 1085
SWIDTH 720 0
DWIDTH 12 0
BBX 11 12 0 -2
BITMAP
0000
0000
0000
0000
0000
7BC0
3180
3F80
3180
3180
7BC0
0000
ENDCHAR
STARTCHAR 043E
ENCODING 1086
SWIDTH 720 0
DWIDTH 12 0
BBX 11 12 0 -2
BITMAP
0000
0000
0000
0000
0000
0F00
1980
1980
1980
1980
0F00
0000
ENDCHAR
STARTCHAR 043F
ENCODING 1087
SWIDTH 720 0
DWIDTH 12 0
BBX 11 12 0 -2
BITMAP
0000
0000
0000
0000
0000
3FC0
1980
1980
1980
1980
3BC0
0000
ENDCHAR
STARTCHAR 0440
ENCODING 1088
SWIDTH 720 0
DWIDTH 12 0
BBX 11 12 0 -2
BITMAP
0000
0000
0000
0000
0000
3F00
1980
1980
1980
1F00
1800
3C00
ENDCHAR
STARTCHAR 0441
ENCODING 1089
SWIDTH 720 0
DWIDTH 12 0
BBX 11 12 0 -2
BITMAP
0000
0000
0000
0000
0000
0F00
1980
1800
1880
1880
0F00
0000
ENDCHAR
STARTCHAR 0442
ENCODING 1090
SWIDTH 720 0
DWIDTH 12 0
BBX 11 12 0 -2
BITMAP
0000
0000
0000
0000
0000
3FC0
2640
0600
0600
0600
0F00
0000
ENDCHAR
STARTCHAR 0443
ENCODING 1091
SWIDTH 720 0
DWIDTH 12 0
BBX 11 12 0 -2
BITMAP
0000
0000
0000
0000
0000
3DC0
1880
0D00
0600
0200
1C00
1800
ENDCHAR
STARTCHAR 0444
ENCODING 1092
SWIDTH 720 0
DWIDTH 12 0
BBX 11 12 0 -2
BITMAP
0000
0600
0E00
0600
0600
36C0
6F60
6660
6F60
36C0
0600
0F00
ENDCHAR
STARTCHAR 0445
ENCODING 1093
SWIDTH 720 0
DWIDTH 12 0
BBX 11 12 0 -2
BITMAP
0000
0000
0000
0000
0000
3B80
1900
0E00
0E00
1300
3B80
0000
ENDCHAR
STARTCHAR 0446
ENCODING 1094
SWIDTH 720 0
DWIDTH 12 0
BBX 11 12 0 -2
BITMAP
0000
0000
0000
0000
0000
3BC0
1980
1980
1980
1980
3FC0
0040
ENDCHAR
STARTCHAR 0447
ENCODING 1095
SWIDTH 720 0
DWIDTH 12 0
BBX 11 12 0 -2
BITMAP
0000
0000
0000
0000
0000
3BC0
1980
1980
0F80
0180
03C0
0000
ENDCHAR
STARTCHAR 0448
ENCODING 1096
SWIDTH 720 0
DWIDTH 12 0
BBX 11 12 0 -2
BITMAP
0000
0000
0000
0000
0000
7FE0
36C0
36C0
36C0
36C0
7FE0
0000
ENDCHAR
STARTCHAR 0449
ENCODING 1097
SWIDTH 720 0
DWIDTH 12 0
BBX 11 12 0 -2
BITMAP
0000
0000
0000
0000
0000
7FE0
36C0
36C0
36C0
36C0
7FE0
0020
ENDCHAR
STARTCHAR 044A
ENCODING 1098
SWIDTH 720 0
DWIDTH 12 0
BBX 11 12 0 -2
BITMAP
0000
0000
0000
0000
0000
3C00
2C00
0F80
0CC0
0CC0
1F80
0000
ENDCHAR
STARTCHAR 044B
ENCODING 1099
SWIDTH 720 0
DWIDTH 12 0
BBX 11 12 0 -2
BITMAP
0000
0000
0000
0000
0000
79E0
30C0
3CC0
36C0
36C0
7DE0
0000
ENDCHAR
STARTCHAR 044C
ENCODING 1100
SWIDTH 720 0
DWIDTH 12 0
BBX 11 12 0 -2
BITMAP
0000
0000
0000
0000
0000
3C00
1800
1F00
1980
1980
3F00
0000
ENDCHAR
STARTCHAR 044D
ENCODING 1101
SWIDTH 720 0
DWIDTH 12 0
BBX 11 12 0 -2
BITMAP
0000
0000
0000
0000
0000
0F00
1980
0780
0B80
1180
0F00
0000
ENDCHAR
STARTCHAR 044E
ENCODING 1102
SWIDTH 720 0
DWIDTH 12 0
BBX 11 12 0 -2
BITMAP
0000
0000
0000
0000
0000
7B80
36C0
3EC0
36C0
36C0
7B80
0000
ENDCHAR
STARTCHAR 044F
ENCODING 1103
SWIDTH 720 0
DWIDTH 12 0
BBX 11 12 0 -2
BITMAP
0000
0000
0000
0000
0000
1F80
3300
1F00
1B00
1300
6780
0000
ENDCHAR
STARTCHAR 0451
ENCODING 1105
SWIDTH 720 0
DWIDTH 12 0
BBX 11 12 0 -2
BITMAP
0000
0000
0D80
0D80
0000
0F00
1980
1F80
1800
1880
0F00
0000
ENDCHAR
STARTCHAR 2000
ENCODING 8192
SWIDTH 720 0
DWIDTH 12 0
BBX 11 12 0 -2
BITMAP
0000
0000
0000
0000
0000
0000
0000
0000
0000
0000
0000
0000
ENDCHAR
STARTCHAR 2001
ENCODING 8193
SWIDTH 720 0
DWIDTH 12 0
BBX 11 12 0 -2
BITMAP
0000
0000
0000
0000
0000
0000
0000
0000
0000
0000
0000
0000
ENDCHAR
STARTCHAR 2002
ENCODING 8194
SWIDTH 720 0
DWIDTH 12 0
BBX 11 12 0 -2
BITMAP
0000
0000
0000
0000
0000
0000
0000
0000
0000
0000
0000
0000
ENDCHAR
STARTCHAR 2003
ENCODING 8195
SWIDTH 720 0
DWIDTH 12 0
BBX 11 12 0 -2
BITMAP
0000
0000
0000
0000
0000
0000
0000
0000
0000
0000
0000
0000
ENDCHAR
STARTCHAR 2004
ENCODING 8196
SWIDTH 720 0
DWIDTH 12 0
BBX 11 12 0 -2
BITMAP
0000
0000
0000
0000
0000
0000
0000
0000
0000
0000
0000
0000
ENDCHAR
STARTCHAR 2005
ENCODING 8197
SWIDTH 720 0
DWIDTH 12 0
BBX 11 12 0 -2
BITMAP
0000
0000
0000
0000
0000
0000
0000
0000
0000
0000
0000
0000
ENDCHAR
STARTCHAR 2006
ENCODING 8198
SWIDTH 720 0
DWIDTH 12 0
BBX 11 12 0 -2
BITMAP
0000
0000
0000
0000
0000
0000
0000
0000
0000
0000
0000
0000
ENDCHAR
STARTCHAR 2007
ENCODING 8199
SWIDTH 720 0
DWIDTH 12 0
BBX 11 12 0 -2
BITMAP
0000
0000
0000
0000
0000
0000
0000
0000
0000
0000
0000
0000
ENDCHAR
STARTCHAR 2008
ENCODING 8200
SWIDTH 720 0
DWIDTH 12 0
BBX 11 12 0 -2
BITMAP
0000
0000
0000
0000
0000
0000
0000
0000
0000
0000
0000
0000
ENDCHAR
STARTCHAR 2009
ENCODING 8201
SWIDTH 720 0
DWIDTH 12 0
BBX 11 12 0 -2
BITMAP
0000
0000
0000
0000
0000
0000
0000
0000
0000
0000
0000
0000
ENDCHAR
STARTCHAR 200A
ENCODING 8202
SWIDTH 720 0
DWIDTH 12 0
BBX 11 12 0 -2
BITMAP
0000
0000
0000
0000
0000
0000
0000
0000
0000
0000
0000
0000
ENDCHAR
STARTCHAR 200B
ENCODING 8203
SWIDTH 360 0
DWIDTH 6 0
BBX 1 1 0 0
BITMAP
00
ENDCHAR
STARTCHAR 200C
ENCODING 8204
SWIDTH 360 0
DWIDTH 6 0
BBX 1 1 0 0
BITMAP
00
ENDCHAR
STARTCHAR 200D
ENCODING 8205
SWIDTH 360 0
DWIDTH 6 0
BBX 1 1 0 0
BITMAP
00
ENDCHAR
STARTCHAR 200E
ENCODING 8206
SWIDTH 360 0
DWIDTH 6 0
BBX 1 1 0 0
BITMAP
00
ENDCHAR
STARTCHAR 200F
ENCODING 8207
SWIDTH 360 0
DWIDTH 6 0
BBX 1 1 0 0
BITMAP
00
ENDCHAR
STARTCHAR 2010
ENCODING 8208
SWIDTH 720 0
DWIDTH 12 0
BBX 4 1 4 4
BITMAP
F0
ENDCHAR
STARTCHAR 2015
ENCODING 8213
SWIDTH 720 0
DWIDTH 12 0
BBX 12 1 0 4
BITMAP
FFF0
ENDCHAR
STARTCHAR 2016
ENCODING 8214
SWIDTH 720 0
DWIDTH 12 0
BBX 4 12 4 -2
BITMAP
90
90
90
90
90
90
90
90
90
90
90
90
ENDCHAR
STARTCHAR 2018
ENCODING 8216
SWIDTH 720 0
DWIDTH 12 0
BBX 2 4 9 6
BITMAP
40
80
C0
C0
ENDCHAR
STARTCHAR 2019
ENCODING 8217
SWIDTH 720 0
DWIDTH 12 0
BBX 2 4 1 6
BITMAP
C0
C0
40
80
ENDCHAR
STARTCHAR 201C
ENCODING 8220
SWIDTH 720 0
DWIDTH 12 0
BBX 5 4 6 6
BITMAP
48
90
D8
D8
ENDCHAR
STARTCHAR 201D
ENCODING 8221
SWIDTH 720 0
DWIDTH 12 0
BBX 5 4 1 6
BITMAP
D8
D8
48
90
ENDCHAR
STARTCHAR 2020
ENCODING 8224
SWIDTH 720 0
DWIDTH 12 0
BBX 7 12 2 -2
BITMAP
10
38
10
54
FE
54
38
38
10
10
10
10
ENDCHAR
STARTCHAR 2021
ENCODING 8225
SWIDTH 720 0
DWIDTH 12 0
BBX 7 12 2 -2
BITMAP
10
38
54
FE
54
38
38
54
FE
54
38
10
ENDCHAR
STARTCHAR 2025
ENCODING 8229
SWIDTH 720 0
DWIDTH 12 0
BBX 10 2 1 3
BITMAP
C0C0
C0C0
ENDCHAR
STARTCHAR 2026
ENCODING 8230
SWIDTH 720 0
DWIDTH 12 0
BBX 12 2 0 3
BITMAP
C630
C630
ENDCHAR
STARTCHAR 2030
ENCODING 8240
SWIDTH 720 0
DWIDTH 12 0
BBX 12 12 0 -2
BITMAP
6040
D080
D100
B200
B400
6800
1C60
3AD0
5AD0
96B0
16B0
0C60
ENDCHAR
STARTCHAR 2032
ENCODING 8242
SWIDTH 720 0
DWIDTH 12 0
BBX 4 4 0 6
BITMAP
30
60
40
80
ENDCHAR
STARTCHAR 2033
ENCODING 8243
SWIDTH 720 0
DWIDTH 12 0
BBX 7 4 0 6
BITMAP
36
6C
48
90
ENDCHAR
STARTCHAR 203B
ENCODING 8251
SWIDTH 720 0
DWIDTH 12 0
BBX 10 10 1 -1
BITMAP
8C40
4C80
2100
1200
CCC0
CCC0
1200
2100
4C80
8C40
ENDCHAR
STARTCHAR 203E
ENCODING 8254
SWIDTH 360 0
DWIDTH 6 0
BBX 5 1 0 8
BITMAP
F8
ENDCHAR
STARTCHAR 2103
ENCODING 8451
SWIDTH 720 0
DWIDTH 12 0
BBX 12 12 0 -2
BITMAP
6000
9000
9680
6D80
1880
1800
1800
1840
1840
0C80
0700
0000
ENDCHAR
STARTCHAR 2116
ENCODING 8470
SWIDTH 720 0
DWIDTH 12 0
BBX 12 12 0 -2
BITMAP
0000
CC00
4800
6800
69C0
6920
5920
5920
4920
CDE0
0020
0000
ENDCHAR
STARTCHAR 2121
ENCODING 8481
SWIDTH 720 0
DWIDTH 12 0
BBX 12 12 0 -2
BITMAP
0000
F800
A800
2000
2000
2FC0
2A80
2E80
2A80
7FE0
0000
0000
ENDCHAR
STARTCHAR 212B
ENCODING 8491
SWIDTH 720 0
DWIDTH 12 0
BBX 12 12 0 -2
BITMAP
0600
0900
0900
0600
0600
0B00
0B00
1180
1F80
20C0
71E0
0000
ENDCHAR
STARTCHAR 2160
ENCODING 8544
SWIDTH 720 0
DWIDTH 12 0
BBX 12 12 0 -2
BITMAP
1F00
0C00
0C00
0C00
0C00
0C00
0C00
0C00
0C00
1F00
0000
0000
ENDCHAR
STARTCHAR 2161
ENCODING 8545
SWIDTH 720 0
DWIDTH 12 0
BBX 12 12 0 -2
BITMAP
3FC0
0900
0900
0900
0900
0900
0900
0900
0900
3FC0
0000
0000
ENDCHAR
STARTCHAR 2162
ENCODING 8546
SWIDTH 720 0
DWIDTH 12 0
BBX 12 12 0 -2
BITMAP
7FE0
36C0
36C0
36C0
36C0
36C0
36C0
36C0
36C0
7FE0
0000
0000
ENDCHAR
STARTCHAR 2163
ENCODING 8547
SWIDTH 720 0
DWIDTH 12 0
BBX 12 12 0 -2
BITMAP
7EE0
3C20
3C20
3640
3640
3640
3380
3380
3100
7900
0000
0000
ENDCHAR
STARTCHAR 2164
ENCODING 8548
SWIDTH 720 0
DWIDTH 12 0
BBX 12 12 0 -2
BITMAP
39E0
1880
1880
0900
0900
0900
0D00
0D00
0600
0600
0000
0000
ENDCHAR
STARTCHAR 2165
ENCODING 8549
SWIDTH 720 0
DWIDTH 12 0
BBX 12 12 0 -2
BITMAP
77E0
61C0
61C0
32C0
32C0
32C0
1CC0
1CC0
08C0
09E0
0000
0000
ENDCHAR
STARTCHAR 2166
ENCODING 8550
SWIDTH 720 0
DWIDTH 12 0
BBX 12 12 0 -2
BITMAP
EFE0
4B60
4B60
6B60
6B60
6B60
6B60
3360
3360
37E0
0000
0000
ENDCHAR
STARTCHAR 2167
ENCODING 8551
SWIDTH 720 0
DWIDTH 12 0
BBX 12 12 0 -2
BITMAP
DFE0
CD60
CD60
5D60
5D60
5D60
5D60
6D60
6D60
6FE0
0000
0000
ENDCHAR
STARTCHAR 2168
ENCODING 8552
SWIDTH 720 0
DWIDTH 12 0
BBX 12 12 0 -2
BITMAP
7EE0
3C20
3640
3380
3300
3100
3380
34C0
34C0
7EE0
0000
0000
ENDCHAR
STARTCHAR 2169
ENCODING 8553
SWIDTH 720 0
DWIDTH 12 0
BBX 12 12 0 -2
BITMAP
39E0
1880
0900
0D00
0E00
0600
0B00
0900
0900
39E0
0000
0000
ENDCHAR
STARTCHAR 2190
ENCODING 8592
SWIDTH 720 0
DWIDTH 12 0
BBX 12 12 0 -2
BITMAP
0000
0000
0000
2000
4000
FFF0
4000
2000
0000
0000
0000
0000
ENDCHAR
STARTCHAR 2191
ENCODING 8593
SWIDTH 720 0
DWIDTH 12 0
BBX 12 12 0 -2
BITMAP
0400
0E00
1500
0400
0400
0400
0400
0400
0400
0400
0400
0400
ENDCHAR
STARTCHAR 2192
ENCODING 8594
SWIDTH 720 0
DWIDTH 12 0
BBX 12 12 0 -2
BITMAP
0000
0000
0000
0040
0020
FFF0
0020
0040
0000
0000
0000
0000
ENDCHAR
STARTCHAR 2193
ENCODING 8595
SWIDTH 720 0
DWIDTH 12 0
BBX 12 12 0 -2
BITMAP
0400
0400
0400
0400
0400
0400
0400
0400
0400
1500
0E00
0400
ENDCHAR
STARTCHAR 21D2
ENCODING 8658
SWIDTH 720 0
DWIDTH 12 0
BBX 12 12 0 -2
BITMAP
0000
0000
0100
0080
7FC0
0020
7FC0
0080
0100
0000
0000
0000
ENDCHAR
STARTCHAR 21D4
ENCODING 8660
SWIDTH 720 0
DWIDTH 12 0
BBX 12 12 0 -2
BITMAP
0000
0000
0900
1080
3FC0
4020
3FC0
1080
0900
0000
0000
0000
ENDCHAR
STARTCHAR 2200
ENCODING 8704
SWIDTH 720 0
DWIDTH 12 0
BBX 12 12 0 -2
BITMAP
8020
8020
4040
4040
3F80
2080
1100
1100
0A00
0A00
0400
0400
ENDCHAR
STARTCHAR 2202
ENCODING 8706
SWIDTH 720 0
DWIDTH 12 0
BBX 12 12 0 -2
BITMAP
0000
0000
0700
0D80
0080
0D80
1B80
1100
3300
2200
3600
1C00
ENDCHAR
STARTCHAR 2203
ENCODING 8707
SWIDTH 720 0
DWIDTH 12 0
BBX 12 12 0 -2
BITMAP
0000
0000
3FC0
0040
0040
3FC0
0040
0040
0040
3FC0
0000
0000
ENDCHAR
STARTCHAR 2207
ENCODING 8711
SWIDTH 720 0
DWIDTH 12 0
BBX 12 12 0 -2
BITMAP
0000
0000
7FE0
3FC0
3040
1880
1880
0D00
0D00
0600
0600
0000
ENDCHAR
STARTCHAR 2208
ENCODING 8712
SWIDTH 720 0
DWIDTH 12 0
BBX 12 12 0 -2
BITMAP
0000
0000
1FC0
2000
2000
3FC0
2000
2000
1FC0
0000
0000
0000
ENDCHAR
STARTCHAR 220B
ENCODING 8715
SWIDTH 720 0
DWIDTH 12 0
BBX 12 12 0 -2
BITMAP
0000
0000
3F80
0040
0040
3FC0
0040
0040
3F80
0000
0000
0000
ENDCHAR
STARTCHAR 2211
ENCODING 8721
SWIDTH 720 0
DWIDTH 12 0
BBX 12 12 0 -2
BITMAP
0000
3F80
3080
0800
0C00
0600
0800
1800
3040
3F80
0000
0000
ENDCHAR
STARTCHAR 2212
ENCODING 8722
SWIDTH 720 0
DWIDTH 12 0
BBX 12 12 0 -2
BITMAP
0000
0000
0000
0000
0000
7FC0
0000
0000
0000
0000
0000
0000
ENDCHAR
STARTCHAR 221A
ENCODING 8730
SWIDTH 720 0
DWIDTH 12 0
BBX 12 12 0 -2
BITMAP
0380
0200
0400
0400
0400
4800
4800
C800
2800
1000
1000
0000
ENDCHAR
STARTCHAR 221D
ENCODING 8733
SWIDTH 720 0
DWIDTH 12 0
BBX 12 12 0 -2
BITMAP
0000
0000
0000
31C0
4A20
8400
8400
4A20
31C0
0000
0000
0000
ENDCHAR
STARTCHAR 221E
ENCODING 8734
SWIDTH 720 0
DWIDTH 12 0
BBX 12 12 0 -2
BITMAP
0000
0000
0000
3180
4A40
8420
8420
4A40
3180
0000
0000
0000
ENDCHAR
STARTCHAR 221F
ENCODING 8735
SWIDTH 720 0
DWIDTH 12 0
BBX 12 12 0 -2
BITMAP
0000
0000
0000
0000
0000
0000
0000
0000
1FC0
0000
0000
0000
ENDCHAR
STARTCHAR 2220
ENCODING 8736
SWIDTH 720 0
DWIDTH 12 0
BBX 12 12 0 -2
BITMAP
0000
0040
0080
0100
0200
0400
0800
1000
3FC0
0000
0000
0000
ENDCHAR
STARTCHAR 2227
ENCODING 8743
SWIDTH 720 0
DWIDTH 12 0
BBX 12 12 0 -2
BITMAP
0400
0400
0A00
0A00
1100
1100
2080
2080
4040
4040
8020
8020
ENDCHAR
STARTCHAR 2228
ENCODING 8744
SWIDTH 720 0
DWIDTH 12 0
BBX 12 12 0 -2
BITMAP
8020
8020
4040
4040
2080
2080
1100
1100
0A00
0A00
0400
0400
ENDCHAR
STARTCHAR 2229
ENCODING 8745
SWIDTH 720 0
DWIDTH 12 0
BBX 12 12 0 -2
BITMAP
0E00
0900
1100
2080
2080
2080
2080
2080
2080
2080
2080
0000
ENDCHAR
STARTCHAR 222A
ENCODING 8746
SWIDTH 720 0
DWIDTH 12 0
BBX 12 12 0 -2
BITMAP
2080
2080
2080
2080
2080
2080
2080
2080
2080
1900
0E00
0000
ENDCHAR
STARTCHAR 222B
ENCODING 8747
SWIDTH 720 0
DWIDTH 12 0
BBX 12 12 0 -2
BITMAP
0500
0300
0000
0400
0400
0400
0200
0200
0100
0500
0100
0600
ENDCHAR
STARTCHAR 222C
ENCODING 8748
SWIDTH 720 0
DWIDTH 12 0
BBX 12 12 0 -2
BITMAP
1980
2A80
2200
2200
3300
1100
1100
1980
0880
0880
2A80
3300
ENDCHAR
STARTCHAR 222E
ENCODING 8750
SWIDTH 720 0
DWIDTH 12 0
BBX 12 12 0 -2
BITMAP
0D00
0B00
0800
0F00
0D00
0D00
0F00
0200
0100
0D00
0900
0600
ENDCHAR
STARTCHAR 2234
ENCODING 8756
SWIDTH 720 0
DWIDTH 12 0
BBX 12 12 0 -2
BITMAP
0000
0000
0600
0600
0000
0000
0000
0000
30C0
30C0
0000
0000
ENDCHAR
STARTCHAR 2235
ENCODING 8757
SWIDTH 720 0
DWIDTH 12 0
BBX 12 12 0 -2
BITMAP
0000
0000
2080
2080
0000
0000
0000
0400
0E00
0000
0000
0000
ENDCHAR
STARTCHAR 223D
ENCODING 8765
SWIDTH 720 0
DWIDTH 12 0
BBX 12 12 0 -2
BITMAP
0000
0000
0000
30C0
4920
8210
8410
4920
30C0
0000
0000
0000
ENDCHAR
STARTCHAR 2252
ENCODING 8786
SWIDTH 720 0
DWIDTH 12 0
BBX 12 12 0 -2
BITMAP
1000
3800
1000
0000
3FC0
0000
3FC0
0000
0000
0180
0100
0000
ENDCHAR
STARTCHAR 2260
ENCODING 8800
SWIDTH 720 0
DWIDTH 12 0
BBX 12 12 0 -2
BITMAP
0000
0000
0100
0100
3FC0
0200
0400
3FC0
0800
0800
0000
0000
ENDCHAR
STARTCHAR 2261
ENCODING 8801
SWIDTH 720 0
DWIDTH 12 0
BBX 12 12 0 -2
BITMAP
0000
0000
0000
1F80
0000
3FC0
0000
3FC0
0000
0000
0000
0000
ENDCHAR
STARTCHAR 2266
ENCODING 8806
SWIDTH 720 0
DWIDTH 12 0
BBX 12 12 0 -2
BITMAP
0000
01C0
0600
3800
0600
01C0
0000
3FC0
0000
3FC0
0000
0000
ENDCHAR
STARTCHAR 2267
ENCODING 8807
SWIDTH 720 0
DWIDTH 12 0
BBX 12 12 0 -2
BITMAP
0000
3800
0600
01C0
0600
3800
0000
3FC0
0000
3FC0
0000
0000
ENDCHAR
STARTCHAR 226A
ENCODING 8810
SWIDTH 720 0
DWIDTH 12 0
BBX 12 12 0 -2
BITMAP
0000
0240
0480
0900
1200
2400
1200
0900
0480
0240
0000
0000
ENDCHAR
STARTCHAR 226B
ENCODING 8811
SWIDTH 720 0
DWIDTH 12 0
BBX 12 12 0 -2
BITMAP
0000
2400
1200
0900
0480
0240
0480
0900
1200
2400
0000
0000
ENDCHAR
STARTCHAR 2282
ENCODING 8834
SWIDTH 720 0
DWIDTH 12 0
BBX 12 12 0 -2
BITMAP
0000
0000
0FC0
1000
2000
2000
2000
1000
0FC0
0000
0000
0000
ENDCHAR
STARTCHAR 2283
ENCODING 8835
SWIDTH 720 0
DWIDTH 12 0
BBX 12 12 0 -2
BITMAP
0000
0000
3F00
0080
0040
0040
0040
0080
3F00
0000
0000
0000
ENDCHAR
STARTCHAR 2286
ENCODING 8838
SWIDTH 720 0
DWIDTH 12 0
BBX 12 12 0 -2
BITMAP
0000
0000
1FC0
2000
2000
2000
2000
1FC0
0000
3FC0
0000
0000
ENDCHAR
STARTCHAR 2287
ENCODING 8839
SWIDTH 720 0
DWIDTH 12 0
BBX 12 12 0 -2
BITMAP
0000
0000
3F80
0040
0040
0040
0040
3F80
0000
3FC0
0000
0000
ENDCHAR
STARTCHAR 22A5
ENCODING 8869
SWIDTH 720 0
DWIDTH 12 0
BBX 12 12 0 -2
BITMAP
0400
0400
0400
0400
0400
0400
0400
0400
7FC0
0000
0000
0000
ENDCHAR
STARTCHAR 22BF
ENCODING 8895
SWIDTH 720 0
DWIDTH 12 0
BBX 12 12 0 -2
BITMAP
0000
0040
00C0
0140
0240
0440
0840
1040
3FC0
0000
0000
0000
ENDCHAR
STARTCHAR 2312
ENCODING 8978
SWIDTH 720 0
DWIDTH 12 0
BBX 12 12 0 -2
BITMAP
0000
0000
0F00
30C0
4020
0000
0000
0000
0000
0000
0000
0000
ENDCHAR
STARTCHAR 2460
ENCODING 9312
SWIDTH 720 0
DWIDTH 12 0
BBX 12 12 0 -2
BITMAP
3F80
4440
4420
8C20
8420
8420
8420
8420
4420
4A40
3180
0F00
ENDCHAR
STARTCHAR 2461
ENCODING 9313
SWIDTH 720 0
DWIDTH 12 0
BBX 12 12 0 -2
BITMAP
3F80
4040
4E20
9120
8120
8220
8C20
8920
5120
4E40
3180
0F00
ENDCHAR
STARTCHAR 2462
ENCODING 9314
SWIDTH 720 0
DWIDTH 12 0
BBX 12 12 0 -2
BITMAP
3F80
4040
4E20
9120
8120
8E20
8120
9120
5120
4E40
3180
0F00
ENDCHAR
STARTCHAR 2463
ENCODING 9315
SWIDTH 720 0
DWIDTH 12 0
BBX 12 12 0 -2
BITMAP
3F80
4040
4220
8E20
8A20
8A20
BF20
8220
4220
4440
3180
0F00
ENDCHAR
STARTCHAR 2464
ENCODING 9316
SWIDTH 720 0
DWIDTH 12 0
BBX 12 12 0 -2
BITMAP
3F80
4040
5F20
9020
9020
9E20
8120
9120
5120
4C40
3180
0F00
ENDCHAR
STARTCHAR 2465
ENCODING 9317
SWIDTH 720 0
DWIDTH 12 0
BBX 12 12 0 -2
BITMAP
3F80
4040
4E20
9120
9020
9E20
9120
9120
5120
4C40
3180
0F00
ENDCHAR
STARTCHAR 2466
ENCODING 9318
SWIDTH 720 0
DWIDTH 12 0
BBX 12 12 0 -2
BITMAP
3F80
4040
5F20
9120
8220
8220
8420
8820
4820
4040
3180
0F00
ENDCHAR
STARTCHAR 2467
ENCODING 9319
SWIDTH 720 0
DWIDTH 12 0
BBX 12 12 0 -2
BITMAP
3F80
4040
4E20
9120
9120
8E20
9120
9120
5120
4C40
3180
0F00
ENDCHAR
STARTCHAR 2468
ENCODING 9320
SWIDTH 720 0
DWIDTH 12 0
BBX 12 12 0 -2
BITMAP
3F80
4040
4E20
9120
9120
9120
8F20
9120
5120
4C40
3180
0F00
ENDCHAR
STARTCHAR 2469
ENCODING 9321
SWIDTH 720 0
DWIDTH 12 0
BBX 12 12 0 -2
BITMAP
3F80
4040
5320
94A0
94A0
94A0
94A0
94A0
54A0
6340
3180
0F00
ENDCHAR
STARTCHAR 246A
ENCODING 9322
SWIDTH 720 0
DWIDTH 12 0
BBX 12 12 0 -2
BITMAP
3F80
4040
4920
9B20
8920
8920
8920
8920
4920
5240
3180
0F00
ENDCHAR
STARTCHAR 246B
ENCODING 9323
SWIDTH 720 0
DWIDTH 12 0
BBX 12 12 0 -2
BITMAP
3F80
4040
5320
94A0
90A0
9120
9220
9420
54A0
6340
3180
0F00
ENDCHAR
STARTCHAR 246C
ENCODING 9324
SWIDTH 720 0
DWIDTH 12 0
BBX 12 12 0 -2
BITMAP
3F80
4040
5320
94A0
90A0
9120
90A0
94A0
54A0
6340
3180
0F00
ENDCHAR
STARTCHAR 246D
ENCODING 9325
SWIDTH 720 0
DWIDTH 12 0
BBX 12 12 0 -2
BITMAP
3F80
4040
5120
9320
9320
9520
9FA0
9120
5120
62C0
3180
0F00
ENDCHAR
STARTCHAR 246E
ENCODING 9326
SWIDTH 720 0
DWIDTH 12 0
BBX 12 12 0 -2
BITMAP
3F80
4040
5720
9420
9420
9720
90A0
94A0
54A0
6340
3180
0F00
ENDCHAR
STARTCHAR 246F
ENCODING 9327
SWIDTH 720 0
DWIDTH 12 0
BBX 12 12 0 -2
BITMAP
3F80
4040
5320
94A0
9420
9720
94A0
94A0
54A0
6340
3180
0F00
ENDCHAR
STARTCHAR 2470
ENCODING 9328
SWIDTH 720 0
DWIDTH 12 0
BBX 12 12 0 -2
BITMAP
3F80
4040
57A0
94A0
9120
9120
9120
9220
5220
6040
3180
0F00
ENDCHAR
STARTCHAR 2471
ENCODING 9329
SWIDTH 720 0
DWIDTH 12 0
BBX 12 12 0 -2
BITMAP
3F80
4040
5320
94A0
94A0
9320
94A0
94A0
54A0
6340
3180
0F00
ENDCHAR
STARTCHAR 2472
ENCODING 9330
SWIDTH 720 0
DWIDTH 12 0
BBX 12 12 0 -2
BITMAP
3F80
4040
5320
94A0
94A0
94A0
93A0
94A0
54A0
6340
3180
0F00
ENDCHAR
STARTCHAR 2473
ENCODING 9331
SWIDTH 720 0
DWIDTH 12 0
BBX 12 12 0 -2
BITMAP
3F80
4040
5920
AAA0
8AA0
8AA0
92A0
A2A0
6AA0
5140
3180
0F00
ENDCHAR
STARTCHAR 2581
ENCODING 9601
SWIDTH 720 0
DWIDTH 12 0
BBX 12 12 0 -2
BITMAP
0000
8000
8000
4000
4000
2000
2000
1000
1000
0800
0800
0000
ENDCHAR
STARTCHAR 2582
ENCODING 9602
SWIDTH 720 0
DWIDTH 12 0
BBX 12 12 0 -2
BITMAP
0000
4000
A800
1000
0000
0000
0000
0000
0000
0000
0000
0000
ENDCHAR
STARTCHAR 2583
ENCODING 9603
SWIDTH 720 0
DWIDTH 12 0
BBX 12 12 0 -2
BITMAP
0000
2000
2000
2000
2000
0000
0000
2000
2000
2000
2000
0000
ENDCHAR
STARTCHAR 25A0
ENCODING 9632
SWIDTH 720 0
DWIDTH 12 0
BBX 12 12 0 -2
BITMAP
FFF0
FFF0
FFF0
FFF0
FFF0
FFF0
FFF0
FFF0
FFF0
FFF0
FFF0
FFF0
ENDCHAR
STARTCHAR 25A1
ENCODING 9633
SWIDTH 720 0
DWIDTH 12 0
BBX 12 12 0 -2
BITMAP
FFF0
8010
8010
8010
8010
8010
8010
8010
8010
8010
8010
FFF0
ENDCHAR
STARTCHAR 25B2
ENCODING 9650
SWIDTH 720 0
DWIDTH 12 0
BBX 12 12 0 -2
BITMAP
0000
0400
0400
0E00
0E00
1F00
1F00
3F80
3F80
7FC0
FFE0
0000
ENDCHAR
STARTCHAR 25B3
ENCODING 9651
SWIDTH 720 0
DWIDTH 12 0
BBX 12 12 0 -2
BITMAP
0000
0400
0400
0A00
0A00
1100
1100
2080
2080
4040
FFE0
0000
ENDCHAR
STARTCHAR 25BC
ENCODING 9660
SWIDTH 720 0
DWIDTH 12 0
BBX 12 12 0 -2
BITMAP
0000
FFE0
7FC0
3F80
3F80
1F00
1F00
0E00
0E00
0400
0400
0000
ENDCHAR
STARTCHAR 25BD
ENCODING 9661
SWIDTH 720 0
DWIDTH 12 0
BBX 12 12 0 -2
BITMAP
0000
FFE0
4040
2080
2080
1100
1100
0A00
0A00
0400
0400
0000
ENDCHAR
STARTCHAR 25C6
ENCODING 9670
SWIDTH 720 0
DWIDTH 12 0
BBX 12 12 0 -2
BITMAP
0600
0F00
1F80
3FC0
7FE0
FFF0
FFF0
7FE0
3FC0
1F80
0F00
0600
ENDCHAR
STARTCHAR 25C7
ENCODING 9671
SWIDTH 720 0
DWIDTH 12 0
BBX 12 12 0 -2
BITMAP
0600
0900
1080
2040
4020
8010
8010
4020
2040
1080
0900
0600
ENDCHAR
STARTCHAR 25CB
ENCODING 9675
SWIDTH 720 0
DWIDTH 12 0
BBX 12 12 0 -2
BITMAP
0F00
30C0
4020
4020
8010
8010
8010
8010
4020
4020
30C0
0F00
ENDCHAR
STARTCHAR 25CE
ENCODING 9678
SWIDTH 720 0
DWIDTH 12 0
BBX 12 12 0 -2
BITMAP
0F00
30C0
4020
4F20
9090
9090
9090
9090
4F20
4020
30C0
0F00
ENDCHAR
STARTCHAR 25CF
ENCODING 9679
SWIDTH 720 0
DWIDTH 12 0
BBX 12 12 0 -2
BITMAP
0F00
3FC0
7FE0
7FE0
FFF0
FFF0
FFF0
FFF0
7FE0
7FE0
3FC0
0F00
ENDCHAR
STARTCHAR 25EF
ENCODING 9711
SWIDTH 720 0
DWIDTH 12 0
BBX 12 12 0 -2
BITMAP
0F00
30C0
4020
4020
8010
8010
8010
8010
4020
4020
30C0
0F00
ENDCHAR
STARTCHAR 2605
ENCODING 9733
SWIDTH 720 0
DWIDTH 12 0
BBX 12 12 0 -2
BITMAP
0400
0400
0E00
0E00
FFE0
7FC0
3F80
1F00
3F80
3B80
71C0
4040
ENDCHAR
STARTCHAR 2606
ENCODING 9734
SWIDTH 720 0
DWIDTH 12 0
BBX 12 12 0 -2
BITMAP
0400
0400
0A00
0A00
F1E0
4040
2080
1100
2480
2A80
71C0
4040
ENDCHAR
STARTCHAR 2640
ENCODING 9792
SWIDTH 720 0
DWIDTH 12 0
BBX 12 12 0 -2
BITMAP
0600
0900
1080
1080
0900
0600
0400
3FC0
0400
0400
0400
0400
ENDCHAR
STARTCHAR 2642
ENCODING 9794
SWIDTH 720 0
DWIDTH 12 0
BBX 12 12 0 -2
BITMAP
0000
03E0
0060
00A0
0120
0220
3400
4800
8400
8400
4800
3000
ENDCHAR
STARTCHAR 266A
ENCODING 9834
SWIDTH 720 0
DWIDTH 12 0
BBX 12 12 0 -2
BITMAP
0000
0400
0600
0700
0580
0480
0480
0500
3C00
7800
7800
2000
ENDCHAR
STARTCHAR 266D
ENCODING 9837
SWIDTH 720 0
DWIDTH 12 0
BBX 12 12 0 -2
BITMAP
0000
0800
0800
0800
0B00
0D80
0980
0900
0B00
0A00
0C00
0800
ENDCHAR
STARTCHAR 266F
ENCODING 9839
SWIDTH 720 0
DWIDTH 12 0
BBX 12 12 0 -2
BITMAP
0100
0900
09C0
0FC0
3F00
3900
09C0
0FC0
3F00
3900
0900
0800
ENDCHAR
STARTCHAR 3000
ENCODING 12288
SWIDTH 720 0
DWIDTH 12 0
BBX 12 12 0 -2
BITMAP
0000
0000
0000
0000
0000
0000
0000
0000
0000
0000
0000
0000
ENDCHAR
STARTCHAR 3001
ENCODING 12289
SWIDTH 720 0
DWIDTH 12 0
BBX 12 12 0 -2
BITMAP
0000
0000
0000
0000
0000
0000
0000
0000
8000
6000
3000
3000
ENDCHAR
STARTCHAR 3002
ENCODING 12290
SWIDTH 720 0
DWIDTH 12 0
BBX 12 12 0 -2
BITMAP
0000
0000
0000
0000
0000
0000
0000
0000
6000
9000
9000
6000
ENDCHAR
STARTCHAR 3003
ENCODING 12291
SWIDTH 720 0
DWIDTH 12 0
BBX 12 12 0 -2
BITMAP
0000
0000
0000
0D80
0D80
0900
0900
1200
0000
0000
0000
0000
ENDCHAR
STARTCHAR 3005
ENCODING 12293
SWIDTH 720 0
DWIDTH 12 0
BBX 12 12 0 -2
BITMAP
0000
0E00
0D80
0FC0
1980
1300
2A00
4400
8300
0180
0180
0000
ENDCHAR
STARTCHAR 3006
ENCODING 12294
SWIDTH 720 0
DWIDTH 12 0
BBX 12 12 0 -2
BITMAP
0080
0060
00C0
0180
1F00
2600
2D80
4980
5000
6000
C000
C000
ENDCHAR
STARTCHAR 3007
ENCODING 12295
SWIDTH 720 0
DWIDTH 12 0
BBX 12 12 0 -2
BITMAP
0000
0F00
30C0
4020
8010
8010
8010
8010
4020
30C0
0F00
0000
ENDCHAR
STARTCHAR 3008
ENCODING 12296
SWIDTH 720 0
DWIDTH 12 0
BBX 12 12 0 -2
BITMAP
0020
0040
0040
0080
0080
0100
0100
0080
0080
0040
0040
0020
ENDCHAR
STARTCHAR 3009
ENCODING 12297
SWIDTH 720 0
DWIDTH 12 0
BBX 12 12 0 -2
BITMAP
4000
2000
2000
1000
1000
0800
0800
1000
1000
2000
2000
4000
ENDCHAR
STARTCHAR 300A
ENCODING 12298
SWIDTH 720 0
DWIDTH 12 0
BBX 12 12 0 -2
BITMAP
00A0
0140
0140
0280
0280
0500
0500
0280
0280
0140
0140
00A0
ENDCHAR
STARTCHAR 300B
ENCODING 12299
SWIDTH 720 0
DWIDTH 12 0
BBX 12 12 0 -2
BITMAP
5000
2800
2800
1400
1400
0A00
0A00
1400
1400
2800
2800
5000
ENDCHAR
STARTCHAR 300C
ENCODING 12300
SWIDTH 720 0
DWIDTH 12 0
BBX 12 12 0 -2
BITMAP
01E0
0100
0100
0100
0100
0100
0100
0100
0100
0100
0000
0000
ENDCHAR
STARTCHAR 300D
ENCODING 12301
SWIDTH 720 0
DWIDTH 12 0
BBX 12 12 0 -2
BITMAP
0000
0000
0800
0800
0800
0800
0800
0800
0800
0800
0800
7800
ENDCHAR
STARTCHAR 300E
ENCODING 12302
SWIDTH 720 0
DWIDTH 12 0
BBX 12 12 0 -2
BITMAP
03E0
0220
02E0
0280
0280
0280
0280
0280
0280
0380
0000
0000
ENDCHAR
STARTCHAR 300F
ENCODING 12303
SWIDTH 720 0
DWIDTH 12 0
BBX 12 12 0 -2
BITMAP
0000
0000
1C00
1400
1400
1400
1400
1400
1400
7400
4400
7C00
ENDCHAR
STARTCHAR 3010
ENCODING 12304
SWIDTH 720 0
DWIDTH 12 0
BBX 12 12 0 -2
BITMAP
01E0
01C0
0180
0180
0180
0180
0180
0180
0180
0180
01C0
01E0
ENDCHAR
STARTCHAR 3011
ENCODING 12305
SWIDTH 720 0
DWIDTH 12 0
BBX 12 12 0 -2
BITMAP
7800
3800
1800
1800
1800
1800
1800
1800
1800
1800
3800
7800
ENDCHAR
STARTCHAR 3012
ENCODING 12306
SWIDTH 720 0
DWIDTH 12 0
BBX 12 12 0 -2
BITMAP
0000
FFF0
FFF0
0000
FFF0
FFF0
0600
0600
0600
0600
0600
0600
ENDCHAR
STARTCHAR 3013
ENCODING 12307
SWIDTH 720 0
DWIDTH 12 0
BBX 12 12 0 -2
BITMAP
0000
0000
0000
3FC0
3FC0
0000
0000
3FC0
3FC0
0000
0000
0000
ENDCHAR
STARTCHAR 3014
ENCODING 12308
SWIDTH 720 0
DWIDTH 12 0
BBX 12 12 0 -2
BITMAP
0020
0040
0080
0080
0080
0080
0080
0080
0080
0080
0040
0020
ENDCHAR
STARTCHAR 3015
ENCODING 12309
SWIDTH 720 0
DWIDTH 12 0
BBX 12 12 0 -2
BITMAP
4000
2000
1000
1000
1000
1000
1000
1000
1000
1000
2000
4000
ENDCHAR
STARTCHAR 301C
ENCODING 12316
SWIDTH 720 0
DWIDTH 12 0
BBX 12 12 0 -2
BITMAP
0000
0000
0000
0000
3800
6C10
8660
03C0
0000
0000
0000
0000
ENDCHAR
STARTCHAR 301D
ENCODING 12317
SWIDTH 720 0
DWIDTH 12 0
BBX 12 12 0 -2
BITMAP
01A0
0120
0140
0000
0000
0000
0000
0000
0000
0000
0000
0000
ENDCHAR
STARTCHAR 301F
ENCODING 12319
SWIDTH 720 0
DWIDTH 12 0
BBX 12 12 0 -2
BITMAP
0000
0000
0000
0000
0000
0000
0000
0000
0000
6800
5000
0000
ENDCHAR
STARTCHAR 3041
ENCODING 12353
SWIDTH 720 0
DWIDTH 12 0
BBX 12 12 0 -2
BITMAP
0000
0000
0000
0000
0D00
1700
1C80
0780
0DC0
16C0
1AC0
1180
ENDCHAR
STARTCHAR 3042
ENCODING 12354
SWIDTH 720 0
DWIDTH 12 0
BBX 12 12 0 -2
BITMAP
0C00
0600
4F00
7C00
2900
1FC0
3A60
2A60
4C60
5C60
74C0
0300
ENDCHAR
STARTCHAR 3043
ENCODING 12355
SWIDTH 720 0
DWIDTH 12 0
BBX 12 12 0 -2
BITMAP
0000
0000
0000
0000
0000
2100
1080
18C0
19C0
1800
1C00
0800
ENDCHAR
STARTCHAR 3044
ENCODING 12356
SWIDTH 720 0
DWIDTH 12 0
BBX 12 12 0 -2
BITMAP
0000
0000
4000
2080
3040
3060
34E0
3860
3000
1800
1800
0000
ENDCHAR
STARTCHAR 3045
ENCODING 12357
SWIDTH 720 0
DWIDTH 12 0
BBX 12 12 0 -2
BITMAP
0000
0000
0000
0600
0300
0000
1700
1D80
0980
0180
0100
0600
ENDCHAR
STARTCHAR 3046
ENCODING 12358
SWIDTH 720 0
DWIDTH 12 0
BBX 12 12 0 -2
BITMAP
0800
0700
0300
0000
2F00
3980
1180
0180
0180
0100
0300
0C00
ENDCHAR
STARTCHAR 3047
ENCODING 12359
SWIDTH 720 0
DWIDTH 12 0
BBX 12 12 0 -2
BITMAP
0000
0000
0000
0000
0E00
0300
1F00
1A00
0600
0A00
1BC0
31C0
ENDCHAR
STARTCHAR 3048
ENCODING 12360
SWIDTH 720 0
DWIDTH 12 0
BBX 12 12 0 -2
BITMAP
0800
0F00
0600
2300
3F00
1A00
0400
0C00
1A00
3200
63E0
61E0
ENDCHAR
STARTCHAR 3049
ENCODING 12361
SWIDTH 720 0
DWIDTH 12 0
BBX 12 12 0 -2
BITMAP
0000
0000
0000
0000
0000
1A80
2EC0
3840
0F00
3980
2980
1B00
ENDCHAR
STARTCHAR 304A
ENCODING 12362
SWIDTH 720 0
DWIDTH 12 0
BBX 12 12 0 -2
BITMAP
3000
18C0
1C60
5460
7C00
33C0
1E60
1860
7060
5260
39C0
3000
ENDCHAR
STARTCHAR 304B
ENCODING 12363
SWIDTH 720 0
DWIDTH 12 0
BBX 12 12 0 -2
BITMAP
1800
1C00
0800
9EC0
FB60
D130
3330
2370
6320
D600
CE00
0C00
ENDCHAR
STARTCHAR 304C
ENCODING 12364
SWIDTH 720 0
DWIDTH 12 0
BBX 12 12 0 -2
BITMAP
1820
1C50
0870
9EA0
FB40
D160
3330
2370
6320
D600
CE00
0C00
ENDCHAR
STARTCHAR 304D
ENCODING 12365
SWIDTH 720 0
DWIDTH 12 0
BBX 12 12 0 -2
BITMAP
0C00
0D80
2780
3EC0
2380
1E00
0300
1F80
2180
3000
1E00
0E00
ENDCHAR
STARTCHAR 304E
ENCODING 12366
SWIDTH 720 0
DWIDTH 12 0
BBX 12 12 0 -2
BITMAP
0C40
0DA0
2760
3EC0
2380
1E00
0300
1F80
2180
3000
1E00
0E00
ENDCHAR
STARTCHAR 304F
ENCODING 12367
SWIDTH 720 0
DWIDTH 12 0
BBX 12 12 0 -2
BITMAP
0600
0300
0300
0600
0C00
1000
1800
0C00
0600
0600
0300
0300
ENDCHAR
STARTCHAR 3050
ENCODING 12368
SWIDTH 720 0
DWIDTH 12 0
BBX 12 12 0 -2
BITMAP
0600
0300
0340
06A0
0CE0
1040
1800
0C00
0600
0600
0300
0300
ENDCHAR
STARTCHAR 3051
ENCODING 12369
SWIDTH 720 0
DWIDTH 12 0
BBX 12 12 0 -2
BITMAP
0300
61C0
3180
31E0
2FA0
6D80
4180
5180
6180
6100
3100
3200
ENDCHAR
STARTCHAR 3052
ENCODING 12370
SWIDTH 720 0
DWIDTH 12 0
BBX 12 12 0 -2
BITMAP
0320
61D0
31B0
31A0
29F0
6FA0
4580
5180
6180
6100
3100
3200
ENDCHAR
STARTCHAR 3053
ENCODING 12371
SWIDTH 720 0
DWIDTH 12 0
BBX 12 12 0 -2
BITMAP
0000
0000
1F00
0F80
0200
0000
1000
2000
2000
3FC0
1F80
0000
ENDCHAR
STARTCHAR 3054
ENCODING 12372
SWIDTH 720 0
DWIDTH 12 0
BBX 12 12 0 -2
BITMAP
0040
00A0
1FE0
0F40
0200
0000
1000
2000
2000
3FC0
1F80
0000
ENDCHAR
STARTCHAR 3055
ENCODING 12373
SWIDTH 720 0
DWIDTH 12 0
BBX 12 12 0 -2
BITMAP
0C00
0C00
06C0
2380
3F00
1980
07C0
08C0
1000
1800
0F00
0780
ENDCHAR
STARTCHAR 3056
ENCODING 12374
SWIDTH 720 0
DWIDTH 12 0
BBX 12 12 0 -2
BITMAP
0C20
0C50
06F0
23A0
3F00
1980
07C0
08C0
1000
1800
0F00
0780
ENDCHAR
STARTCHAR 3057
ENCODING 12375
SWIDTH 720 0
DWIDTH 12 0
BBX 12 12 0 -2
BITMAP
3000
1C00
1800
1800
1800
1800
1800
1800
1820
18C0
1F80
0E00
ENDCHAR
STARTCHAR 3058
ENCODING 12376
SWIDTH 720 0
DWIDTH 12 0
BBX 12 12 0 -2
BITMAP
3000
1C80
1940
19C0
1880
1800
1800
1800
1820
18C0
1F80
0E00
ENDCHAR
STARTCHAR 3059
ENCODING 12377
SWIDTH 720 0
DWIDTH 12 0
BBX 12 12 0 -2
BITMAP
0600
0380
0300
8FE0
FB70
6F00
1B00
1B00
0F00
0300
0200
0C00
ENDCHAR
STARTCHAR 305A
ENCODING 12378
SWIDTH 720 0
DWIDTH 12 0
BBX 12 12 0 -2
BITMAP
06A0
03F0
0350
8FE0
FB70
6F00
1B00
1B00
0F00
0300
0200
0C00
ENDCHAR
STARTCHAR 305B
ENCODING 12379
SWIDTH 720 0
DWIDTH 12 0
BBX 12 12 0 -2
BITMAP
0300
3180
1D80
19E0
9FF0
FD80
7980
1B80
1900
1800
0FC0
07C0
ENDCHAR
STARTCHAR 305C
ENCODING 12380
SWIDTH 720 0
DWIDTH 12 0
BBX 12 12 0 -2
BITMAP
00A0
3370
1DC0
19A0
9FF0
FD80
7980
1B80
1900
1800
0FC0
07C0
ENDCHAR
STARTCHAR 305D
ENCODING 12381
SWIDTH 720 0
DWIDTH 12 0
BBX 12 12 0 -2
BITMAP
0000
1780
1D80
0B00
06C0
2FE0
3A00
3400
0400
0600
0380
0180
ENDCHAR
STARTCHAR 305E
ENCODING 12382
SWIDTH 720 0
DWIDTH 12 0
BBX 12 12 0 -2
BITMAP
0000
2F20
3B50
1670
0DA0
5FC0
7400
6800
0800
0C00
0700
0300
ENDCHAR
STARTCHAR 305F
ENCODING 12383
SWIDTH 720 0
DWIDTH 12 0
BBX 12 12 0 -2
BITMAP
3000
1C00
1800
9E00
FBC0
51C0
3000
3000
6400
63C0
61C0
0000
ENDCHAR
STARTCHAR 3060
ENCODING 12384
SWIDTH 720 0
DWIDTH 12 0
BBX 12 12 0 -2
BITMAP
3020
1C50
1870
9E20
FBC0
5180
3000
3000
6400
63C0
61C0
0000
ENDCHAR
STARTCHAR 3061
ENCODING 12385
SWIDTH 720 0
DWIDTH 12 0
BBX 12 12 0 -2
BITMAP
1800
0E00
0C00
4F00
7E00
2800
1B80
1CC0
18C0
00C0
0180
0600
ENDCHAR
STARTCHAR 3062
ENCODING 12386
SWIDTH 720 0
DWIDTH 12 0
BBX 12 12 0 -2
BITMAP
1800
0E40
0CA0
4FE0
7E40
2800
1B80
1CC0
18C0
00C0
0180
0600
ENDCHAR
STARTCHAR 3063
ENCODING 12387
SWIDTH 720 0
DWIDTH 12 0
BBX 12 12 0 -2
BITMAP
0000
0000
0000
0000
0000
0000
0780
3CC0
18C0
00C0
0180
0600
ENDCHAR
STARTCHAR 3064
ENCODING 12388
SWIDTH 720 0
DWIDTH 12 0
BBX 12 12 0 -2
BITMAP
0000
0000
0000
07C0
5C60
7860
2060
0060
00C0
0180
0600
0000
ENDCHAR
STARTCHAR 3065
ENCODING 12389
SWIDTH 720 0
DWIDTH 12 0
BBX 12 12 0 -2
BITMAP
0020
0050
0070
07D0
5C60
7860
2060
0060
00C0
0180
0600
0000
ENDCHAR
STARTCHAR 3066
ENCODING 12390
SWIDTH 720 0
DWIDTH 12 0
BBX 12 12 0 -2
BITMAP
0000
0000
07E0
BFE0
F600
4C00
0800
0800
0C00
07C0
03C0
0000
ENDCHAR
STARTCHAR 3067
ENCODING 12391
SWIDTH 720 0
DWIDTH 12 0
BBX 12 12 0 -2
BITMAP
0000
0000
07C0
BFA0
F650
4C70
0820
0800
0C00
07C0
03C0
0000
ENDCHAR
STARTCHAR 3068
ENCODING 12392
SWIDTH 720 0
DWIDTH 12 0
BBX 12 12 0 -2
BITMAP
1800
0C00
0C00
0C00
0CC0
09C0
0700
0C00
1000
1000
1FC0
0FC0
ENDCHAR
STARTCHAR 3069
ENCODING 12393
SWIDTH 720 0
DWIDTH 12 0
BBX 12 12 0 -2
BITMAP
3040
18A0
18E0
1840
1980
1380
0E00
1800
2000
2000
3F80
1F80
ENDCHAR
STARTCHAR 306A
ENCODING 12394
SWIDTH 720 0
DWIDTH 12 0
BBX 12 12 0 -2
BITMAP
3000
1A00
9EC0
FC60
D0E0
3100
6300
6300
4F80
13E0
1B60
0E00
ENDCHAR
STARTCHAR 306B
ENCODING 12395
SWIDTH 720 0
DWIDTH 12 0
BBX 12 12 0 -2
BITMAP
0000
6000
31C0
37C0
3080
6000
4000
6400
6A00
73E0
31E0
3000
ENDCHAR
STARTCHAR 306C
ENCODING 12396
SWIDTH 720 0
DWIDTH 12 0
BBX 12 12 0 -2
BITMAP
0600
0300
2300
2FC0
3A60
1660
3460
6C60
4BC0
7660
23B0
0000
ENDCHAR
STARTCHAR 306D
ENCODING 12397
SWIDTH 720 0
DWIDTH 12 0
BBX 12 12 0 -2
BITMAP
3000
1800
1800
1BC0
1660
7460
5860
3060
53C0
7660
3BB0
2000
ENDCHAR
STARTCHAR 306E
ENCODING 12398
SWIDTH 720 0
DWIDTH 12 0
BBX 12 12 0 -2
BITMAP
0000
0000
0F80
14C0
3460
2860
6860
5860
70C0
3080
0300
0000
ENDCHAR
STARTCHAR 306F
ENCODING 12399
SWIDTH 720 0
DWIDTH 12 0
BBX 12 12 0 -2
BITMAP
0000
6180
38C0
30F0
37E0
6380
40C0
50C0
63C0
64E0
37B0
3300
ENDCHAR
STARTCHAR 3070
ENCODING 12400
SWIDTH 720 0
DWIDTH 12 0
BBX 12 12 0 -2
BITMAP
0020
6370
39D0
31A0
3FE0
6700
4180
4180
67C0
69E0
3DB0
3700
ENDCHAR
STARTCHAR 3071
ENCODING 12401
SWIDTH 720 0
DWIDTH 12 0
BBX 12 12 0 -2
BITMAP
0070
6350
3970
31E0
3FC0
6700
4180
4180
67C0
69E0
3DB0
3700
ENDCHAR
STARTCHAR 3072
ENCODING 12402
SWIDTH 720 0
DWIDTH 12 0
BBX 12 12 0 -2
BITMAP
0000
0000
4CC0
7CC0
38C0
10E0
10B0
21B0
2100
2300
3E00
1C00
ENDCHAR
STARTCHAR 3073
ENCODING 12403
SWIDTH 720 0
DWIDTH 12 0
BBX 12 12 0 -2
BITMAP
0000
0020
99F0
F9D0
71A0
21C0
2160
4360
4200
4600
7C00
3800
ENDCHAR
STARTCHAR 3074
ENCODING 12404
SWIDTH 720 0
DWIDTH 12 0
BBX 12 12 0 -2
BITMAP
0000
0070
99D0
F9F0
7180
21C0
2160
4360
4200
4600
7C00
3800
ENDCHAR
STARTCHAR 3075
ENCODING 12405
SWIDTH 720 0
DWIDTH 12 0
BBX 12 12 0 -2
BITMAP
0000
0800
0700
0600
0800
0C00
07C0
1A60
B330
6B30
6700
0600
ENDCHAR
STARTCHAR 3076
ENCODING 12406
SWIDTH 720 0
DWIDTH 12 0
BBX 12 12 0 -2
BITMAP
0000
0820
0770
0650
0860
0C20
07C0
1A60
B330
6B30
6700
0600
ENDCHAR
STARTCHAR 3077
ENCODING 12407
SWIDTH 720 0
DWIDTH 12 0
BBX 12 12 0 -2
BITMAP
0000
0800
0770
0650
0870
0C00
07C0
1A60
B330
6B30
6700
0600
ENDCHAR
STARTCHAR 3078
ENCODING 12408
SWIDTH 720 0
DWIDTH 12 0
BBX 12 12 0 -2
BITMAP
0000
0000
1800
1400
3200
B300
61C0
60F0
0030
0000
0000
0000
ENDCHAR
STARTCHAR 3079
ENCODING 12409
SWIDTH 720 0
DWIDTH 12 0
BBX 12 12 0 -2
BITMAP
0080
0140
19C0
1480
3200
B300
61C0
60F0
0030
0000
0000
0000
ENDCHAR
STARTCHAR 307A
ENCODING 12410
SWIDTH 720 0
DWIDTH 12 0
BBX 12 12 0 -2
BITMAP
0000
01C0
1940
15C0
3200
B300
61C0
60F0
0030
0000
0000
0000
ENDCHAR
STARTCHAR 307B
ENCODING 12411
SWIDTH 720 0
DWIDTH 12 0
BBX 12 12 0 -2
BITMAP
0000
61E0
3FC0
3580
31E0
6FC0
4580
5180
67C0
65E0
37A0
3300
ENDCHAR
STARTCHAR 307C
ENCODING 12412
SWIDTH 720 0
DWIDTH 12 0
BBX 12 12 0 -2
BITMAP
0020
60F0
3FD0
35A0
31E0
6FC0
4580
5180
67C0
65E0
37A0
3300
ENDCHAR
STARTCHAR 307D
ENCODING 12413
SWIDTH 720 0
DWIDTH 12 0
BBX 12 12 0 -2
BITMAP
0070
60D0
3FF0
3580
31E0
6FE0
4580
5180
67C0
65E0
37A0
3300
ENDCHAR
STARTCHAR 307E
ENCODING 12414
SWIDTH 720 0
DWIDTH 12 0
BBX 12 12 0 -2
BITMAP
0E00
0600
67C0
3E80
2780
3F00
1600
0600
1F00
27C0
3EC0
1C00
ENDCHAR
STARTCHAR 307F
ENCODING 12415
SWIDTH 720 0
DWIDTH 12 0
BBX 12 12 0 -2
BITMAP
0000
2E00
3E00
1400
0D80
08C0
3EC0
5BF0
71B0
6300
4200
0C00
ENDCHAR
STARTCHAR 3080
ENCODING 12416
SWIDTH 720 0
DWIDTH 12 0
BBX 12 12 0 -2
BITMAP
3000
1A00
9EC0
F8A0
58B0
10B0
7040
5040
5040
3040
1FC0
0F80
ENDCHAR
STARTCHAR 3081
ENCODING 12417
SWIDTH 720 0
DWIDTH 12 0
BBX 12 12 0 -2
BITMAP
0600
0300
2300
2FC0
3A60
1660
3460
6C60
4CC0
7480
2300
0000
ENDCHAR
STARTCHAR 3082
ENCODING 12418
SWIDTH 720 0
DWIDTH 12 0
BBX 12 12 0 -2
BITMAP
0C00
0600
2600
1C00
0E00
2B00
3C80
16C0
1A40
18C0
0F80
0700
ENDCHAR
STARTCHAR 3083
ENCODING 12419
SWIDTH 720 0
DWIDTH 12 0
BBX 12 12 0 -2
BITMAP
0000
0000
0000
0400
0600
1B80
37C0
5A40
7980
0C00
0600
0600
ENDCHAR
STARTCHAR 3084
ENCODING 12420
SWIDTH 720 0
DWIDTH 12 0
BBX 12 12 0 -2
BITMAP
0000
0400
3300
29E0
3730
1C30
9A60
7DC0
6400
0600
0300
0300
ENDCHAR
STARTCHAR 3085
ENCODING 12421
SWIDTH 720 0
DWIDTH 12 0
BBX 12 12 0 -2
BITMAP
0000
0000
0000
0600
3300
1780
2AC0
3AC0
36C0
1780
0600
0C00
ENDCHAR
STARTCHAR 3086
ENCODING 12422
SWIDTH 720 0
DWIDTH 12 0
BBX 12 12 0 -2
BITMAP
0400
6200
3B80
3740
6B60
6B60
7B60
6B40
3780
2300
0600
1800
ENDCHAR
STARTCHAR 3087
ENCODING 12423
SWIDTH 720 0
DWIDTH 12 0
BBX 12 12 0 -2
BITMAP
0000
0000
0000
0C00
0600
0580
0700
0400
1E00
2780
3D80
1800
ENDCHAR
STARTCHAR 3088
ENCODING 12424
SWIDTH 720 0
DWIDTH 12 0
BBX 12 12 0 -2
BITMAP
0C00
0700
0600
06C0
07C0
0600
0600
0600
3F00
47C0
66E0
3C00
ENDCHAR
STARTCHAR 3089
ENCODING 12425
SWIDTH 720 0
DWIDTH 12 0
BBX 12 12 0 -2
BITMAP
0400
0200
0700
0B00
1800
1800
1B80
1CC0
18C0
00C0
0180
0600
ENDCHAR
STARTCHAR 308A
ENCODING 12426
SWIDTH 720 0
DWIDTH 12 0
BBX 12 12 0 -2
BITMAP
0000
3000
1B00
1D80
1580
3980
3980
3180
1180
0300
0200
0C00
ENDCHAR
STARTCHAR 308B
ENCODING 12427
SWIDTH 720 0
DWIDTH 12 0
BBX 12 12 0 -2
BITMAP
0000
1700
1F00
0A00
0400
0B00
1C80
38C0
30C0
0EC0
0B80
0700
ENDCHAR
STARTCHAR 308C
ENCODING 12428
SWIDTH 720 0
DWIDTH 12 0
BBX 12 12 0 -2
BITMAP
3000
1800
1980
1AC0
14C0
58C0
7180
7180
5190
31E0
38C0
3000
ENDCHAR
STARTCHAR 308D
ENCODING 12429
SWIDTH 720 0
DWIDTH 12 0
BBX 12 12 0 -2
BITMAP
0000
1700
1F00
0A00
0400
0B00
1D80
30C0
30C0
00C0
0180
0600
ENDCHAR
STARTCHAR 308E
ENCODING 12430
SWIDTH 720 0
DWIDTH 12 0
BBX 12 12 0 -2
BITMAP
0000
0000
0000
0000
0000
1800
0C00
3B80
2CC0
18C0
3880
0B00
ENDCHAR
STARTCHAR 308F
ENCODING 12431
SWIDTH 720 0
DWIDTH 12 0
BBX 12 12 0 -2
BITMAP
3000
1800
1800
1800
13C0
7C60
5860
3060
5060
58C0
3B00
3000
ENDCHAR
STARTCHAR 3090
ENCODING 12432
SWIDTH 720 0
DWIDTH 12 0
BBX 12 12 0 -2
BITMAP
0000
1700
1F00
0A00
0C00
1FC0
3860
6860
5360
74E0
26C0
0380
ENDCHAR
STARTCHAR 3091
ENCODING 12433
SWIDTH 720 0
DWIDTH 12 0
BBX 12 12 0 -2
BITMAP
0000
1700
1B00
0600
1B80
1CC0
0B80
0F00
31C0
6B20
CE70
CC30
ENDCHAR
STARTCHAR 3092
ENCODING 12434
SWIDTH 720 0
DWIDTH 12 0
BBX 12 12 0 -2
BITMAP
0C00
0600
2D00
3F00
0880
1EC0
33C0
3700
0B00
0800
0F80
07C0
ENDCHAR
STARTCHAR 3093
ENCODING 12435
SWIDTH 720 0
DWIDTH 12 0
BBX 12 12 0 -2
BITMAP
0800
0600
0600
0C00
0C00
1800
1000
2C20
3620
6640
66C0
6380
ENDCHAR
STARTCHAR 309B
ENCODING 12443
SWIDTH 720 0
DWIDTH 12 0
BBX 12 12 0 -2
BITMAP
2000
9000
5800
6000
0000
0000
0000
0000
0000
0000
0000
0000
ENDCHAR
STARTCHAR 309C
ENCODING 12444
SWIDTH 720 0
DWIDTH 12 0
BBX 12 12 0 -2
BITMAP
6000
9000
9000
6000
0000
0000
0000
0000
0000
0000
0000
0000
ENDCHAR
STARTCHAR 309D
ENCODING 12445
SWIDTH 720 0
DWIDTH 12 0
BBX 12 12 0 -2
BITMAP
0000
0000
1000
1000
0800
0600
0300
0700
0800
0000
0000
0000
ENDCHAR
STARTCHAR 309E
ENCODING 12446
SWIDTH 720 0
DWIDTH 12 0
BBX 12 12 0 -2
BITMAP
0000
0100
1280
11C0
0900
0600
0300
0700
0800
0000
0000
0000
ENDCHAR
STARTCHAR 30A1
ENCODING 12449
SWIDTH 720 0
DWIDTH 12 0
BBX 12 12 0 -2
BITMAP
0000
0000
0000
0000
0000
03C0
3E80
1500
0600
0600
0400
0800
ENDCHAR
STARTCHAR 30A2
ENCODING 12450
SWIDTH 720 0
DWIDTH 12 0
BBX 12 12 0 -2
BITMAP
0000
0040
47E0
7E60
3980
2600
0600
0600
0400
0C00
0800
1000
ENDCHAR
STARTCHAR 30A3
ENCODING 12451
SWIDTH 720 0
DWIDTH 12 0
BBX 12 12 0 -2
BITMAP
0000
0000
0000
0000
0000
0300
0300
0600
0E00
3600
0600
0600
ENDCHAR
STARTCHAR 30A4
ENCODING 12452
SWIDTH 720 0
DWIDTH 12 0
BBX 12 12 0 -2
BITMAP
0100
0180
0380
0300
0600
0E00
1600
6600
0600
0600
0600
0600
ENDCHAR
STARTCHAR 30A5
ENCODING 12453
SWIDTH 720 0
DWIDTH 12 0
BBX 12 12 0 -2
BITMAP
0000
0000
0000
0000
1C00
0D00
2F80
3D80
3300
3300
0200
0C00
ENDCHAR
STARTCHAR 30A6
ENCODING 12454
SWIDTH 720 0
DWIDTH 12 0
BBX 12 12 0 -2
BITMAP
0C00
0700
06C0
67E0
3CC0
30C0
30C0
3180
0180
0300
0200
0400
ENDCHAR
STARTCHAR 30A7
ENCODING 12455
SWIDTH 720 0
DWIDTH 12 0
BBX 12 12 0 -2
BITMAP
0000
0000
0000
0000
0000
0380
1E80
1600
0680
27C0
3C00
0000
ENDCHAR
STARTCHAR 30A8
ENCODING 12456
SWIDTH 720 0
DWIDTH 12 0
BBX 12 12 0 -2
BITMAP
0000
0000
0380
3FC0
3400
0600
0600
0600
06C0
7FE0
3000
0000
ENDCHAR
STARTCHAR 30A9
ENCODING 12457
SWIDTH 720 0
DWIDTH 12 0
BBX 12 12 0 -2
BITMAP
0000
0000
0000
0000
0C00
0600
2780
3E80
0E00
1600
2E00
0400
ENDCHAR
STARTCHAR 30AA
ENCODING 12458
SWIDTH 720 0
DWIDTH 12 0
BBX 12 12 0 -2
BITMAP
0600
0380
0300
07E0
7F60
3700
0F00
0B00
1300
6B00
0700
0200
ENDCHAR
STARTCHAR 30AB
ENCODING 12459
SWIDTH 720 0
DWIDTH 12 0
BBX 12 12 0 -2
BITMAP
0000
0E00
0600
0480
0FC0
7D80
6980
1980
3100
2700
4300
8200
ENDCHAR
STARTCHAR 30AC
ENCODING 12460
SWIDTH 720 0
DWIDTH 12 0
BBX 12 12 0 -2
BITMAP
0000
0E20
0650
0470
0FE0
7D80
6980
1980
3100
2700
4300
8200
ENDCHAR
STARTCHAR 30AD
ENCODING 12461
SWIDTH 720 0
DWIDTH 12 0
BBX 12 12 0 -2
BITMAP
0C00
0700
0600
07C0
3EC0
3600
03E0
7F60
3300
0300
0300
0300
ENDCHAR
STARTCHAR 30AE
ENCODING 12462
SWIDTH 720 0
DWIDTH 12 0
BBX 12 12 0 -2
BITMAP
0C20
0750
0670
07A0
3E80
3600
03E0
7F60
3300
0300
0300
0300
ENDCHAR
STARTCHAR 30AF
ENCODING 12463
SWIDTH 720 0
DWIDTH 12 0
BBX 12 12 0 -2
BITMAP
0000
0C00
06C0
07C0
0CC0
0980
1180
2300
0200
0400
0800
1000
ENDCHAR
STARTCHAR 30B0
ENCODING 12464
SWIDTH 720 0
DWIDTH 12 0
BBX 12 12 0 -2
BITMAP
0020
1850
0DF0
0FA0
1980
1300
2300
4600
0400
0800
1000
2000
ENDCHAR
STARTCHAR 30B1
ENCODING 12465
SWIDTH 720 0
DWIDTH 12 0
BBX 12 12 0 -2
BITMAP
0000
0000
1800
0C00
0DC0
1FE0
1300
2300
4600
0400
0800
1000
ENDCHAR
STARTCHAR 30B2
ENCODING 12466
SWIDTH 720 0
DWIDTH 12 0
BBX 12 12 0 -2
BITMAP
0000
0020
3050
1830
1BA0
3FC0
2600
4600
8C00
0800
1000
2000
ENDCHAR
STARTCHAR 30B3
ENCODING 12467
SWIDTH 720 0
DWIDTH 12 0
BBX 12 12 0 -2
BITMAP
0000
0000
0000
0180
3FC0
18C0
0180
0180
3F80
1980
0000
0000
ENDCHAR
STARTCHAR 30B4
ENCODING 12468
SWIDTH 720 0
DWIDTH 12 0
BBX 12 12 0 -2
BITMAP
0000
0020
0050
03F0
3FA0
1980
0300
0300
3F00
1B00
0000
0000
ENDCHAR
STARTCHAR 30B5
ENCODING 12469
SWIDTH 720 0
DWIDTH 12 0
BBX 12 12 0 -2
BITMAP
0300
31C0
1D80
19E0
1FF0
F980
D980
1980
0300
0300
0200
0C00
ENDCHAR
STARTCHAR 30B6
ENCODING 12470
SWIDTH 720 0
DWIDTH 12 0
BBX 12 12 0 -2
BITMAP
0320
31D0
1DB0
19A0
1FF0
F980
D980
1980
0300
0300
0200
0C00
ENDCHAR
STARTCHAR 30B7
ENCODING 12471
SWIDTH 720 0
DWIDTH 12 0
BBX 12 12 0 -2
BITMAP
0000
2000
1C00
4C00
3820
1840
0080
0300
4E00
3C00
3000
0000
ENDCHAR
STARTCHAR 30B8
ENCODING 12472
SWIDTH 720 0
DWIDTH 12 0
BBX 12 12 0 -2
BITMAP
0000
2020
1C50
4C30
3820
1840
0080
0300
4E00
3C00
3000
0000
ENDCHAR
STARTCHAR 30B9
ENCODING 12473
SWIDTH 720 0
DWIDTH 12 0
BBX 12 12 0 -2
BITMAP
0000
0000
0780
3F00
3300
0600
0600
0D00
0980
10C0
60C0
0000
ENDCHAR
STARTCHAR 30BA
ENCODING 12474
SWIDTH 720 0
DWIDTH 12 0
BBX 12 12 0 -2
BITMAP
0020
0050
07F0
3F20
3300
0600
0600
0D00
0980
10C0
60C0
0000
ENDCHAR
STARTCHAR 30BB
ENCODING 12475
SWIDTH 720 0
DWIDTH 12 0
BBX 12 12 0 -2
BITMAP
3800
1C00
1800
1980
1FC0
F980
D900
1A00
1800
1FC0
0FC0
0000
ENDCHAR
STARTCHAR 30BC
ENCODING 12476
SWIDTH 720 0
DWIDTH 12 0
BBX 12 12 0 -2
BITMAP
3820
1C50
1870
19A0
1FC0
F980
D900
1A00
1800
1FC0
0FC0
0000
ENDCHAR
STARTCHAR 30BD
ENCODING 12477
SWIDTH 720 0
DWIDTH 12 0
BBX 12 12 0 -2
BITMAP
0000
0180
40C0
21C0
3180
3180
0300
0300
0600
0400
0800
1000
ENDCHAR
STARTCHAR 30BE
ENCODING 12478
SWIDTH 720 0
DWIDTH 12 0
BBX 12 12 0 -2
BITMAP
0020
0250
41F0
21A0
3180
3180
0300
0300
0600
0400
0800
1000
ENDCHAR
STARTCHAR 30BF
ENCODING 12479
SWIDTH 720 0
DWIDTH 12 0
BBX 12 12 0 -2
BITMAP
0000
0C00
06C0
07C0
0D80
0D80
1700
2300
0600
0400
0800
1000
ENDCHAR
STARTCHAR 30C0
ENCODING 12480
SWIDTH 720 0
DWIDTH 12 0
BBX 12 12 0 -2
BITMAP
0020
1850
0DF0
0FA0
1B00
1B00
2E00
4600
0C00
0800
1000
2000
ENDCHAR
STARTCHAR 30C1
ENCODING 12481
SWIDTH 720 0
DWIDTH 12 0
BBX 12 12 0 -2
BITMAP
0200
0300
0F00
3C00
06C0
07E0
7E00
3600
0400
0C00
0800
3000
ENDCHAR
STARTCHAR 30C2
ENCODING 12482
SWIDTH 720 0
DWIDTH 12 0
BBX 12 12 0 -2
BITMAP
0200
0320
0F50
3C30
06E0
07C0
7E00
3600
0400
0C00
0800
3000
ENDCHAR
STARTCHAR 30C3
ENCODING 12483
SWIDTH 720 0
DWIDTH 12 0
BBX 12 12 0 -2
BITMAP
0000
0000
0000
0000
0000
0900
2D80
3580
1100
0300
0200
0C00
ENDCHAR
STARTCHAR 30C4
ENCODING 12484
SWIDTH 720 0
DWIDTH 12 0
BBX 12 12 0 -2
BITMAP
0000
10C0
0C60
4CE0
30C0
30C0
0180
0180
0300
0200
0400
0800
ENDCHAR
STARTCHAR 30C5
ENCODING 12485
SWIDTH 720 0
DWIDTH 12 0
BBX 12 12 0 -2
BITMAP
0020
2050
1970
99A0
6180
6180
0300
0300
0600
0400
0800
1000
ENDCHAR
STARTCHAR 30C6
ENCODING 12486
SWIDTH 720 0
DWIDTH 12 0
BBX 12 12 0 -2
BITMAP
0000
0300
3F80
1800
47C0
7EE0
3600
0600
0400
0C00
0800
1000
ENDCHAR
STARTCHAR 30C7
ENCODING 12487
SWIDTH 720 0
DWIDTH 12 0
BBX 12 12 0 -2
BITMAP
0020
0350
3F70
1820
47C0
7EC0
3600
0600
0400
0C00
0800
1000
ENDCHAR
STARTCHAR 30C8
ENCODING 12488
SWIDTH 720 0
DWIDTH 12 0
BBX 12 12 0 -2
BITMAP
1800
0E00
0C00
0C00
0F00
0DC0
0CC0
0C00
0C00
0C00
0C00
0C00
ENDCHAR
STARTCHAR 30C9
ENCODING 12489
SWIDTH 720 0
DWIDTH 12 0
BBX 12 12 0 -2
BITMAP
1800
0E40
0CA0
0CE0
0F40
0DC0
0CC0
0C00
0C00
0C00
0C00
0C00
ENDCHAR
STARTCHAR 30CA
ENCODING 12490
SWIDTH 720 0
DWIDTH 12 0
BBX 12 12 0 -2
BITMAP
0C00
0700
0600
0600
07E0
7E60
3600
0600
0400
0C00
0800
1000
ENDCHAR
STARTCHAR 30CB
ENCODING 12491
SWIDTH 720 0
DWIDTH 12 0
BBX 12 12 0 -2
BITMAP
0000
0000
0000
0300
3F80
3800
0000
01C0
7FE0
7000
0000
0000
ENDCHAR
STARTCHAR 30CC
ENCODING 12492
SWIDTH 720 0
DWIDTH 12 0
BBX 12 12 0 -2
BITMAP
0000
0000
0380
3DC0
3980
0B00
0600
0780
0CC0
08C0
3000
0000
ENDCHAR
STARTCHAR 30CD
ENCODING 12493
SWIDTH 720 0
DWIDTH 12 0
BBX 12 12 0 -2
BITMAP
0C00
0700
0200
2F80
3B00
1600
0D80
1EC0
66C0
0600
0600
0600
ENDCHAR
STARTCHAR 30CE
ENCODING 12494
SWIDTH 720 0
DWIDTH 12 0
BBX 12 12 0 -2
BITMAP
0000
0100
01C0
0180
0180
0300
0300
0600
0400
0800
3000
0000
ENDCHAR
STARTCHAR 30CF
ENCODING 12495
SWIDTH 720 0
DWIDTH 12 0
BBX 12 12 0 -2
BITMAP
0000
0000
0000
1900
1880
18C0
1060
3060
2060
4000
0000
0000
ENDCHAR
STARTCHAR 30D0
ENCODING 12496
SWIDTH 720 0
DWIDTH 12 0
BBX 12 12 0 -2
BITMAP
0000
0020
0050
1920
18A0
18C0
1060
3060
2060
4000
0000
0000
ENDCHAR
STARTCHAR 30D1
ENCODING 12497
SWIDTH 720 0
DWIDTH 12 0
BBX 12 12 0 -2
BITMAP
0000
0070
0050
1970
1880
18C0
1060
3060
2060
4000
0000
0000
ENDCHAR
STARTCHAR 30D2
ENCODING 12498
SWIDTH 720 0
DWIDTH 12 0
BBX 12 12 0 -2
BITMAP
0000
3000
1C00
1800
1980
1F80
1800
1800
1800
1FC0
0FC0
0000
ENDCHAR
STARTCHAR 30D3
ENCODING 12499
SWIDTH 720 0
DWIDTH 12 0
BBX 12 12 0 -2
BITMAP
0000
3020
1C50
1870
19A0
1F80
1800
1800
1800
1FC0
0FC0
0000
ENDCHAR
STARTCHAR 30D4
ENCODING 12500
SWIDTH 720 0
DWIDTH 12 0
BBX 12 12 0 -2
BITMAP
0000
3070
1C50
1870
1980
1F80
1800
1800
1800
1FC0
0FC0
0000
ENDCHAR
STARTCHAR 30D5
ENCODING 12501
SWIDTH 720 0
DWIDTH 12 0
BBX 12 12 0 -2
BITMAP
0000
0000
07C0
7D80
7180
0300
0300
0600
0400
0800
1000
0000
ENDCHAR
STARTCHAR 30D6
ENCODING 12502
SWIDTH 720 0
DWIDTH 12 0
BBX 12 12 0 -2
BITMAP
0020
0050
07F0
7DA0
7180
0300
0300
0600
0400
0800
1000
0000
ENDCHAR
STARTCHAR 30D7
ENCODING 12503
SWIDTH 720 0
DWIDTH 12 0
BBX 12 12 0 -2
BITMAP
0070
0050
07F0
7D80
7180
0300
0300
0600
0400
0800
1000
0000
ENDCHAR
STARTCHAR 30D8
ENCODING 12504
SWIDTH 720 0
DWIDTH 12 0
BBX 12 12 0 -2
BITMAP
0000
0000
0000
1C00
1200
3300
7180
20E0
0060
0000
0000
0000
ENDCHAR
STARTCHAR 30D9
ENCODING 12505
SWIDTH 720 0
DWIDTH 12 0
BBX 12 12 0 -2
BITMAP
0000
0080
0140
1DC0
1280
3300
7180
20E0
0060
0000
0000
0000
ENDCHAR
STARTCHAR 30DA
ENCODING 12506
SWIDTH 720 0
DWIDTH 12 0
BBX 12 12 0 -2
BITMAP
0000
01C0
0140
1DC0
1200
3300
7180
20E0
0060
0000
0000
0000
ENDCHAR
STARTCHAR 30DB
ENCODING 12507
SWIDTH 720 0
DWIDTH 12 0
BBX 12 12 0 -2
BITMAP
0000
0C00
0700
0600
47E0
7E60
3700
26C0
6660
7660
0E00
0400
ENDCHAR
STARTCHAR 30DC
ENCODING 12508
SWIDTH 720 0
DWIDTH 12 0
BBX 12 12 0 -2
BITMAP
0020
0C50
0770
0620
47E0
7E60
3700
26C0
6660
7660
0E00
0400
ENDCHAR
STARTCHAR 30DD
ENCODING 12509
SWIDTH 720 0
DWIDTH 12 0
BBX 12 12 0 -2
BITMAP
0070
0C50
0770
0600
47E0
7E60
3700
26C0
6660
7660
0E00
0400
ENDCHAR
STARTCHAR 30DE
ENCODING 12510
SWIDTH 720 0
DWIDTH 12 0
BBX 12 12 0 -2
BITMAP
0000
0000
0000
47C0
7DC0
7100
0E00
0600
0300
0300
0000
0000
ENDCHAR
STARTCHAR 30DF
ENCODING 12511
SWIDTH 720 0
DWIDTH 12 0
BBX 12 12 0 -2
BITMAP
0000
1E00
0380
0180
1C00
0700
0300
3C00
0700
0380
0180
0000
ENDCHAR
STARTCHAR 30E0
ENCODING 12512
SWIDTH 720 0
DWIDTH 12 0
BBX 12 12 0 -2
BITMAP
0000
0C00
0600
0600
0C00
0D00
0880
08C0
13C0
7C60
7060
0000
ENDCHAR
STARTCHAR 30E1
ENCODING 12513
SWIDTH 720 0
DWIDTH 12 0
BBX 12 12 0 -2
BITMAP
0000
0180
01C0
0180
1B00
0700
0600
0D80
08C0
10C0
6000
0000
ENDCHAR
STARTCHAR 30E2
ENCODING 12514
SWIDTH 720 0
DWIDTH 12 0
BBX 12 12 0 -2
BITMAP
0000
0000
0780
3D80
3C00
0FE0
7E60
6C00
0C00
0FC0
07C0
0000
ENDCHAR
STARTCHAR 30E3
ENCODING 12515
SWIDTH 720 0
DWIDTH 12 0
BBX 12 12 0 -2
BITMAP
0000
0000
0000
0000
0000
1800
0BC0
0E80
3D00
2600
0200
0300
ENDCHAR
STARTCHAR 30E4
ENCODING 12516
SWIDTH 720 0
DWIDTH 12 0
BBX 12 12 0 -2
BITMAP
0000
3000
1800
1BC0
0EE0
1C80
F500
6600
0200
0300
0180
0180
ENDCHAR
STARTCHAR 30E5
ENCODING 12517
SWIDTH 720 0
DWIDTH 12 0
BBX 12 12 0 -2
BITMAP
0000
0000
0000
0000
0000
0300
1D00
0A00
0280
3FC0
1000
0000
ENDCHAR
STARTCHAR 30E6
ENCODING 12518
SWIDTH 720 0
DWIDTH 12 0
BBX 12 12 0 -2
BITMAP
0000
0000
0000
0780
3B00
3300
0200
06C0
7FE0
3000
0000
0000
ENDCHAR
STARTCHAR 30E7
ENCODING 12519
SWIDTH 720 0
DWIDTH 12 0
BBX 12 12 0 -2
BITMAP
0000
0000
0000
0000
0000
0380
1D80
0380
1D00
0300
1700
1B00
ENDCHAR
STARTCHAR 30E8
ENCODING 12520
SWIDTH 720 0
DWIDTH 12 0
BBX 12 12 0 -2
BITMAP
0000
0000
03C0
3CC0
30C0
0780
1D80
0180
3780
3980
0000
0000
ENDCHAR
STARTCHAR 30E9
ENCODING 12521
SWIDTH 720 0
DWIDTH 12 0
BBX 12 12 0 -2
BITMAP
0000
0380
1F80
1800
07C0
3D80
3180
0300
0300
0600
0400
0800
ENDCHAR
STARTCHAR 30EA
ENCODING 12522
SWIDTH 720 0
DWIDTH 12 0
BBX 12 12 0 -2
BITMAP
0300
31C0
1D80
1980
1980
1980
1980
1980
0100
0300
0200
0C00
ENDCHAR
STARTCHAR 30EB
ENCODING 12523
SWIDTH 720 0
DWIDTH 12 0
BBX 12 12 0 -2
BITMAP
0000
0600
3380
1B00
1B00
1B10
1320
3340
2380
4300
8600
0000
ENDCHAR
STARTCHAR 30EC
ENCODING 12524
SWIDTH 720 0
DWIDTH 12 0
BBX 12 12 0 -2
BITMAP
0000
3000
1C00
1800
1800
1820
1840
1980
1F00
1C00
1000
0000
ENDCHAR
STARTCHAR 30ED
ENCODING 12525
SWIDTH 720 0
DWIDTH 12 0
BBX 12 12 0 -2
BITMAP
0000
0000
6780
3980
3180
3300
3300
3300
3F80
3000
0000
0000
ENDCHAR
STARTCHAR 30EE
ENCODING 12526
SWIDTH 720 0
DWIDTH 12 0
BBX 12 12 0 -2
BITMAP
0000
0000
0000
0000
0000
13C0
1D80
1980
1900
0300
0200
0400
ENDCHAR
STARTCHAR 30EF
ENCODING 12527
SWIDTH 720 0
DWIDTH 12 0
BBX 12 12 0 -2
BITMAP
0000
0000
6780
3CC0
31C0
3180
3180
0300
0300
0200
0400
1800
ENDCHAR
STARTCHAR 30F0
ENCODING 12528
SWIDTH 720 0
DWIDTH 12 0
BBX 12 12 0 -2
BITMAP
0600
0380
0300
03C0
3FC0
1B00
1BC0
7FE0
3300
0300
0300
0300
ENDCHAR
STARTCHAR 30F1
ENCODING 12529
SWIDTH 720 0
DWIDTH 12 0
BBX 12 12 0 -2
BITMAP
0000
0000
0380
3DC0
3300
0E00
0600
0600
06C0
7FE0
3000
0000
ENDCHAR
STARTCHAR 30F2
ENCODING 12530
SWIDTH 720 0
DWIDTH 12 0
BBX 12 12 0 -2
BITMAP
0000
0000
0380
3EC0
38C0
0780
3D80
3300
0300
0600
0400
1800
ENDCHAR
STARTCHAR 30F3
ENCODING 12531
SWIDTH 720 0
DWIDTH 12 0
BBX 12 12 0 -2
BITMAP
0000
0000
4000
3800
1820
0040
0080
0300
4E00
3C00
3000
0000
ENDCHAR
STARTCHAR 30F4
ENCODING 12532
SWIDTH 720 0
DWIDTH 12 0
BBX 12 12 0 -2
BITMAP
1820
0E50
0CF0
6FA0
3980
3180
3180
3300
0300
0600
0400
0800
ENDCHAR
STARTCHAR 30F5
ENCODING 12533
SWIDTH 720 0
DWIDTH 12 0
BBX 12 12 0 -2
BITMAP
0000
0000
0000
0000
0000
0C00
2F80
3D80
0D80
1980
1700
2600
ENDCHAR
STARTCHAR 30F6
ENCODING 12534
SWIDTH 720 0
DWIDTH 12 0
BBX 12 12 0 -2
BITMAP
0000
0000
0000
0000
0C00
0D80
1FC0
1B00
2300
0600
0400
0800
ENDCHAR
STARTCHAR 30FB
ENCODING 12539
SWIDTH 720 0
DWIDTH 12 0
BBX 12 12 0 -2
BITMAP
0000
0000
0000
0000
0000
0600
0600
0000
0000
0000
0000
0000
ENDCHAR
STARTCHAR 30FC
ENCODING 12540
SWIDTH 720 0
DWIDTH 12 0
BBX 12 12 0 -2
BITMAP
0000
0000
0000
0000
8000
FFE0
7FF0
2000
0000
0000
0000
0000
ENDCHAR
STARTCHAR 30FD
ENCODING 12541
SWIDTH 720 0
DWIDTH 12 0
BBX 12 12 0 -2
BITMAP
0000
0000
0000
1000
0C00
0600
0300
0300
0000
0000
0000
0000
ENDCHAR
STARTCHAR 30FE
ENCODING 12542
SWIDTH 720 0
DWIDTH 12 0
BBX 12 12 0 -2
BITMAP
0000
0100
0280
21C0
1900
0C00
0600
0600
0000
0000
0000
0000
ENDCHAR
STARTCHAR 3231
ENCODING 12849
SWIDTH 720 0
DWIDTH 12 0
BBX 12 12 0 -2
BITMAP
7DC0
5520
5FA0
B1A0
BFE0
B920
D3A0
95E0
59A0
5140
2080
0000
ENDCHAR
STARTCHAR 3232
ENCODING 12850
SWIDTH 720 0
DWIDTH 12 0
BBX 12 12 0 -2
BITMAP
4C40
4920
7FA0
8920
9F20
A920
CF20
8F20
4920
4A40
2080
0000
ENDCHAR
STARTCHAR 3239
ENCODING 12857
SWIDTH 720 0
DWIDTH 12 0
BBX 12 12 0 -2
BITMAP
6B40
4B20
4BA0
9FE0
B220
D220
9120
9120
51A0
51C0
2080
0000
ENDCHAR
STARTCHAR 32A4
ENCODING 12964
SWIDTH 720 0
DWIDTH 12 0
BBX 12 12 0 -2
BITMAP
3F80
4C40
4820
8920
8F20
8820
8820
8920
7FA0
4040
3180
0F00
ENDCHAR
STARTCHAR 32A5
ENCODING 12965
SWIDTH 720 0
DWIDTH 12 0
BBX 12 12 0 -2
BITMAP
3F80
4C40
4820
BFA0
A920
A920
BF20
A920
4820
4840
3180
0F00
ENDCHAR
STARTCHAR 32A6
ENCODING 12966
SWIDTH 720 0
DWIDTH 12 0
BBX 12 12 0 -2
BITMAP
3F80
4040
4120
9EA0
8820
8E20
8920
8820
4820
4840
3180
0F00
ENDCHAR
STARTCHAR 32A7
ENCODING 12967
SWIDTH 720 0
DWIDTH 12 0
BBX 12 12 0 -2
BITMAP
3F80
4C40
4820
FFA0
8820
8920
96A0
A220
4320
5CC0
3180
0F00
ENDCHAR
STARTCHAR 32A8
ENCODING 12968
SWIDTH 720 0
DWIDTH 12 0
BBX 12 12 0 -2
BITMAP
3F80
4C40
4820
FFA0
8820
8920
BF20
C920
4920
4F40
3180
0F00
ENDCHAR
STARTCHAR 3303
ENCODING 13059
SWIDTH 720 0
DWIDTH 12 0
BBX 12 12 0 -2
BITMAP
BC00
C800
2800
33E0
2200
4000
5C00
0C00
0C80
1500
1600
2400
ENDCHAR
STARTCHAR 330D
ENCODING 13069
SWIDTH 720 0
DWIDTH 12 0
BBX 12 12 0 -2
BITMAP
2320
39E0
E920
4920
4920
79E0
0800
4800
4BE0
4800
1000
6000
ENDCHAR
STARTCHAR 3314
ENCODING 13076
SWIDTH 720 0
DWIDTH 12 0
BBX 12 12 0 -2
BITMAP
2000
2000
3800
E000
2000
3B60
D1A0
1120
1120
01E0
0120
0000
ENDCHAR
STARTCHAR 3318
ENCODING 13080
SWIDTH 720 0
DWIDTH 12 0
BBX 12 12 0 -2
BITMAP
6AE0
7B00
4CE0
9340
1040
2080
C500
0400
0800
0F00
3980
1080
ENDCHAR
STARTCHAR 3322
ENCODING 13090
SWIDTH 720 0
DWIDTH 12 0
BBX 12 12 0 -2
BITMAP
4100
7D00
C820
42C0
4100
3D00
1E00
0400
0FC0
3400
0800
1800
ENDCHAR
STARTCHAR 3323
ENCODING 13091
SWIDTH 720 0
DWIDTH 12 0
BBX 12 12 0 -2
BITMAP
4100
7D00
C820
42C0
4100
3D00
0800
0800
0E00
0900
0800
0800
ENDCHAR
STARTCHAR 3326
ENCODING 13094
SWIDTH 720 0
DWIDTH 12 0
BBX 12 12 0 -2
BITMAP
4A00
4A00
4800
7800
4800
4100
4300
4300
0320
0540
0980
0900
ENDCHAR
STARTCHAR 3327
ENCODING 13095
SWIDTH 720 0
DWIDTH 12 0
BBX 12 12 0 -2
BITMAP
2000
2000
2000
2800
2A00
2100
2020
2020
0440
0380
0200
0000
ENDCHAR
STARTCHAR 332B
ENCODING 13099
SWIDTH 720 0
DWIDTH 12 0
BBX 12 12 0 -2
BITMAP
5E00
4E00
4800
4BE0
8800
0800
C880
7680
D1E0
5680
7C80
0000
ENDCHAR
STARTCHAR 3336
ENCODING 13110
SWIDTH 720 0
DWIDTH 12 0
BBX 12 12 0 -2
BITMAP
2120
31E0
C940
4C80
0500
0100
50C0
7940
5140
2D60
4160
4240
ENDCHAR
STARTCHAR 333B
ENCODING 13115
SWIDTH 720 0
DWIDTH 12 0
BBX 12 12 0 -2
BITMAP
0E00
3E00
2800
49E0
4C00
0400
0D40
1080
0880
1200
0C00
0800
ENDCHAR
STARTCHAR 3349
ENCODING 13129
SWIDTH 720 0
DWIDTH 12 0
BBX 12 12 0 -2
BITMAP
4000
3000
1800
4020
2120
1120
C120
6120
1020
0040
0040
0180
ENDCHAR
STARTCHAR 334A
ENCODING 13130
SWIDTH 720 0
DWIDTH 12 0
BBX 12 12 0 -2
BITMAP
2940
0140
7140
0040
6080
1880
01C0
5940
6D40
5F60
5960
9240
ENDCHAR
STARTCHAR 334D
ENCODING 13133
SWIDTH 720 0
DWIDTH 12 0
BBX 12 12 0 -2
BITMAP
0800
5000
6400
53E0
5800
8180
4380
4180
71A0
4AC0
4480
4800
ENDCHAR
STARTCHAR 3351
ENCODING 13137
SWIDTH 720 0
DWIDTH 12 0
BBX 12 12 0 -2
BITMAP
4800
4800
4920
4B40
1240
1080
2100
2180
3380
29A0
21C0
2680
ENDCHAR
STARTCHAR 3357
ENCODING 13143
SWIDTH 720 0
DWIDTH 12 0
BBX 12 12 0 -2
BITMAP
5C00
6400
4520
09A0
0940
1080
0900
0800
0E00
0900
0800
0800
ENDCHAR
STARTCHAR 337B
ENCODING 13179
SWIDTH 720 0
DWIDTH 12 0
BBX 12 12 0 -2
BITMAP
0000
0860
7A60
6BC0
6B60
2BE0
F760
2560
24A0
2120
0000
0000
ENDCHAR
STARTCHAR 337C
ENCODING 13180
SWIDTH 720 0
DWIDTH 12 0
BBX 12 12 0 -2
BITMAP
0800
7D00
9980
DF60
EFE0
C960
DBE0
DD60
D960
1900
0000
0000
ENDCHAR
STARTCHAR 337D
ENCODING 13181
SWIDTH 720 0
DWIDTH 12 0
BBX 12 12 0 -2
BITMAP
3040
27E0
2900
F300
2340
23E0
5300
5300
4B20
8CC0
0000
0000
ENDCHAR
STARTCHAR 337E
ENCODING 13182
SWIDTH 720 0
DWIDTH 12 0
BBX 12 12 0 -2
BITMAP
1A60
D940
D940
DBA0
D9E0
D9A0
D9E0
DBA0
19A0
39E0
49A0
0000
ENDCHAR
STARTCHAR 338E
ENCODING 13198
SWIDTH 720 0
DWIDTH 12 0
BBX 12 12 0 -2
BITMAP
0000
0000
0000
59A0
7940
5940
5980
5900
59E0
2520
01E0
0000
ENDCHAR
STARTCHAR 338F
ENCODING 13199
SWIDTH 720 0
DWIDTH 12 0
BBX 12 12 0 -2
BITMAP
4000
4000
4000
4DA0
4940
4940
7180
4900
49E0
2520
01E0
0000
ENDCHAR
STARTCHAR 339C
ENCODING 13212
SWIDTH 720 0
DWIDTH 12 0
BBX 12 12 0 -2
BITMAP
0000
0000
0000
5BC0
79A0
59A0
59A0
59A0
7FE0
0000
0000
0000
ENDCHAR
STARTCHAR 339D
ENCODING 13213
SWIDTH 720 0
DWIDTH 12 0
BBX 12 12 0 -2
BITMAP
0000
0000
0000
3BC0
09A0
09A0
01A0
09A0
3BE0
0000
0000
0000
ENDCHAR
STARTCHAR 339E
ENCODING 13214
SWIDTH 720 0
DWIDTH 12 0
BBX 12 12 0 -2
BITMAP
4000
4000
4000
5BC0
49A0
51A0
71A0
49A0
6BE0
0000
0000
0000
ENDCHAR
STARTCHAR 33A1
ENCODING 13217
SWIDTH 720 0
DWIDTH 12 0
BBX 12 12 0 -2
BITMAP
00C0
0120
0020
3F00
29E0
2900
2900
2900
3F00
0000
0000
0000
ENDCHAR
STARTCHAR 33C4
ENCODING 13252
SWIDTH 720 0
DWIDTH 12 0
BBX 12 12 0 -2
BITMAP
0000
0000
0000
39A0
0960
0920
0100
0920
39E0
0000
0000
0000
ENDCHAR
STARTCHAR 33CD
ENCODING 13261
SWIDTH 720 0
DWIDTH 12 0
BBX 12 12 0 -2
BITMAP
0000
DFE0
4A40
5280
6300
4300
5280
5280
4A40
DFE0
0820
0000
ENDCHAR
STARTCHAR 4E00
ENCODING 19968
SWIDTH 720 0
DWIDTH 12 0
BBX 12 12 0 -2
BITMAP
0000
0000
0000
0040
00E0
FFF0
0000
0000
0000
0000
0000
0000
ENDCHAR
STARTCHAR 4E01
ENCODING 19969
SWIDTH 720 0
DWIDTH 12 0
BBX 12 12 0 -2
BITMAP
0060
FFF0
0600
0600
0600
0600
0600
0600
0600
0600
1E00
0C00
ENDCHAR
STARTCHAR 4E03
ENCODING 19971
SWIDTH 720 0
DWIDTH 12 0
BBX 12 12 0 -2
BITMAP
1C00
1800
1800
1860
19F0
1F00
F800
1800
1840
1840
1FE0
0FE0
ENDCHAR
STARTCHAR 4E07
ENCODING 19975
SWIDTH 720 0
DWIDTH 12 0
BBX 12 12 0 -2
BITMAP
0060
FFF0
1800
18C0
1FE0
18C0
18C0
18C0
10C0
3180
2780
C300
ENDCHAR
STARTCHAR 4E08
ENCODING 19976
SWIDTH 720 0
DWIDTH 12 0
BBX 12 12 0 -2
BITMAP
0700
0600
0660
FFF0
0600
1600
1600
0E00
0600
0DF0
38E0
C020
ENDCHAR
STARTCHAR 4E09
ENCODING 19977
SWIDTH 720 0
DWIDTH 12 0
BBX 12 12 0 -2
BITMAP
00C0
7FE0
0000
0000
0180
3FC0
0000
0000
0000
0060
FFF0
0000
ENDCHAR
STARTCHAR 4E0A
ENCODING 19978
SWIDTH 720 0
DWIDTH 12 0
BBX 12 12 0 -2
BITMAP
0700
0600
0600
0640
07E0
0600
0600
0600
0600
0660
FFF0
0000
ENDCHAR
STARTCHAR 4E0B
ENCODING 19979
SWIDTH 720 0
DWIDTH 12 0
BBX 12 12 0 -2
BITMAP
0060
FFF0
0600
0600
07C0
0660
0660
0600
0600
0600
0600
0600
ENDCHAR
STARTCHAR 4E0D
ENCODING 19981
SWIDTH 720 0
DWIDTH 12 0
BBX 12 12 0 -2
BITMAP
0060
FFF0
0300
0600
0F80
1E60
3630
C630
0600
0600
0600
0600
ENDCHAR
STARTCHAR 4E0E
ENCODING 19982
SWIDTH 720 0
DWIDTH 12 0
BBX 12 12 0 -2
BITMAP
1C00
1980
1FC0
1800
3FC0
3180
01A0
FFF0
0300
0300
1E00
0C00
ENDCHAR
STARTCHAR 4E10
ENCODING 19984
SWIDTH 720 0
DWIDTH 12 0
BBX 12 12 0 -2
BITMAP
0060
FFF0
0600
37C0
3600
36C0
7FE0
60C0
00C0
0180
0780
0300
ENDCHAR
STARTCHAR 4E11
ENCODING 19985
SWIDTH 720 0
DWIDTH 12 0
BBX 12 12 0 -2
BITMAP
0180
7FC0
0D80
0D80
0DA0
FFF0
1980
1980
1980
19A0
FFF0
0000
ENDCHAR
STARTCHAR 4E14
ENCODING 19988
SWIDTH 720 0
DWIDTH 12 0
BBX 12 12 0 -2
BITMAP
1180
1FC0
1980
1980
1F80
1980
1980
1F80
1980
19A0
FFF0
0000
ENDCHAR
STARTCHAR 4E15
ENCODING 19989
SWIDTH 720 0
DWIDTH 12 0
BBX 12 12 0 -2
BITMAP
0060
FFF0
0600
0F00
1EE0
2670
C630
0600
0600
0060
FFF0
0000
ENDCHAR
STARTCHAR 4E16
ENCODING 19990
SWIDTH 720 0
DWIDTH 12 0
BBX 12 12 0 -2
BITMAP
3FE0
36C0
36C0
36C0
FFF0
36C0
36C0
37C0
36C0
3060
3FF0
3000
ENDCHAR
STARTCHAR 4E17
ENCODING 19991
SWIDTH 720 0
DWIDTH 12 0
BBX 12 12 0 -2
BITMAP
3FE0
36C0
36C0
36E0
FFF0
36C0
36C0
36C0
36C0
36C0
3FC0
30C0
ENDCHAR
STARTCHAR 4E18
ENCODING 19992
SWIDTH 720 0
DWIDTH 12 0
BBX 12 12 0 -2
BITMAP
0180
13C0
1E00
1800
18C0
1FE0
1980
1980
1980
19A0
FFF0
0000
ENDCHAR
STARTCHAR 4E19
ENCODING 19993
SWIDTH 720 0
DWIDTH 12 0
BBX 12 12 0 -2
BITMAP
0060
FFF0
0600
26C0
3FE0
36C0
37C0
35C0
38C0
30C0
33C0
3180
ENDCHAR
STARTCHAR 4E1E
ENCODING 19998
SWIDTH 720 0
DWIDTH 12 0
BBX 12 12 0 -2
BITMAP
0180
3FC0
0300
16C0
FFC0
3700
66F0
4660
9E20
0CC0
7FE0
0000
ENDCHAR
STARTCHAR 4E21
ENCODING 20001
SWIDTH 720 0
DWIDTH 12 0
BBX 12 12 0 -2
BITMAP
0060
FFF0
0600
4660
7FF0
6660
6660
76E0
7FE0
6060
61E0
60C0
ENDCHAR
STARTCHAR 4E26
ENCODING 20006
SWIDTH 720 0
DWIDTH 12 0
BBX 12 12 0 -2
BITMAP
2180
1980
1A40
7FE0
9B00
5B60
5B60
7B40
5B80
1B60
FFF0
0000
ENDCHAR
STARTCHAR 4E2A
ENCODING 20010
SWIDTH 720 0
DWIDTH 12 0
BBX 12 12 0 -2
BITMAP
0600
0600
0D00
1980
36F0
C660
0600
0600
0600
0600
0600
0600
ENDCHAR
STARTCHAR 4E2D
ENCODING 20013
SWIDTH 720 0
DWIDTH 12 0
BBX 12 12 0 -2
BITMAP
0700
0600
4660
7FF0
6660
6660
6660
7FE0
6660
0600
0600
0600
ENDCHAR
STARTCHAR 4E31
ENCODING 20017
SWIDTH 720 0
DWIDTH 12 0
BBX 12 12 0 -2
BITMAP
1F80
1B00
FB70
DB60
DB60
DB60
DB60
FBE0
DB60
3300
2300
C300
ENDCHAR
STARTCHAR 4E32
ENCODING 20018
SWIDTH 720 0
DWIDTH 12 0
BBX 12 12 0 -2
BITMAP
0700
26C0
3FE0
36C0
3FC0
4660
7FF0
6660
7FE0
6660
0600
0600
ENDCHAR
STARTCHAR 4E36
ENCODING 20022
SWIDTH 720 0
DWIDTH 12 0
BBX 12 12 0 -2
BITMAP
0000
0000
1000
0800
0400
0600
0300
0180
0180
0000
0000
0000
ENDCHAR
STARTCHAR 4E38
ENCODING 20024
SWIDTH 720 0
DWIDTH 12 0
BBX 12 12 0 -2
BITMAP
1C00
1800
1980
FFC0
1980
D980
3980
1D80
15A0
37A0
21F0
C0F0
ENDCHAR
STARTCHAR 4E39
ENCODING 20025
SWIDTH 720 0
DWIDTH 12 0
BBX 12 12 0 -2
BITMAP
20C0
3FE0
34C0
36C0
32C0
FFF0
30C0
30C0
30C0
30C0
23C0
C180
ENDCHAR
STARTCHAR 4E3B
ENCODING 20027
SWIDTH 720 0
DWIDTH 12 0
BBX 12 12 0 -2
BITMAP
0800
0700
06C0
7FE0
0600
0680
3FC0
0600
0600
0660
FFF0
0000
ENDCHAR
STARTCHAR 4E3C
ENCODING 20028
SWIDTH 720 0
DWIDTH 12 0
BBX 12 12 0 -2
BITMAP
1DC0
1980
19A0
7FE0
1D80
1F80
19A0
FFF0
1980
3180
2180
C180
ENDCHAR
STARTCHAR 4E3F
ENCODING 20031
SWIDTH 720 0
DWIDTH 12 0
BBX 12 12 0 -2
BITMAP
0700
0600
0600
0600
0600
0600
0600
0600
0400
0C00
1800
6000
ENDCHAR
STARTCHAR 4E42
ENCODING 20034
SWIDTH 720 0
DWIDTH 12 0
BBX 12 12 0 -2
BITMAP
21C0
2180
2180
1300
1300
0A00
0E00
0400
0B00
11F0
20E0
C020
ENDCHAR
STARTCHAR 4E43
ENCODING 20035
SWIDTH 720 0
DWIDTH 12 0
BBX 12 12 0 -2
BITMAP
0180
7FC0
1980
1980
1B60
1BF0
1B60
1860
1060
30C0
23C0
C180
ENDCHAR
STARTCHAR 4E45
ENCODING 20037
SWIDTH 720 0
DWIDTH 12 0
BBX 12 12 0 -2
BITMAP
0E00
0D80
0FC0
1980
1180
2300
4300
0680
0CC0
1870
3060
C020
ENDCHAR
STARTCHAR 4E4B
ENCODING 20043
SWIDTH 720 0
DWIDTH 12 0
BBX 12 12 0 -2
BITMAP
0700
06C0
7FE0
00C0
0180
0100
0200
2400
2800
7000
DFF0
4FF0
ENDCHAR
STARTCHAR 4E4D
ENCODING 20045
SWIDTH 720 0
DWIDTH 12 0
BBX 12 12 0 -2
BITMAP
1C00
1860
3FF0
2600
4680
87C0
0600
06C0
07E0
0600
0600
0600
ENDCHAR
STARTCHAR 4E4E
ENCODING 20046
SWIDTH 720 0
DWIDTH 12 0
BBX 12 12 0 -2
BITMAP
0180
0FC0
7EC0
3680
1760
FFF0
0600
0600
0600
0600
1E00
0C00
ENDCHAR
STARTCHAR 4E4F
ENCODING 20047
SWIDTH 720 0
DWIDTH 12 0
BBX 12 12 0 -2
BITMAP
0180
07C0
7E00
0680
FFC0
0180
0300
0200
2400
6800
DFF0
4FF0
ENDCHAR
STARTCHAR 4E55
ENCODING 20053
SWIDTH 720 0
DWIDTH 12 0
BBX 12 12 0 -2
BITMAP
20E0
3FC0
3320
3FF0
3320
3FF0
3300
3FE0
7B60
5B60
9BE0
0300
ENDCHAR
STARTCHAR 4E56
ENCODING 20054
SWIDTH 720 0
DWIDTH 12 0
BBX 12 12 0 -2
BITMAP
01C0
7F80
0660
FFF0
0600
36D0
F6F0
36E0
36D0
F6F0
B670
0600
ENDCHAR
STARTCHAR 4E57
ENCODING 20055
SWIDTH 720 0
DWIDTH 12 0
BBX 12 12 0 -2
BITMAP
0380
3F00
06C0
7FE0
36C0
FFF0
36C0
7FE0
1F00
36F0
2660
C620
ENDCHAR
STARTCHAR 4E58
ENCODING 20056
SWIDTH 720 0
DWIDTH 12 0
BBX 12 12 0 -2
BITMAP
01C0
7F80
0660
FFF0
36D0
F6E0
36F0
FF70
9E80
36F0
2660
C620
ENDCHAR
STARTCHAR 4E59
ENCODING 20057
SWIDTH 720 0
DWIDTH 12 0
BBX 12 12 0 -2
BITMAP
0180
FFC0
0300
0600
0C00
1800
3000
2020
6020
4030
7FF0
3FE0
ENDCHAR
STARTCHAR 4E5D
ENCODING 20061
SWIDTH 720 0
DWIDTH 12 0
BBX 12 12 0 -2
BITMAP
1C00
1800
1980
FFC0
1980
1980
1980
1980
11A0
31A0
21F0
C0F0
ENDCHAR
STARTCHAR 4E5E
ENCODING 20062
SWIDTH 720 0
DWIDTH 12 0
BBX 12 12 0 -2
BITMAP
1C00
1860
3FF0
3000
6300
BF80
0600
0C00
1820
3020
3FF0
1FF0
ENDCHAR
STARTCHAR 4E5F
ENCODING 20063
SWIDTH 720 0
DWIDTH 12 0
BBX 12 12 0 -2
BITMAP
0700
3E00
36C0
37E0
3EC0
36C0
F7C0
36C0
3620
3020
3FF0
1FF0
ENDCHAR
STARTCHAR 4E62
ENCODING 20066
SWIDTH 720 0
DWIDTH 12 0
BBX 12 12 0 -2
BITMAP
39C0
3180
B780
B580
B580
B580
B580
B580
FDA0
85A0
01F0
00F0
ENDCHAR
STARTCHAR 4E71
ENCODING 20081
SWIDTH 720 0
DWIDTH 12 0
BBX 12 12 0 -2
BITMAP
0DC0
1F80
F980
1B80
FF80
1980
5980
7D80
6DA0
6DA0
7DF0
6CF0
ENDCHAR
STARTCHAR 4E73
ENCODING 20083
SWIDTH 720 0
DWIDTH 12 0
BBX 12 12 0 -2
BITMAP
0DC0
FF80
A580
5D80
6980
FF80
0D80
1F80
F9A0
D9A0
39F0
30F0
ENDCHAR
STARTCHAR 4E7E
ENCODING 20094
SWIDTH 720 0
DWIDTH 12 0
BBX 12 12 0 -2
BITMAP
3380
FF60
33F0
FA00
DCC0
FFE0
D980
FB00
3620
FE20
37F0
33F0
ENDCHAR
STARTCHAR 4E80
ENCODING 20096
SWIDTH 720 0
DWIDTH 12 0
BBX 12 12 0 -2
BITMAP
0F00
1A80
3FC0
D680
1F80
36E0
3FC0
36C0
3FE0
3620
07F0
03F0
ENDCHAR
STARTCHAR 4E82
ENCODING 20098
SWIDTH 720 0
DWIDTH 12 0
BBX 12 12 0 -2
BITMAP
0CE0
FEC0
54C0
FEC0
2CC0
FEC0
D6C0
FEC0
EED0
D6D0
EEF0
CE70
ENDCHAR
STARTCHAR 4E85
ENCODING 20101
SWIDTH 720 0
DWIDTH 12 0
BBX 12 12 0 -2
BITMAP
0700
0600
0600
0600
0600
0600
0600
0600
0600
0600
1E00
0C00
ENDCHAR
STARTCHAR 4E86
ENCODING 20102
SWIDTH 720 0
DWIDTH 12 0
BBX 12 12 0 -2
BITMAP
0060
FFF0
00C0
0580
0600
0600
0600
0600
0600
0600
1E00
0C00
ENDCHAR
STARTCHAR 4E88
ENCODING 20104
SWIDTH 720 0
DWIDTH 12 0
BBX 12 12 0 -2
BITMAP
0180
3FC0
0B00
0660
FFF0
0640
0680
0600
0600
0600
1E00
0C00
ENDCHAR
STARTCHAR 4E89
ENCODING 20105
SWIDTH 720 0
DWIDTH 12 0
BBX 12 12 0 -2
BITMAP
1B00
1F00
32C0
3FE0
46D0
FFF0
06C0
3FC0
06C0
0600
1E00
0C00
ENDCHAR
STARTCHAR 4E8A
ENCODING 20106
SWIDTH 720 0
DWIDTH 12 0
BBX 12 12 0 -2
BITMAP
0700
0660
FFF0
1680
3FE0
06C0
FFF0
06C0
3FC0
06C0
1E00
0C00
ENDCHAR
STARTCHAR 4E8B
ENCODING 20107
SWIDTH 720 0
DWIDTH 12 0
BBX 12 12 0 -2
BITMAP
0660
FFF0
36C0
3FC0
06C0
7FE0
0660
FFF0
0660
7FE0
0660
0E00
ENDCHAR
STARTCHAR 4E8C
ENCODING 20108
SWIDTH 720 0
DWIDTH 12 0
BBX 12 12 0 -2
BITMAP
0000
0180
3FC0
0000
0000
0000
0000
0000
0060
FFF0
0000
0000
ENDCHAR
STARTCHAR 4E8E
ENCODING 20110
SWIDTH 720 0
DWIDTH 12 0
BBX 12 12 0 -2
BITMAP
00C0
7FE0
0600
0600
0660
FFF0
0600
0600
0600
0600
1E00
0C00
ENDCHAR
STARTCHAR 4E91
ENCODING 20113
SWIDTH 720 0
DWIDTH 12 0
BBX 12 12 0 -2
BITMAP
0180
3FC0
0000
0060
FFF0
0C00
0C00
1900
1080
17C0
FC60
6060
ENDCHAR
STARTCHAR 4E92
ENCODING 20114
SWIDTH 720 0
DWIDTH 12 0
BBX 12 12 0 -2
BITMAP
00C0
7FE0
0C00
0D80
0FC0
1980
1980
1F80
1B00
0360
FFF0
0000
ENDCHAR
STARTCHAR 4E94
ENCODING 20116
SWIDTH 720 0
DWIDTH 12 0
BBX 12 12 0 -2
BITMAP
00C0
7FE0
0C00
0C00
1980
7FC0
1980
1980
3180
31A0
FFF0
0000
ENDCHAR
STARTCHAR 4E95
ENCODING 20117
SWIDTH 720 0
DWIDTH 12 0
BBX 12 12 0 -2
BITMAP
1DC0
1980
19A0
7FE0
1980
19A0
FFF0
1980
1980
3180
2180
C180
ENDCHAR
STARTCHAR 4E98
ENCODING 20120
SWIDTH 720 0
DWIDTH 12 0
BBX 12 12 0 -2
BITMAP
00C0
7FE0
0000
1FC0
1980
1F80
1980
1980
1F80
0060
FFF0
0000
ENDCHAR
STARTCHAR 4E99
ENCODING 20121
SWIDTH 720 0
DWIDTH 12 0
BBX 12 12 0 -2
BITMAP
00C0
7FE0
1880
1FC0
1980
1F80
3380
3F00
3700
0360
FFF0
0000
ENDCHAR
STARTCHAR 4E9B
ENCODING 20123
SWIDTH 720 0
DWIDTH 12 0
BBX 12 12 0 -2
BITMAP
1FA0
FB60
DFE0
DB20
DFF0
F9F0
C180
3FC0
0000
0060
FFF0
0000
ENDCHAR
STARTCHAR 4E9C
ENCODING 20124
SWIDTH 720 0
DWIDTH 12 0
BBX 12 12 0 -2
BITMAP
0060
FFF0
1B00
5B40
7FE0
5B40
5B40
7FC0
5B40
1B60
FFF0
0000
ENDCHAR
STARTCHAR 4E9E
ENCODING 20126
SWIDTH 720 0
DWIDTH 12 0
BBX 12 12 0 -2
BITMAP
00C0
7FE0
1B00
5B40
7BE0
6AC0
60C0
7BC0
5B40
1B60
FFF0
0000
ENDCHAR
STARTCHAR 4E9F
ENCODING 20127
SWIDTH 720 0
DWIDTH 12 0
BBX 12 12 0 -2
BITMAP
00C0
7FE0
0C00
0CC0
9FE0
F6C0
D780
F6C0
9F70
0C60
FFF0
0000
ENDCHAR
STARTCHAR 4EA0
ENCODING 20128
SWIDTH 720 0
DWIDTH 12 0
BBX 12 12 0 -2
BITMAP
0000
0000
0000
0700
0600
0660
FFF0
0000
0000
0000
0000
0000
ENDCHAR
STARTCHAR 4EA1
ENCODING 20129
SWIDTH 720 0
DWIDTH 12 0
BBX 12 12 0 -2
BITMAP
0700
0600
0660
FFF0
1800
1800
1800
1800
1800
1FE0
0FE0
0000
ENDCHAR
STARTCHAR 4EA2
ENCODING 20130
SWIDTH 720 0
DWIDTH 12 0
BBX 12 12 0 -2
BITMAP
0700
0660
FFF0
0000
1F80
1B00
1B00
1B00
1B20
3320
23F0
C1F0
ENDCHAR
STARTCHAR 4EA4
ENCODING 20132
SWIDTH 720 0
DWIDTH 12 0
BBX 12 12 0 -2
BITMAP
0700
0660
FFF0
1880
3160
29F0
CB00
0700
0600
0DF0
30E0
C020
ENDCHAR
STARTCHAR 4EA5
ENCODING 20133
SWIDTH 720 0
DWIDTH 12 0
BBX 12 12 0 -2
BITMAP
0700
0660
FFF0
0D00
3300
0EC0
0CC0
1980
6300
06C0
1860
6060
ENDCHAR
STARTCHAR 4EA6
ENCODING 20134
SWIDTH 720 0
DWIDTH 12 0
BBX 12 12 0 -2
BITMAP
0700
0660
FFF0
1980
59C0
79A0
59B0
59B0
9180
3180
2780
4300
ENDCHAR
STARTCHAR 4EA8
ENCODING 20136
SWIDTH 720 0
DWIDTH 12 0
BBX 12 12 0 -2
BITMAP
0620
FFF0
1980
1F80
0040
7FE0
04C0
0700
0600
0600
1E00
0C00
ENDCHAR
STARTCHAR 4EAB
ENCODING 20139
SWIDTH 720 0
DWIDTH 12 0
BBX 12 12 0 -2
BITMAP
0620
FFF0
1980
1F80
0080
3FC0
01A0
FFF0
0600
0600
1E00
0C00
ENDCHAR
STARTCHAR 4EAC
ENCODING 20140
SWIDTH 720 0
DWIDTH 12 0
BBX 12 12 0 -2
BITMAP
0620
FFF0
0000
3FC0
3180
3180
3F80
2680
7660
6630
9E30
0C00
ENDCHAR
STARTCHAR 4EAD
ENCODING 20141
SWIDTH 720 0
DWIDTH 12 0
BBX 12 12 0 -2
BITMAP
0640
7FE0
1980
1F80
4060
FFF0
C020
3FC0
0600
0600
1E00
0C00
ENDCHAR
STARTCHAR 4EAE
ENCODING 20142
SWIDTH 720 0
DWIDTH 12 0
BBX 12 12 0 -2
BITMAP
0620
FFF0
1980
1F80
4020
FFF0
C060
1B80
1B20
1B20
33F0
C1F0
ENDCHAR
STARTCHAR 4EB0
ENCODING 20144
SWIDTH 720 0
DWIDTH 12 0
BBX 12 12 0 -2
BITMAP
0700
0660
FFF0
1980
1F80
1980
1F80
3700
36C0
6670
9E30
0C00
ENDCHAR
STARTCHAR 4EB3
ENCODING 20147
SWIDTH 720 0
DWIDTH 12 0
BBX 12 12 0 -2
BITMAP
0700
06C0
7FE0
1980
7FF0
C1A0
FF00
0CC0
7FE0
0C20
0FF0
07F0
ENDCHAR
STARTCHAR 4EB6
ENCODING 20150
SWIDTH 720 0
DWIDTH 12 0
BBX 12 12 0 -2
BITMAP
0700
06C0
7FE0
36C0
3EC0
30C0
3FC0
1980
1F80
19A0
FFF0
0000
ENDCHAR
STARTCHAR 4EBA
ENCODING 20154
SWIDTH 720 0
DWIDTH 12 0
BBX 12 12 0 -2
BITMAP
0700
0600
0600
0600
0600
0700
0D00
0D80
0C80
18F0
3060
C020
ENDCHAR
STARTCHAR 4EC0
ENCODING 20160
SWIDTH 720 0
DWIDTH 12 0
BBX 12 12 0 -2
BITMAP
3B80
3300
3300
6360
7FF0
E300
6300
6300
6300
6300
6300
6300
ENDCHAR
STARTCHAR 4EC1
ENCODING 20161
SWIDTH 720 0
DWIDTH 12 0
BBX 12 12 0 -2
BITMAP
3800
30C0
37E0
6000
6000
E000
6000
6000
6000
6060
6FF0
6000
ENDCHAR
STARTCHAR 4EC2
ENCODING 20162
SWIDTH 720 0
DWIDTH 12 0
BBX 12 12 0 -2
BITMAP
3F00
3600
3660
7FF0
6660
6660
E660
6660
6460
6CC0
6BC0
7180
ENDCHAR
STARTCHAR 4EC4
ENCODING 20164
SWIDTH 720 0
DWIDTH 12 0
BBX 12 12 0 -2
BITMAP
20C0
3FE0
3000
3380
3300
3300
3300
2680
6680
4CF0
9860
6020
ENDCHAR
STARTCHAR 4EC6
ENCODING 20166
SWIDTH 720 0
DWIDTH 12 0
BBX 12 12 0 -2
BITMAP
1F80
1B00
1B00
3300
3380
7360
B330
3330
3300
3300
3300
3300
ENDCHAR
STARTCHAR 4EC7
ENCODING 20167
SWIDTH 720 0
DWIDTH 12 0
BBX 12 12 0 -2
BITMAP
3F00
3600
36C0
7FE0
66C0
66C0
E6C0
66C0
66C0
64D0
6CF0
7070
ENDCHAR
STARTCHAR 4ECA
ENCODING 20170
SWIDTH 720 0
DWIDTH 12 0
BBX 12 12 0 -2
BITMAP
0600
0600
0D00
1980
32F0
DF60
00A0
3FC0
0180
0300
0300
0600
ENDCHAR
STARTCHAR 4ECB
ENCODING 20171
SWIDTH 720 0
DWIDTH 12 0
BBX 12 12 0 -2
BITMAP
0600
0E00
0D00
19F0
30E0
DDA0
1980
1980
1980
3180
3180
C180
ENDCHAR
STARTCHAR 4ECD
ENCODING 20173
SWIDTH 720 0
DWIDTH 12 0
BBX 12 12 0 -2
BITMAP
3180
3FC0
3D80
2D80
6DA0
6DF0
ED60
6C60
6C60
68C0
6BC0
7180
ENDCHAR
STARTCHAR 4ECE
ENCODING 20174
SWIDTH 720 0
DWIDTH 12 0
BBX 12 12 0 -2
BITMAP
3B80
3300
3300
3300
3300
3300
3680
3E80
26C0
6C70
4860
B020
ENDCHAR
STARTCHAR 4ECF
ENCODING 20175
SWIDTH 720 0
DWIDTH 12 0
BBX 12 12 0 -2
BITMAP
3A00
3380
3300
6300
6300
E300
6280
6640
6460
65E0
7F30
6C30
ENDCHAR
STARTCHAR 4ED4
ENCODING 20180
SWIDTH 720 0
DWIDTH 12 0
BBX 12 12 0 -2
BITMAP
30C0
3FE0
32C0
6380
6360
FFF0
6300
6300
6300
6300
6F00
6600
ENDCHAR
STARTCHAR 4ED5
ENCODING 20181
SWIDTH 720 0
DWIDTH 12 0
BBX 12 12 0 -2
BITMAP
3B80
3300
3300
6360
7FF0
E300
6300
6300
6300
6340
6FE0
6000
ENDCHAR
STARTCHAR 4ED6
ENCODING 20182
SWIDTH 720 0
DWIDTH 12 0
BBX 12 12 0 -2
BITMAP
3180
3F00
2D60
6DF0
6F60
ED60
7D60
6DE0
6D60
6C10
6FF0
67F0
ENDCHAR
STARTCHAR 4ED7
ENCODING 20183
SWIDTH 720 0
DWIDTH 12 0
BBX 12 12 0 -2
BITMAP
3B80
3300
3360
7FF0
6B00
6B00
E700
6600
6700
65F0
68E0
7020
ENDCHAR
STARTCHAR 4ED8
ENCODING 20184
SWIDTH 720 0
DWIDTH 12 0
BBX 12 12 0 -2
BITMAP
38E0
30C0
30D0
7FF0
60C0
ECC0
66C0
66C0
60C0
60C0
63C0
6180
ENDCHAR
STARTCHAR 4ED9
ENCODING 20185
SWIDTH 720 0
DWIDTH 12 0
BBX 12 12 0 -2
BITMAP
3B80
3300
3300
6F70
6B60
EB60
6B60
6B60
6B60
6B60
6FE0
6860
ENDCHAR
STARTCHAR 4EDD
ENCODING 20189
SWIDTH 720 0
DWIDTH 12 0
BBX 12 12 0 -2
BITMAP
0600
0600
0D00
0980
10F0
2160
DFA0
0600
0600
0660
FFF0
0000
ENDCHAR
STARTCHAR 4EDE
ENCODING 20190
SWIDTH 720 0
DWIDTH 12 0
BBX 12 12 0 -2
BITMAP
3800
3060
3FF0
6660
7660
6E60
E760
6760
64E0
6CC0
6BC0
7180
ENDCHAR
STARTCHAR 4EDF
ENCODING 20191
SWIDTH 720 0
DWIDTH 12 0
BBX 12 12 0 -2
BITMAP
38C0
33E0
3F00
6300
6360
7FF0
E300
6300
6300
6300
6300
6300
ENDCHAR
STARTCHAR 4EE3
ENCODING 20195
SWIDTH 720 0
DWIDTH 12 0
BBX 12 12 0 -2
BITMAP
1D80
19E0
19A0
3FF0
3180
7180
B180
30C0
30D0
3060
3070
3030
ENDCHAR
STARTCHAR 4EE4
ENCODING 20196
SWIDTH 720 0
DWIDTH 12 0
BBX 12 12 0 -2
BITMAP
0400
0E00
0900
1280
3FF0
C060
3FC0
0CC0
0CC0
0FC0
0D80
0C00
ENDCHAR
STARTCHAR 4EE5
ENCODING 20197
SWIDTH 720 0
DWIDTH 12 0
BBX 12 12 0 -2
BITMAP
70E0
60C0
6CC0
66C0
66C0
60C0
60C0
62C0
7CC0
F1A0
C330
0C30
ENDCHAR
STARTCHAR 4EED
ENCODING 20205
SWIDTH 720 0
DWIDTH 12 0
BBX 12 12 0 -2
BITMAP
3800
3060
3FF0
6360
6B60
6B60
E660
67E0
66F0
64F0
6BC0
7180
ENDCHAR
STARTCHAR 4EEE
ENCODING 20206
SWIDTH 720 0
DWIDTH 12 0
BBX 12 12 0 -2
BITMAP
3460
3FF0
3600
36C0
67E0
66C0
E7C0
6580
6DC0
6B70
7260
6C20
ENDCHAR
STARTCHAR 4EF0
ENCODING 20208
SWIDTH 720 0
DWIDTH 12 0
BBX 12 12 0 -2
BITMAP
3A00
3760
3FF0
6B60
6B60
EB60
6B60
6B60
7FE0
7B60
6300
6300
ENDCHAR
STARTCHAR 4EF2
ENCODING 20210
SWIDTH 720 0
DWIDTH 12 0
BBX 12 12 0 -2
BITMAP
3B80
3300
3B60
6FF0
6B60
EB60
6B60
6FE0
6B60
6300
6300
6300
ENDCHAR
STARTCHAR 4EF6
ENCODING 20214
SWIDTH 720 0
DWIDTH 12 0
BBX 12 12 0 -2
BITMAP
3DC0
3780
35A0
6FE0
6980
F1A0
7FF0
6180
6180
6180
6180
6180
ENDCHAR
STARTCHAR 4EF7
ENCODING 20215
SWIDTH 720 0
DWIDTH 12 0
BBX 12 12 0 -2
BITMAP
3B00
3300
3680
64F0
6C60
76E0
E6C0
66C0
66C0
64C0
6CC0
70C0
ENDCHAR
STARTCHAR 4EFB
ENCODING 20219
SWIDTH 720 0
DWIDTH 12 0
BBX 12 12 0 -2
BITMAP
38C0
33E0
3F00
6300
6360
FFF0
6300
6300
6300
6340
6FE0
6000
ENDCHAR
STARTCHAR 4F01
ENCODING 20225
SWIDTH 720 0
DWIDTH 12 0
BBX 12 12 0 -2
BITMAP
0600
0E00
0980
1EF0
2660
F6A0
37C0
3600
3600
3660
FFF0
0000
ENDCHAR
STARTCHAR 4F09
ENCODING 20233
SWIDTH 720 0
DWIDTH 12 0
BBX 12 12 0 -2
BITMAP
3B80
3360
3FF0
6000
64C0
67E0
E6C0
66C0
66D0
64D0
6CF0
7070
ENDCHAR
STARTCHAR 4F0A
ENCODING 20234
SWIDTH 720 0
DWIDTH 12 0
BBX 12 12 0 -2
BITMAP
3060
3FF0
3360
3FF0
6360
6360
FFE0
6360
6300
6600
6400
7800
ENDCHAR
STARTCHAR 4F0D
ENCODING 20237
SWIDTH 720 0
DWIDTH 12 0
BBX 12 12 0 -2
BITMAP
30C0
3FE0
3300
6300
6340
FFE0
66C0
66C0
66C0
66C0
7FF0
6000
ENDCHAR
STARTCHAR 4F0E
ENCODING 20238
SWIDTH 720 0
DWIDTH 12 0
BBX 12 12 0 -2
BITMAP
39C0
31A0
3FF0
6180
6180
EFE0
64C0
64C0
6380
63F0
6660
7820
ENDCHAR
STARTCHAR 4F0F
ENCODING 20239
SWIDTH 720 0
DWIDTH 12 0
BBX 12 12 0 -2
BITMAP
3B80
3360
3360
7FF0
6300
E300
6680
6680
64C0
6470
6860
7020
ENDCHAR
STARTCHAR 4F10
ENCODING 20240
SWIDTH 720 0
DWIDTH 12 0
BBX 12 12 0 -2
BITMAP
3B80
3340
3360
63F0
7F00
E360
6160
61C0
61D0
6360
6C70
6030
ENDCHAR
STARTCHAR 4F11
ENCODING 20241
SWIDTH 720 0
DWIDTH 12 0
BBX 12 12 0 -2
BITMAP
3B80
3300
3360
7FF0
6380
6780
E740
6F70
6B60
7320
6300
6300
ENDCHAR
STARTCHAR 4F1A
ENCODING 20250
SWIDTH 720 0
DWIDTH 12 0
BBX 12 12 0 -2
BITMAP
0600
0E00
0D00
18C0
3FF0
C160
3FC0
0C00
1900
10C0
FFE0
7060
ENDCHAR
STARTCHAR 4F1C
ENCODING 20252
SWIDTH 720 0
DWIDTH 12 0
BBX 12 12 0 -2
BITMAP
3F00
36C0
3FE0
66C0
64F0
7870
E380
6360
7FF0
6300
6300
6300
ENDCHAR
STARTCHAR 4F1D
ENCODING 20253
SWIDTH 720 0
DWIDTH 12 0
BBX 12 12 0 -2
BITMAP
38C0
37E0
3000
6060
7FF0
E300
6300
6280
6640
64E0
7F30
6C30
ENDCHAR
STARTCHAR 4F2F
ENCODING 20271
SWIDTH 720 0
DWIDTH 12 0
BBX 12 12 0 -2
BITMAP
3B80
3300
3A60
6FF0
6C60
EC60
6FE0
6C60
6C60
6C60
6FE0
6C60
ENDCHAR
STARTCHAR 4F30
ENCODING 20272
SWIDTH 720 0
DWIDTH 12 0
BBX 12 12 0 -2
BITMAP
3B80
3300
3360
7FF0
6300
6300
EB40
6FE0
6CC0
6CC0
6FC0
6CC0
ENDCHAR
STARTCHAR 4F34
ENCODING 20276
SWIDTH 720 0
DWIDTH 12 0
BBX 12 12 0 -2
BITMAP
3380
3B60
3740
67A0
7FE0
E300
6360
7FF0
6300
6300
6300
6300
ENDCHAR
STARTCHAR 4F36
ENCODING 20278
SWIDTH 720 0
DWIDTH 12 0
BBX 12 12 0 -2
BITMAP
3B00
3300
3680
6470
6FE0
F020
6FF0
6660
6660
67E0
66C0
6600
ENDCHAR
STARTCHAR 4F38
ENCODING 20280
SWIDTH 720 0
DWIDTH 12 0
BBX 12 12 0 -2
BITMAP
3B80
3360
3FF0
6B60
6FE0
EB60
6B60
6FE0
6B60
6300
6300
6300
ENDCHAR
STARTCHAR 4F3A
ENCODING 20282
SWIDTH 720 0
DWIDTH 12 0
BBX 12 12 0 -2
BITMAP
3060
3FF0
3160
6F60
6060
EF60
6D60
6D60
6F60
6D60
61E0
60C0
ENDCHAR
STARTCHAR 4F3C
ENCODING 20284
SWIDTH 720 0
DWIDTH 12 0
BBX 12 12 0 -2
BITMAP
2E70
3C60
2E60
6D60
6DE0
ED60
6C60
6D60
6EC0
7CE0
69B0
6630
ENDCHAR
STARTCHAR 4F3D
ENCODING 20285
SWIDTH 720 0
DWIDTH 12 0
BBX 12 12 0 -2
BITMAP
3700
3600
36B0
7FF0
6AB0
6AB0
EAB0
6AB0
6AB0
6AB0
7EF0
6CB0
ENDCHAR
STARTCHAR 4F43
ENCODING 20291
SWIDTH 720 0
DWIDTH 12 0
BBX 12 12 0 -2
BITMAP
3060
3FF0
2D60
6D60
6D60
EFE0
6D60
6D60
6D60
6D60
6FE0
6C60
ENDCHAR
STARTCHAR 4F46
ENCODING 20294
SWIDTH 720 0
DWIDTH 12 0
BBX 12 12 0 -2
BITMAP
3CC0
37E0
36C0
66C0
67C0
E6C0
66C0
67C0
66C0
6060
7FF0
6000
ENDCHAR
STARTCHAR 4F47
ENCODING 20295
SWIDTH 720 0
DWIDTH 12 0
BBX 12 12 0 -2
BITMAP
39C0
35A0
37F0
6C60
6C40
7FF0
E180
6180
6180
6180
6780
6300
ENDCHAR
STARTCHAR 4F4D
ENCODING 20301
SWIDTH 720 0
DWIDTH 12 0
BBX 12 12 0 -2
BITMAP
3380
3300
3360
7FE0
6880
64C0
E6C0
6680
6780
6160
7FF0
6000
ENDCHAR
STARTCHAR 4F4E
ENCODING 20302
SWIDTH 720 0
DWIDTH 12 0
BBX 12 12 0 -2
BITMAP
30C0
39E0
2F80
6DA0
6FF0
ED80
6D80
6DC0
7ED0
7960
67F0
6030
ENDCHAR
STARTCHAR 4F4F
ENCODING 20303
SWIDTH 720 0
DWIDTH 12 0
BBX 12 12 0 -2
BITMAP
3A00
3380
3140
7FE0
6300
E340
6FE0
6300
6300
6320
7FF0
6000
ENDCHAR
STARTCHAR 4F50
ENCODING 20304
SWIDTH 720 0
DWIDTH 12 0
BBX 12 12 0 -2
BITMAP
3B80
3300
3360
7FF0
6600
E6C0
6FE0
6B00
7300
6360
7FF0
6000
ENDCHAR
STARTCHAR 4F51
ENCODING 20305
SWIDTH 720 0
DWIDTH 12 0
BBX 12 12 0 -2
BITMAP
3B80
3360
3FF0
6300
6600
E660
6FF0
7660
6660
6660
67E0
6660
ENDCHAR
STARTCHAR 4F53
ENCODING 20307
SWIDTH 720 0
DWIDTH 12 0
BBX 12 12 0 -2
BITMAP
3B80
3300
3360
7FF0
6700
E780
6FC0
6B70
7FE0
6320
6300
6300
ENDCHAR
STARTCHAR 4F55
ENCODING 20309
SWIDTH 720 0
DWIDTH 12 0
BBX 12 12 0 -2
BITMAP
3060
3FF0
3060
6B60
6F60
6B60
EB60
6F60
6B60
6060
61E0
60C0
ENDCHAR
STARTCHAR 4F57
ENCODING 20311
SWIDTH 720 0
DWIDTH 12 0
BBX 12 12 0 -2
BITMAP
3B80
3360
3FF0
6840
7F00
6660
E6E0
6780
6620
6620
67F0
63F0
ENDCHAR
STARTCHAR 4F59
ENCODING 20313
SWIDTH 720 0
DWIDTH 12 0
BBX 12 12 0 -2
BITMAP
0400
0E00
0900
10C0
3FF0
C620
7FE0
2600
36C0
6660
9E60
0C00
ENDCHAR
STARTCHAR 4F5A
ENCODING 20314
SWIDTH 720 0
DWIDTH 12 0
BBX 12 12 0 -2
BITMAP
3380
3F40
3FE0
6B00
7360
7FF0
E300
6380
6680
66F0
6460
7820
ENDCHAR
STARTCHAR 4F5B
ENCODING 20315
SWIDTH 720 0
DWIDTH 12 0
BBX 12 12 0 -2
BITMAP
2DC0
3DA0
3FF0
6DA0
6FE0
6D80
FFF0
6DA0
6DE0
6DA0
6980
7180
ENDCHAR
STARTCHAR 4F5C
ENCODING 20316
SWIDTH 720 0
DWIDTH 12 0
BBX 12 12 0 -2
BITMAP
3B80
3360
37F0
6700
6B40
F3E0
6300
6360
63F0
6300
6300
6300
ENDCHAR
STARTCHAR 4F5D
ENCODING 20317
SWIDTH 720 0
DWIDTH 12 0
BBX 12 12 0 -2
BITMAP
3700
3660
3FF0
6C60
7F60
6D60
ED60
6F60
6D60
60C0
63C0
6180
ENDCHAR
STARTCHAR 4F5E
ENCODING 20318
SWIDTH 720 0
DWIDTH 12 0
BBX 12 12 0 -2
BITMAP
38C0
37E0
3060
7FF0
6300
6360
FFF0
66C0
6D80
6380
66E0
7C60
ENDCHAR
STARTCHAR 4F69
ENCODING 20329
SWIDTH 720 0
DWIDTH 12 0
BBX 12 12 0 -2
BITMAP
3060
3FF0
3C60
6FE0
6D60
6D60
EFE0
6D60
6D70
6DE0
6D70
7130
ENDCHAR
STARTCHAR 4F6F
ENCODING 20335
SWIDTH 720 0
DWIDTH 12 0
BBX 12 12 0 -2
BITMAP
36C0
3280
3FE0
6300
6340
6FC0
E300
6360
7FF0
6300
6300
6300
ENDCHAR
STARTCHAR 4F70
ENCODING 20336
SWIDTH 720 0
DWIDTH 12 0
BBX 12 12 0 -2
BITMAP
3060
3FF0
3300
6A60
6FF0
6C60
EC60
6FE0
6C60
6C60
6FE0
6C60
ENDCHAR
STARTCHAR 4F73
ENCODING 20339
SWIDTH 720 0
DWIDTH 12 0
BBX 12 12 0 -2
BITMAP
3B80
3340
3FC0
6300
7FE0
6300
E340
6FE0
6300
6360
7FF0
6000
ENDCHAR
STARTCHAR 4F75
ENCODING 20341
SWIDTH 720 0
DWIDTH 12 0
BBX 12 12 0 -2
BITMAP
3EC0
32A0
3FF0
66C0
66D0
FFF0
66C0
66C0
66C0
64C0
68C0
70C0
ENDCHAR
STARTCHAR 4F76
ENCODING 20342
SWIDTH 720 0
DWIDTH 12 0
BBX 12 12 0 -2
BITMAP
3B80
3360
3FF0
6300
6340
6FE0
E000
6FE0
6CC0
6CC0
6FC0
6CC0
ENDCHAR
STARTCHAR 4F7B
ENCODING 20347
SWIDTH 720 0
DWIDTH 12 0
BBX 12 12 0 -2
BITMAP
3FE0
36C0
36D0
7EF0
6EE0
66C0
FEE0
76F0
66D0
64D0
6CF0
7070
ENDCHAR
STARTCHAR 4F7C
ENCODING 20348
SWIDTH 720 0
DWIDTH 12 0
BBX 12 12 0 -2
BITMAP
3B80
3360
3FF0
6680
6460
6CB0
F2C0
6380
6100
63F0
6660
7820
ENDCHAR
STARTCHAR 4F7F
ENCODING 20351
SWIDTH 720 0
DWIDTH 12 0
BBX 12 12 0 -2
BITMAP
3B80
3360
3FF0
6300
6FE0
EB60
6FE0
6B60
6700
67F0
6CE0
7020
ENDCHAR
STARTCHAR 4F83
ENCODING 20355
SWIDTH 720 0
DWIDTH 12 0
BBX 12 12 0 -2
BITMAP
3CC0
37E0
36C0
36C0
67C0
6000
EEE0
6AC0
6AC0
6AD0
6AF0
7070
ENDCHAR
STARTCHAR 4F86
ENCODING 20358
SWIDTH 720 0
DWIDTH 12 0
BBX 12 12 0 -2
BITMAP
0700
0660
FFF0
66C0
66C0
5EB0
4F30
9F00
1680
36F0
C660
0620
ENDCHAR
STARTCHAR 4F88
ENCODING 20360
SWIDTH 720 0
DWIDTH 12 0
BBX 12 12 0 -2
BITMAP
3B80
3340
37C0
7D80
6300
6760
FBF0
6260
6FC0
6180
6300
7C00
ENDCHAR
STARTCHAR 4F8B
ENCODING 20363
SWIDTH 720 0
DWIDTH 12 0
BBX 12 12 0 -2
BITMAP
3270
3FE0
6D60
6D60
6F60
EB60
6F60
7760
6660
6460
69E0
70C0
ENDCHAR
STARTCHAR 4F8D
ENCODING 20365
SWIDTH 720 0
DWIDTH 12 0
BBX 12 12 0 -2
BITMAP
39C0
3180
37E0
61A0
7FF0
E0C0
6FF0
64C0
66C0
62C0
61C0
6180
ENDCHAR
STARTCHAR 4F8F
ENCODING 20367
SWIDTH 720 0
DWIDTH 12 0
BBX 12 12 0 -2
BITMAP
3380
3B40
3FE0
6B00
7360
7FF0
E780
6F40
6B70
6B60
7320
6300
ENDCHAR
STARTCHAR 4F91
ENCODING 20369
SWIDTH 720 0
DWIDTH 12 0
BBX 12 12 0 -2
BITMAP
3B80
3360
3FF0
6600
67F0
6E60
EFE0
7660
67E0
6660
66E0
66C0
ENDCHAR
STARTCHAR 4F96
ENCODING 20374
SWIDTH 720 0
DWIDTH 12 0
BBX 12 12 0 -2
BITMAP
0600
0E00
0900
1FC0
2070
FFE0
6AC0
7FC0
6AC0
6AC0
6BC0
6180
ENDCHAR
STARTCHAR 4F98
ENCODING 20376
SWIDTH 720 0
DWIDTH 12 0
BBX 12 12 0 -2
BITMAP
3B80
3360
3FF0
6C20
79C0
6F80
E360
7FF0
6300
6320
63F0
61F0
ENDCHAR
STARTCHAR 4F9B
ENCODING 20379
SWIDTH 720 0
DWIDTH 12 0
BBX 12 12 0 -2
BITMAP
3FE0
36C0
36C0
7FE0
66C0
66C0
E6D0
7FF0
6480
6E60
6C30
7030
ENDCHAR
STARTCHAR 4F9D
ENCODING 20381
SWIDTH 720 0
DWIDTH 12 0
BBX 12 12 0 -2
BITMAP
3380
3360
3FF0
6300
6660
E760
6EC0
7680
66C0
6770
6E60
6C20
ENDCHAR
STARTCHAR 4FA0
ENCODING 20384
SWIDTH 720 0
DWIDTH 12 0
BBX 12 12 0 -2
BITMAP
3B80
3340
3FE0
6B60
6F40
6BA0
FFF0
6300
6680
66F0
6C60
7020
ENDCHAR
STARTCHAR 4FA1
ENCODING 20385
SWIDTH 720 0
DWIDTH 12 0
BBX 12 12 0 -2
BITMAP
3060
3FF0
36C0
66C0
6FF0
6D60
ED60
6D60
6D60
6D60
6FE0
6C60
ENDCHAR
STARTCHAR 4FAB
ENCODING 20395
SWIDTH 720 0
DWIDTH 12 0
BBX 12 12 0 -2
BITMAP
3B80
3360
3FF0
6600
67E0
63E0
E320
7FF0
66C0
6E80
63C0
7C60
ENDCHAR
STARTCHAR 4FAD
ENCODING 20397
SWIDTH 720 0
DWIDTH 12 0
BBX 12 12 0 -2
BITMAP
3CC0
37E0
36C0
66C0
67C0
E680
64C0
6F70
69E0
7620
6180
60C0
ENDCHAR
STARTCHAR 4FAE
ENCODING 20398
SWIDTH 720 0
DWIDTH 12 0
BBX 12 12 0 -2
BITMAP
3B80
3360
37F0
6C40
77E0
E6D0
7FF0
66C0
66D0
6FF0
6CC0
6380
ENDCHAR
STARTCHAR 4FAF
ENCODING 20399
SWIDTH 720 0
DWIDTH 12 0
BBX 12 12 0 -2
BITMAP
38C0
37E0
30C0
7FF0
6640
6FE0
EB20
7FF0
6300
66F0
6460
7820
ENDCHAR
STARTCHAR 4FB5
ENCODING 20405
SWIDTH 720 0
DWIDTH 12 0
BBX 12 12 0 -2
BITMAP
38C0
37E0
30C0
67C0
68E0
EFF0
7860
6FC0
64C0
6380
66F0
7860
ENDCHAR
STARTCHAR 4FB6
ENCODING 20406
SWIDTH 720 0
DWIDTH 12 0
BBX 12 12 0 -2
BITMAP
3CC0
37E0
36C0
66C0
67C0
E300
6A60
6FF0
6C60
6C60
6FE0
6C60
ENDCHAR
STARTCHAR 4FBF
ENCODING 20415
SWIDTH 720 0
DWIDTH 12 0
BBX 12 12 0 -2
BITMAP
3060
3FF0
3300
6FE0
6B60
EFE0
6B60
6FE0
6700
63F0
66E0
7820
ENDCHAR
STARTCHAR 4FC2
ENCODING 20418
SWIDTH 720 0
DWIDTH 12 0
BBX 12 12 0 -2
BITMAP
38C0
33E0
3EC0
6580
6340
7FF0
FB30
6380
6F60
6B30
7330
6300
ENDCHAR
STARTCHAR 4FC3
ENCODING 20419
SWIDTH 720 0
DWIDTH 12 0
BBX 12 12 0 -2
BITMAP
3C60
37F0
3660
6660
67E0
E180
6FA0
6DE0
6D80
6D80
6BF0
71F0
ENDCHAR
STARTCHAR 4FC4
ENCODING 20420
SWIDTH 720 0
DWIDTH 12 0
BBX 12 12 0 -2
BITMAP
35C0
37E0
3DB0
6DA0
7FF0
EDA0
7FB0
7DB0
6CE0
6CD0
7D70
6A30
ENDCHAR
STARTCHAR 4FCA
ENCODING 20426
SWIDTH 720 0
DWIDTH 12 0
BBX 12 12 0 -2
BITMAP
3B00
3640
3FE0
65A0
6DF0
EAF0
7680
67C0
7D80
63F0
66E0
7820
ENDCHAR
STARTCHAR 4FCE
ENCODING 20430
SWIDTH 720 0
DWIDTH 12 0
BBX 12 12 0 -2
BITMAP
74C0
67E0
76C0
5EC0
9FC0
66C0
66C0
77C0
5EC0
96C0
3FF0
0000
ENDCHAR
STARTCHAR 4FD0
ENCODING 20432
SWIDTH 720 0
DWIDTH 12 0
BBX 12 12 0 -2
BITMAP
3B70
3760
3D60
6D60
7F60
6D60
EF60
7D60
6D60
6C60
6DE0
6CC0
ENDCHAR
STARTCHAR 4FD1
ENCODING 20433
SWIDTH 720 0
DWIDTH 12 0
BBX 12 12 0 -2
BITMAP
38C0
3FE0
32C0
6960
6FF0
6D60
EFE0
6D60
6FE0
6D60
6D60
6D60
ENDCHAR
STARTCHAR 4FD4
ENCODING 20436
SWIDTH 720 0
DWIDTH 12 0
BBX 12 12 0 -2
BITMAP
3CC0
37E0
36C0
67C0
66C0
67C0
E6C0
67C0
65A0
6DA0
6DF0
70F0
ENDCHAR
STARTCHAR 4FD7
ENCODING 20439
SWIDTH 720 0
DWIDTH 12 0
BBX 12 12 0 -2
BITMAP
3680
3640
3460
6B30
7300
E6C0
6470
6FE0
76C0
66C0
67C0
66C0
ENDCHAR
STARTCHAR 4FD8
ENCODING 20440
SWIDTH 720 0
DWIDTH 12 0
BBX 12 12 0 -2
BITMAP
30C0
3FE0
3540
6280
7FE0
6180
E360
7FF0
6300
6300
6F00
6600
ENDCHAR
STARTCHAR 4FDA
ENCODING 20442
SWIDTH 720 0
DWIDTH 12 0
BBX 12 12 0 -2
BITMAP
3840
3FE0
3B40
6FC0
6B40
6FC0
EB40
6340
6FE0
6320
7FF0
6000
ENDCHAR
STARTCHAR 4FDB
ENCODING 20443
SWIDTH 720 0
DWIDTH 12 0
BBX 12 12 0 -2
BITMAP
3B00
33E0
36C0
6FE0
7D60
6D60
EFE0
6580
67A0
6DA0
69F0
70F0
ENDCHAR
STARTCHAR 4FDD
ENCODING 20445
SWIDTH 720 0
DWIDTH 12 0
BBX 12 12 0 -2
BITMAP
3CC0
37E0
36C0
66C0
67C0
E360
7FF0
6780
6FC0
6B70
7360
6320
ENDCHAR
STARTCHAR 4FDF
ENCODING 20447
SWIDTH 720 0
DWIDTH 12 0
BBX 12 12 0 -2
BITMAP
3B00
3240
3FE0
7760
6C80
6FC0
F360
7FF0
6300
6680
64F0
7860
ENDCHAR
STARTCHAR 4FE1
ENCODING 20449
SWIDTH 720 0
DWIDTH 12 0
BBX 12 12 0 -2
BITMAP
37C0
3060
3FF0
6080
6FC0
E080
6FC0
6840
6FE0
6CC0
6FC0
6CC0
ENDCHAR
STARTCHAR 4FE3
ENCODING 20451
SWIDTH 720 0
DWIDTH 12 0
BBX 12 12 0 -2
BITMAP
3CC0
37E0
36C0
67C0
6040
EFE0
6320
7FF0
6300
66F0
6460
7820
ENDCHAR
STARTCHAR 4FE4
ENCODING 20452
SWIDTH 720 0
DWIDTH 12 0
BBX 12 12 0 -2
BITMAP
36C0
32A0
3FF0
6360
6FE0
6B00
EFF0
7B60
6760
6FE0
7340
6300
ENDCHAR
STARTCHAR 4FE5
ENCODING 20453
SWIDTH 720 0
DWIDTH 12 0
BBX 12 12 0 -2
BITMAP
3340
3FE0
3300
6FE0
6B40
6FC0
EB40
6FC0
6320
7FF0
6300
6300
ENDCHAR
STARTCHAR 4FEE
ENCODING 20462
SWIDTH 720 0
DWIDTH 12 0
BBX 12 12 0 -2
BITMAP
3B80
3360
37F0
6EC0
6980
EEF0
6920
6EC0
69B0
6E60
60C0
6700
ENDCHAR
STARTCHAR 4FEF
ENCODING 20463
SWIDTH 720 0
DWIDTH 12 0
BBX 12 12 0 -2
BITMAP
3B80
3360
3FF0
6D60
6D60
6FF0
EB60
6EE0
6EE0
7660
67E0
66C0
ENDCHAR
STARTCHAR 4FF3
ENCODING 20467
SWIDTH 720 0
DWIDTH 12 0
BBX 12 12 0 -2
BITMAP
3FE0
36D0
3EF0
66C0
66D0
FEF0
66C0
66D0
7EF0
74C0
64C0
78C0
ENDCHAR
STARTCHAR 4FF5
ENCODING 20469
SWIDTH 720 0
DWIDTH 12 0
BBX 12 12 0 -2
BITMAP
3340
3FE0
3300
6FC0
6320
FFF0
6660
6D40
7C80
6DF0
7E60
6C20
ENDCHAR
STARTCHAR 4FF6
ENCODING 20470
SWIDTH 720 0
DWIDTH 12 0
BBX 12 12 0 -2
BITMAP
3700
3E60
37F0
6760
66E0
7FE0
E640
6FC0
6EC0
76F0
6FA0
6D20
ENDCHAR
STARTCHAR 4FF8
ENCODING 20472
SWIDTH 720 0
DWIDTH 12 0
BBX 12 12 0 -2
BITMAP
3340
3FE0
3300
6FC0
66A0
FFF0
6B40
6FF0
7320
6FE0
6300
6300
ENDCHAR
STARTCHAR 4FFA
ENCODING 20474
SWIDTH 720 0
DWIDTH 12 0
BBX 12 12 0 -2
BITMAP
3B80
3360
3FF0
6680
6FF0
7B60
EFC0
6B40
6FE0
6B20
63F0
61F0
ENDCHAR
STARTCHAR 4FFE
ENCODING 20478
SWIDTH 720 0
DWIDTH 12 0
BBX 12 12 0 -2
BITMAP
3B00
3660
3FF0
6D60
6FE0
6D60
EFE0
6580
6DA0
7FF0
6180
6180
ENDCHAR
STARTCHAR 5005
ENCODING 20485
SWIDTH 720 0
DWIDTH 12 0
BBX 12 12 0 -2
BITMAP
3B80
3340
3FE0
6CC0
6CC0
6AA0
F330
7FF0
6300
6300
6300
6300
ENDCHAR
STARTCHAR 5006
ENCODING 20486
SWIDTH 720 0
DWIDTH 12 0
BBX 12 12 0 -2
BITMAP
3060
3FF0
3300
6B60
6FF0
6B60
EFE0
6B60
6B60
6FE0
6B60
6B60
ENDCHAR
STARTCHAR 5009
ENCODING 20489
SWIDTH 720 0
DWIDTH 12 0
BBX 12 12 0 -2
BITMAP
0600
0D00
1F80
39F0
DFE0
19A0
1F80
3000
3FC0
5980
9F80
1980
ENDCHAR
STARTCHAR 500B
ENCODING 20491
SWIDTH 720 0
DWIDTH 12 0
BBX 12 12 0 -2
BITMAP
2860
3FF0
3D60
6D60
6FE0
ED60
6FE0
6EE0
6FE0
6C60
6FE0
6C60
ENDCHAR
STARTCHAR 500D
ENCODING 20493
SWIDTH 720 0
DWIDTH 12 0
BBX 12 12 0 -2
BITMAP
3B80
3340
3FE0
64C0
66A0
FFF0
6000
67E0
66C0
66C0
67C0
66C0
ENDCHAR
STARTCHAR 500F
ENCODING 20495
SWIDTH 720 0
DWIDTH 12 0
BBX 12 12 0 -2
BITMAP
3B00
33E0
36C0
6D80
6B70
6DE0
E9A0
6FF0
6980
6B70
6260
6C20
ENDCHAR
STARTCHAR 5011
ENCODING 20497
SWIDTH 720 0
DWIDTH 12 0
BBX 12 12 0 -2
BITMAP
3960
3FF0
2D60
6FE0
6D60
6FE0
EC60
6C60
6C60
6C60
6DE0
6CC0
ENDCHAR
STARTCHAR 5012
ENCODING 20498
SWIDTH 720 0
DWIDTH 12 0
BBX 12 12 0 -2
BITMAP
3370
3FE0
2D60
6B60
7F60
ED60
6D60
7F60
6C60
6F60
7DE0
68C0
ENDCHAR
STARTCHAR 5014
ENCODING 20500
SWIDTH 720 0
DWIDTH 12 0
BBX 12 12 0 -2
BITMAP
3060
3FF0
3C60
6FE0
6DB0
6DA0
EDA0
6FF0
6DA0
7DA0
6FE0
6C20
ENDCHAR
STARTCHAR 5016
ENCODING 20502
SWIDTH 720 0
DWIDTH 12 0
BBX 12 12 0 -2
BITMAP
3B80
3340
3FE0
6320
7FF0
E4C0
66A0
7FF0
6340
6FE0
6300
6300
ENDCHAR
STARTCHAR 5019
ENCODING 20505
SWIDTH 720 0
DWIDTH 12 0
BBX 12 12 0 -2
BITMAP
38C0
37E0
30C0
6FF0
6A40
6BE0
EDA0
6FF0
6980
6B70
6260
6C20
ENDCHAR
STARTCHAR 501A
ENCODING 20506
SWIDTH 720 0
DWIDTH 12 0
BBX 12 12 0 -2
BITMAP
3B80
3340
3FE0
66C0
6C60
7FF0
E060
6F60
6D60
6F60
6DE0
60C0
ENDCHAR
STARTCHAR 501F
ENCODING 20511
SWIDTH 720 0
DWIDTH 12 0
BBX 12 12 0 -2
BITMAP
3FE0
36C0
3FF0
66C0
7FF0
E000
67E0
66C0
67C0
66C0
67C0
66C0
ENDCHAR
STARTCHAR 5021
ENCODING 20513
SWIDTH 720 0
DWIDTH 12 0
BBX 12 12 0 -2
BITMAP
3FE0
36C0
37C0
66C0
67C0
6860
EFF0
6C60
6FE0
6C60
6FE0
6C60
ENDCHAR
STARTCHAR 5023
ENCODING 20515
SWIDTH 720 0
DWIDTH 12 0
BBX 12 12 0 -2
BITMAP
36E0
36C0
3FD0
69F0
6B60
EF60
6BE0
6B40
6B60
6BB0
77A0
6620
ENDCHAR
STARTCHAR 5024
ENCODING 20516
SWIDTH 720 0
DWIDTH 12 0
BBX 12 12 0 -2
BITMAP
39C0
31A0
3FF0
6180
6FE0
EB60
6BE0
6B60
6BE0
6B60
6FF0
6800
ENDCHAR
STARTCHAR 5025
ENCODING 20517
SWIDTH 720 0
DWIDTH 12 0
BBX 12 12 0 -2
BITMAP
3B80
3360
3FF0
6AA0
7EF0
6CF0
E040
6FE0
6300
6360
7FF0
6000
ENDCHAR
STARTCHAR 5026
ENCODING 20518
SWIDTH 720 0
DWIDTH 12 0
BBX 12 12 0 -2
BITMAP
3BE0
3740
3FE0
6320
7FF0
E680
6FF0
69E0
77A0
6640
67E0
63E0
ENDCHAR
STARTCHAR 5028
ENCODING 20520
SWIDTH 720 0
DWIDTH 12 0
BBX 12 12 0 -2
BITMAP
3060
3FF0
3C60
6FE0
6DA0
6FF0
ED80
6DA0
6FF0
7660
67E0
6660
ENDCHAR
STARTCHAR 5029
ENCODING 20521
SWIDTH 720 0
DWIDTH 12 0
BBX 12 12 0 -2
BITMAP
3340
3FE0
3300
6FC0
6360
7FF0
ECC0
6FC0
6CC0
6FC0
6CC0
6DC0
ENDCHAR
STARTCHAR 502A
ENCODING 20522
SWIDTH 720 0
DWIDTH 12 0
BBX 12 12 0 -2
BITMAP
3300
3360
3EF0
6C60
6EE0
6C60
EFE0
6580
67A0
6DA0
69F0
70F0
ENDCHAR
STARTCHAR 502B
ENCODING 20523
SWIDTH 720 0
DWIDTH 12 0
BBX 12 12 0 -2
BITMAP
3B00
3380
3640
67F0
6860
FFF0
6D60
6D60
6FE0
6D60
6D60
6CE0
ENDCHAR
STARTCHAR 502C
ENCODING 20524
SWIDTH 720 0
DWIDTH 12 0
BBX 12 12 0 -2
BITMAP
3B40
33E0
3B00
6FE0
6CC0
6FC0
ECC0
6FC0
6360
7FF0
6300
6300
ENDCHAR
STARTCHAR 502D
ENCODING 20525
SWIDTH 720 0
DWIDTH 12 0
BBX 12 12 0 -2
BITMAP
39C0
3780
3360
7FF0
6FC0
EB70
7320
7FF0
66C0
7D80
67E0
7C60
ENDCHAR
STARTCHAR 5036
ENCODING 20534
SWIDTH 720 0
DWIDTH 12 0
BBX 12 12 0 -2
BITMAP
3CC0
37E0
36C0
67C0
66C0
67C0
E6C0
66C0
7FF0
6480
6660
7870
ENDCHAR
STARTCHAR 5039
ENCODING 20537
SWIDTH 720 0
DWIDTH 12 0
BBX 12 12 0 -2
BITMAP
3B00
3380
3640
67F0
7B60
EFE0
6B60
6FE0
6B00
66F0
6460
7820
ENDCHAR
STARTCHAR 5043
ENCODING 20547
SWIDTH 720 0
DWIDTH 12 0
BBX 12 12 0 -2
BITMAP
38C0
3FE0
2CC0
6FC0
6CC0
6FC0
ED60
6FF0
6EC0
6D60
6FF0
6C00
ENDCHAR
STARTCHAR 5047
ENCODING 20551
SWIDTH 720 0
DWIDTH 12 0
BBX 12 12 0 -2
BITMAP
3960
3FF0
2D60
6FE0
6D60
6D20
EFF0
6D60
6FC0
6CC0
6CF0
6F20
ENDCHAR
STARTCHAR 5048
ENCODING 20552
SWIDTH 720 0
DWIDTH 12 0
BBX 12 12 0 -2
BITMAP
3FC0
36C0
37C0
66C0
67C0
6660
E7F0
6D60
7F60
6D60
67C0
6180
ENDCHAR
STARTCHAR 5049
ENCODING 20553
SWIDTH 720 0
DWIDTH 12 0
BBX 12 12 0 -2
BITMAP
3300
3FE0
36C0
7FF0
6CC0
6FC0
E1A0
6FE0
6D80
7FF0
6180
6180
ENDCHAR
STARTCHAR 504F
ENCODING 20559
SWIDTH 720 0
DWIDTH 12 0
BBX 12 12 0 -2
BITMAP
3060
3FF0
6CC0
6FC0
6C60
EFF0
6D60
6D60
7FE0
6D60
6D60
6DE0
ENDCHAR
STARTCHAR 5050
ENCODING 20560
SWIDTH 720 0
DWIDTH 12 0
BBX 12 12 0 -2
BITMAP
39C0
31A0
3FF0
6240
6FF0
6D80
EF60
6CC0
6B60
6CC0
7180
6600
ENDCHAR
STARTCHAR 5055
ENCODING 20565
SWIDTH 720 0
DWIDTH 12 0
BBX 12 12 0 -2
BITMAP
3DC0
3DA0
2FE0
6DA0
6FF0
7D70
F7C0
66C0
67C0
66C0
67C0
66C0
ENDCHAR
STARTCHAR 5056
ENCODING 20566
SWIDTH 720 0
DWIDTH 12 0
BBX 12 12 0 -2
BITMAP
3B80
3360
3FC0
63A0
7FF0
6300
E7E0
6EC0
77C0
66C0
67C0
66C0
ENDCHAR
STARTCHAR 505A
ENCODING 20570
SWIDTH 720 0
DWIDTH 12 0
BBX 12 12 0 -2
BITMAP
37E0
36C0
36C0
7FF0
6760
66E0
EFE0
6DC0
6D40
6FF0
6960
6620
ENDCHAR
STARTCHAR 505C
ENCODING 20572
SWIDTH 720 0
DWIDTH 12 0
BBX 12 12 0 -2
BITMAP
3340
3FE0
36C0
67C0
6860
EFF0
7820
6FE0
6300
6300
6F00
6600
ENDCHAR
STARTCHAR 5065
ENCODING 20581
SWIDTH 720 0
DWIDTH 12 0
BBX 12 12 0 -2
BITMAP
39C0
35A0
3FF0
6DA0
6BF0
FDA0
6FE0
7D90
6FF0
6980
6FF0
73F0
ENDCHAR
STARTCHAR 506C
ENCODING 20588
SWIDTH 720 0
DWIDTH 12 0
BBX 12 12 0 -2
BITMAP
3700
3660
3FF0
6B60
6560
7A60
E5C0
7AC0
6BA0
6B30
6BF0
71C0
ENDCHAR
STARTCHAR 5072
ENCODING 20594
SWIDTH 720 0
DWIDTH 12 0
BBX 12 12 0 -2
BITMAP
3060
3FF0
2D60
6FE0
6D60
EFE0
6D60
63C0
6B60
6F30
7BF0
71C0
ENDCHAR
STARTCHAR 5074
ENCODING 20596
SWIDTH 720 0
DWIDTH 12 0
BBX 12 12 0 -2
BITMAP
3370
3FE0
3B60
6F60
6B60
EF60
6B60
6F60
6560
6E60
6BE0
72C0
ENDCHAR
STARTCHAR 5075
ENCODING 20597
SWIDTH 720 0
DWIDTH 12 0
BBX 12 12 0 -2
BITMAP
39A0
31F0
3580
67F0
6660
E7E0
6660
67E0
6660
67E0
6670
7C30
ENDCHAR
STARTCHAR 5076
ENCODING 20598
SWIDTH 720 0
DWIDTH 12 0
BBX 12 12 0 -2
BITMAP
3CC0
37E0
36C0
67C0
66C0
E7C0
6B60
6FF0
6B60
6FE0
6C60
68E0
ENDCHAR
STARTCHAR 5078
ENCODING 20600
SWIDTH 720 0
DWIDTH 12 0
BBX 12 12 0 -2
BITMAP
3B00
3380
3640
6FF0
7060
6FE0
EB60
6F60
6B60
6F60
6BE0
6B40
ENDCHAR
STARTCHAR 507D
ENCODING 20605
SWIDTH 720 0
DWIDTH 12 0
BBX 12 12 0 -2
BITMAP
3DC0
3580
3FC0
6D80
6FE0
ECC0
6FF0
6D60
7BE0
6F60
6DE0
60C0
ENDCHAR
STARTCHAR 5080
ENCODING 20608
SWIDTH 720 0
DWIDTH 12 0
BBX 12 12 0 -2
BITMAP
3B00
3660
3FF0
6B60
6FE0
6B60
EFE0
65A0
67E0
6D90
69F0
70F0
ENDCHAR
STARTCHAR 5085
ENCODING 20613
SWIDTH 720 0
DWIDTH 12 0
BBX 12 12 0 -2
BITMAP
3BC0
3360
3FF0
6B60
6FE0
6B60
EFE0
60C0
7FF0
6CC0
65C0
6180
ENDCHAR
STARTCHAR 508D
ENCODING 20621
SWIDTH 720 0
DWIDTH 12 0
BBX 12 12 0 -2
BITMAP
3B80
3360
3FF0
66C0
6FF0
EB20
7FF0
6300
67E0
66C0
6DC0
7180
ENDCHAR
STARTCHAR 5091
ENCODING 20625
SWIDTH 720 0
DWIDTH 12 0
BBX 12 12 0 -2
BITMAP
3660
3760
3BF0
6F60
77F0
EF60
7360
7FF0
6780
6F70
6B60
7320
ENDCHAR
STARTCHAR 5098
ENCODING 20632
SWIDTH 720 0
DWIDTH 12 0
BBX 12 12 0 -2
BITMAP
0600
0F00
36F0
F6E0
2F40
76E0
36C0
4F60
FFF0
0600
0600
0600
ENDCHAR
STARTCHAR 5099
ENCODING 20633
SWIDTH 720 0
DWIDTH 12 0
BBX 12 12 0 -2
BITMAP
36C0
3FE0
36D0
6FF0
6C20
EFF0
6D60
6FE0
6D60
6FE0
7560
65E0
ENDCHAR
STARTCHAR 509A
ENCODING 20634
SWIDTH 720 0
DWIDTH 12 0
BBX 12 12 0 -2
BITMAP
36E0
36C0
3FC0
6EF0
6B60
7B60
EEE0
64C0
6E40
6BF0
71A0
6120
ENDCHAR
STARTCHAR 50AC
ENCODING 20652
SWIDTH 720 0
DWIDTH 12 0
BBX 12 12 0 -2
BITMAP
35A0
35A0
37E0
66C0
6FF0
ED80
7FE0
6D80
6FE0
6DA0
6FF0
6C00
ENDCHAR
STARTCHAR 50AD
ENCODING 20653
SWIDTH 720 0
DWIDTH 12 0
BBX 12 12 0 -2
BITMAP
31A0
3FF0
6DA0
6FF0
6DA0
EFE0
6D80
6FE0
6DA0
6FE0
75A0
65E0
ENDCHAR
STARTCHAR 50B2
ENCODING 20658
SWIDTH 720 0
DWIDTH 12 0
BBX 12 12 0 -2
BITMAP
36E0
3FC0
36C0
3FF0
6760
7FE0
ECE0
6F40
6B60
6BF0
7EA0
6520
ENDCHAR
STARTCHAR 50B3
ENCODING 20659
SWIDTH 720 0
DWIDTH 12 0
BBX 12 12 0 -2
BITMAP
3360
3FF0
3300
6FE0
6B60
6FE0
EB60
7FF0
74D0
66C0
61C0
6180
ENDCHAR
STARTCHAR 50B4
ENCODING 20660
SWIDTH 720 0
DWIDTH 12 0
BBX 12 12 0 -2
BITMAP
3060
3FF0
3D40
6DE0
6D40
6D40
EFF0
6D60
6FE0
6D60
6FF0
6800
ENDCHAR
STARTCHAR 50B5
ENCODING 20661
SWIDTH 720 0
DWIDTH 12 0
BBX 12 12 0 -2
BITMAP
3340
3FE0
3300
6FC0
6320
FFF0
66C0
67C0
66C0
67C0
6670
7C30
ENDCHAR
STARTCHAR 50B7
ENCODING 20663
SWIDTH 720 0
DWIDTH 12 0
BBX 12 12 0 -2
BITMAP
3B20
37F0
3760
6BE0
7360
FFF0
6620
67F0
7AE0
6560
6AE0
64C0
ENDCHAR
STARTCHAR 50BE
ENCODING 20670
SWIDTH 720 0
DWIDTH 12 0
BBX 12 12 0 -2
BITMAP
3860
3FF0
3180
6BF0
6B60
6FE0
EB60
6FE0
6760
63E0
6370
6E30
ENDCHAR
STARTCHAR 50C2
ENCODING 20674
SWIDTH 720 0
DWIDTH 12 0
BBX 12 12 0 -2
BITMAP
3980
37E0
35A0
7FF0
65A0
67E0
E5A0
7FF0
66C0
6D80
63C0
7E60
ENDCHAR
STARTCHAR 50C5
ENCODING 20677
SWIDTH 720 0
DWIDTH 12 0
BBX 12 12 0 -2
BITMAP
3EC0
36E0
3FF0
66C0
6FE0
6B60
EFE0
6300
6FE0
6300
7FF0
6000
ENDCHAR
STARTCHAR 50C9
ENCODING 20681
SWIDTH 720 0
DWIDTH 12 0
BBX 12 12 0 -2
BITMAP
0600
0E00
0900
1F80
2070
FBE0
5AC0
7BC0
3180
3180
2D60
C630
ENDCHAR
STARTCHAR 50CA
ENCODING 20682
SWIDTH 720 0
DWIDTH 12 0
BBX 12 12 0 -2
BITMAP
3060
3FF0
3280
6FE0
6D60
7FF0
E680
6FF0
79A0
6780
6660
63E0
ENDCHAR
STARTCHAR 50CD
ENCODING 20685
SWIDTH 720 0
DWIDTH 12 0
BBX 12 12 0 -2
BITMAP
3380
3F00
2D60
7FF0
6D60
FF60
6D60
7F60
6D60
7F60
6DE0
7EC0
ENDCHAR
STARTCHAR 50CF
ENCODING 20687
SWIDTH 720 0
DWIDTH 12 0
BBX 12 12 0 -2
BITMAP
3B00
33C0
3680
6FE0
6D60
EFE0
6660
7BC0
6DC0
62F0
6FA0
6120
ENDCHAR
STARTCHAR 50D1
ENCODING 20689
SWIDTH 720 0
DWIDTH 12 0
BBX 12 12 0 -2
BITMAP
31C0
3F80
3360
7FF0
66C0
6FF0
FAA0
6FF0
6D60
6F60
6DE0
6CC0
ENDCHAR
STARTCHAR 50D5
ENCODING 20693
SWIDTH 720 0
DWIDTH 12 0
BBX 12 12 0 -2
BITMAP
3AA0
36C0
3FF0
6580
6FE0
E300
6FC0
6320
7FF0
6300
66F0
7860
ENDCHAR
STARTCHAR 50D6
ENCODING 20694
SWIDTH 720 0
DWIDTH 12 0
BBX 12 12 0 -2
BITMAP
3B80
3360
3FF0
6300
6FE0
66C0
E7C0
62A0
7FF0
66C0
67C0
66C0
ENDCHAR
STARTCHAR 50DA
ENCODING 20698
SWIDTH 720 0
DWIDTH 12 0
BBX 12 12 0 -2
BITMAP
31A0
3FF0
3AA0
67C0
6EF0
F7E0
66C0
67C0
6DA0
69B0
77B0
6300
ENDCHAR
STARTCHAR 50DE
ENCODING 20702
SWIDTH 720 0
DWIDTH 12 0
BBX 12 12 0 -2
BITMAP
3060
3FE0
3540
67C0
66C0
67E0
E660
67F0
6560
6EE0
6AE0
70C0
ENDCHAR
STARTCHAR 50E3
ENCODING 20707
SWIDTH 720 0
DWIDTH 12 0
BBX 12 12 0 -2
BITMAP
36C0
3FE0
36C0
7FF0
6EC0
6BB0
F7D0
66C0
67C0
66C0
67C0
66C0
ENDCHAR
STARTCHAR 50E5
ENCODING 20709
SWIDTH 720 0
DWIDTH 12 0
BBX 12 12 0 -2
BITMAP
3B00
37C0
3300
7FE0
6CC0
7FE0
ECC0
7FF0
7580
6DA0
6DF0
70F0
ENDCHAR
STARTCHAR 50E7
ENCODING 20711
SWIDTH 720 0
DWIDTH 12 0
BBX 12 12 0 -2
BITMAP
36C0
32A0
3FF0
6D60
6FE0
ED60
6FE0
66C0
67C0
66C0
67C0
66C0
ENDCHAR
STARTCHAR 50ED
ENCODING 20717
SWIDTH 720 0
DWIDTH 12 0
BBX 12 12 0 -2
BITMAP
36C0
3FF0
36C0
7FF0
6D40
6B70
F7F0
66C0
67C0
66C0
67C0
66C0
ENDCHAR
STARTCHAR 50EE
ENCODING 20718
SWIDTH 720 0
DWIDTH 12 0
BBX 12 12 0 -2
BITMAP
3340
3FE0
34C0
66A0
7FF0
6B40
EFC0
6B40
7FE0
6300
7FF0
6000
ENDCHAR
STARTCHAR 50F5
ENCODING 20725
SWIDTH 720 0
DWIDTH 12 0
BBX 12 12 0 -2
BITMAP
3060
3FF0
3840
6FE0
6B40
7FF0
EB40
6FC0
6B40
6FC0
6060
7FF0
ENDCHAR
STARTCHAR 50F9
ENCODING 20729
SWIDTH 720 0
DWIDTH 12 0
BBX 12 12 0 -2
BITMAP
3060
3FF0
3280
6FE0
6D60
6FE0
E6C0
67C0
66C0
67C0
6660
7C70
ENDCHAR
STARTCHAR 50FB
ENCODING 20731
SWIDTH 720 0
DWIDTH 12 0
BBX 12 12 0 -2
BITMAP
32E0
3EC0
3BF0
6BA0
6EE0
EBF0
6AC0
6ED0
7BF0
6AC0
6EC0
6AC0
ENDCHAR
STARTCHAR 5100
ENCODING 20736
SWIDTH 720 0
DWIDTH 12 0
BBX 12 12 0 -2
BITMAP
36C0
3FE0
3300
6FC0
6320
FFF0
65E0
7DA0
6FF0
7DA0
6CF0
6F70
ENDCHAR
STARTCHAR 5101
ENCODING 20737
SWIDTH 720 0
DWIDTH 12 0
BBX 12 12 0 -2
BITMAP
3360
36C0
3FE0
6E80
77E0
6680
E7F0
6C60
6FF0
6D60
6D60
6CE0
ENDCHAR
STARTCHAR 5102
ENCODING 20738
SWIDTH 720 0
DWIDTH 12 0
BBX 12 12 0 -2
BITMAP
3280
3FE0
6D60
6FE0
6D60
6FF0
EC20
6FF0
6B60
6AC0
7770
6620
ENDCHAR
STARTCHAR 5104
ENCODING 20740
SWIDTH 720 0
DWIDTH 12 0
BBX 12 12 0 -2
BITMAP
3180
3FE0
36D0
3FF0
66C0
67C0
E6C0
67C0
6BA0
6B50
7BF0
71E0
ENDCHAR
STARTCHAR 5109
ENCODING 20745
SWIDTH 720 0
DWIDTH 12 0
BBX 12 12 0 -2
BITMAP
3B00
3300
36C0
67F0
6820
7FE0
EB60
6FE0
66C0
6EC0
6BA0
7330
ENDCHAR
STARTCHAR 5112
ENCODING 20754
SWIDTH 720 0
DWIDTH 12 0
BBX 12 12 0 -2
BITMAP
30C0
3FE0
3320
7FF0
6B60
E740
7FF0
6620
6FF0
6D60
6D60
6DE0
ENDCHAR
STARTCHAR 5114
ENCODING 20756
SWIDTH 720 0
DWIDTH 12 0
BBX 12 12 0 -2
BITMAP
3360
3FE0
3360
7FF0
6360
6FE0
E320
7FF0
6D60
6F60
6DE0
60C0
ENDCHAR
STARTCHAR 5115
ENCODING 20757
SWIDTH 720 0
DWIDTH 12 0
BBX 12 12 0 -2
BITMAP
31A0
3FF0
32B0
7FE0
6D40
6970
F7D0
66C0
67C0
66C0
64C0
78C0
ENDCHAR
STARTCHAR 5116
ENCODING 20758
SWIDTH 720 0
DWIDTH 12 0
BBX 12 12 0 -2
BITMAP
32C0
3FA0
2DF0
6F00
6D40
6FE0
E000
6FE0
6D60
6D60
7FF0
6000
ENDCHAR
STARTCHAR 5118
ENCODING 20760
SWIDTH 720 0
DWIDTH 12 0
BBX 12 12 0 -2
BITMAP
3300
3FE0
3360
7FF0
6360
7FF0
EAA0
7BF0
6FE0
6D60
7FF0
6000
ENDCHAR
STARTCHAR 511A
ENCODING 20762
SWIDTH 720 0
DWIDTH 12 0
BBX 12 12 0 -2
BITMAP
32A0
3FF0
3280
6FE0
6D60
6FF0
FA60
67C0
6D80
7300
6600
7800
ENDCHAR
STARTCHAR 511F
ENCODING 20767
SWIDTH 720 0
DWIDTH 12 0
BBX 12 12 0 -2
BITMAP
35A0
3FF0
3B60
67C0
66C0
E7C0
66C0
67C0
66C0
67C0
6670
7C30
ENDCHAR
STARTCHAR 5121
ENCODING 20769
SWIDTH 720 0
DWIDTH 12 0
BBX 12 12 0 -2
BITMAP
3FE0
3540
37C0
6540
67C0
6860
EFF0
6D60
6FE0
6D60
6FE0
6D60
ENDCHAR
STARTCHAR 512A
ENCODING 20778
SWIDTH 720 0
DWIDTH 12 0
BBX 12 12 0 -2
BITMAP
3060
3FF0
36C0
67C0
66C0
EFF0
7B60
6FF0
66C0
6D80
63F0
7C60
ENDCHAR
STARTCHAR 5132
ENCODING 20786
SWIDTH 720 0
DWIDTH 12 0
BBX 12 12 0 -2
BITMAP
3EC0
31F0
3EE0
65F0
6EC0
E5A0
6FF0
61A0
6FE0
6DA0
6FE0
6DA0
ENDCHAR
STARTCHAR 5137
ENCODING 20791
SWIDTH 720 0
DWIDTH 12 0
BBX 12 12 0 -2
BITMAP
3230
3FF0
36B0
6EF0
69A0
6FF0
ED60
6FE0
6FC0
75A0
6FF0
6CF0
ENDCHAR
STARTCHAR 513A
ENCODING 20794
SWIDTH 720 0
DWIDTH 12 0
BBX 12 12 0 -2
BITMAP
34C0
3FB0
35A0
65F0
7FA0
6DF0
EDA0
7FF0
6DA0
6BA0
73F0
6180
ENDCHAR
STARTCHAR 513B
ENCODING 20795
SWIDTH 720 0
DWIDTH 12 0
BBX 12 12 0 -2
BITMAP
3BA0
3760
3FF0
7AA0
6FE0
6DA0
EFE0
6DA0
7FF0
6180
7FF0
6DB0
ENDCHAR
STARTCHAR 513C
ENCODING 20796
SWIDTH 720 0
DWIDTH 12 0
BBX 12 12 0 -2
BITMAP
3DE0
3560
3DE0
2820
6FF0
6CC0
EFF0
6AA0
6FE0
7540
6FF0
6D20
ENDCHAR
STARTCHAR 513F
ENCODING 20799
SWIDTH 720 0
DWIDTH 12 0
BBX 12 12 0 -2
BITMAP
1F80
1B00
1B00
1B00
1B00
1B00
1B00
1B00
1320
3320
23F0
C1F0
ENDCHAR
STARTCHAR 5140
ENCODING 20800
SWIDTH 720 0
DWIDTH 12 0
BBX 12 12 0 -2
BITMAP
0060
FFF0
1B00
1B00
1B00
1B00
1B00
1B00
1320
3320
23F0
C1F0
ENDCHAR
STARTCHAR 5141
ENCODING 20801
SWIDTH 720 0
DWIDTH 12 0
BBX 12 12 0 -2
BITMAP
0C00
0C80
1040
FFE0
DB70
1B00
1B00
1B00
1320
3320
23F0
C1F0
ENDCHAR
STARTCHAR 5143
ENCODING 20803
SWIDTH 720 0
DWIDTH 12 0
BBX 12 12 0 -2
BITMAP
0180
3FC0
0000
0060
FFF0
1B00
1B00
1B00
1320
3320
23F0
C1F0
ENDCHAR
STARTCHAR 5144
ENCODING 20804
SWIDTH 720 0
DWIDTH 12 0
BBX 12 12 0 -2
BITMAP
20C0
3FE0
30C0
30C0
30C0
3FC0
1B00
1B00
1B20
3320
23F0
C1F0
ENDCHAR
STARTCHAR 5145
ENCODING 20805
SWIDTH 720 0
DWIDTH 12 0
BBX 12 12 0 -2
BITMAP
0700
0660
FFF0
0D00
08C0
7FE0
3B60
0F00
1B20
1320
23F0
C1F0
ENDCHAR
STARTCHAR 5146
ENCODING 20806
SWIDTH 720 0
DWIDTH 12 0
BBX 12 12 0 -2
BITMAP
1F80
1B00
9B60
5B40
7B80
5B00
3BC0
DB60
9320
3320
23F0
C1F0
ENDCHAR
STARTCHAR 5147
ENCODING 20807
SWIDTH 720 0
DWIDTH 12 0
BBX 12 12 0 -2
BITMAP
73E0
6AC0
6EC0
66C0
7BC0
62C0
7FC0
6B40
1F20
1B20
33F0
C1F0
ENDCHAR
STARTCHAR 5148
ENCODING 20808
SWIDTH 720 0
DWIDTH 12 0
BBX 12 12 0 -2
BITMAP
3700
36C0
3FE0
6600
4660
FFF0
1B00
1B00
1B20
3320
23F0
C1F0
ENDCHAR
STARTCHAR 5149
ENCODING 20809
SWIDTH 720 0
DWIDTH 12 0
BBX 12 12 0 -2
BITMAP
0700
66C0
36C0
3680
0760
FFF0
1B00
1B00
1B20
3320
23F0
C1F0
ENDCHAR
STARTCHAR 514B
ENCODING 20811
SWIDTH 720 0
DWIDTH 12 0
BBX 12 12 0 -2
BITMAP
0700
0660
FFF0
0600
3FE0
30C0
30C0
3FC0
1B20
1B20
33F0
C1F0
ENDCHAR
STARTCHAR 514C
ENCODING 20812
SWIDTH 720 0
DWIDTH 12 0
BBX 12 12 0 -2
BITMAP
2180
1B00
1A80
3FC0
3180
3180
3180
3F80
1B20
1B20
33F0
C1F0
ENDCHAR
STARTCHAR 514D
ENCODING 20813
SWIDTH 720 0
DWIDTH 12 0
BBX 12 12 0 -2
BITMAP
0D00
0F80
1B40
3FE0
F6C0
36C0
3FC0
0B40
1F20
1B20
33F0
C1F0
ENDCHAR
STARTCHAR 514E
ENCODING 20814
SWIDTH 720 0
DWIDTH 12 0
BBX 12 12 0 -2
BITMAP
01C0
3F80
0640
3FE0
36C0
36C0
3FC0
2B40
1F60
1B20
33F0
C1F0
ENDCHAR
STARTCHAR 5150
ENCODING 20816
SWIDTH 720 0
DWIDTH 12 0
BBX 12 12 0 -2
BITMAP
3CC0
37E0
36C0
37C0
36C0
37C0
36C0
1B80
1B20
1B20
33F0
C1F0
ENDCHAR
STARTCHAR 5152
ENCODING 20818
SWIDTH 720 0
DWIDTH 12 0
BBX 12 12 0 -2
BITMAP
2D80
3BC0
3180
3B80
3180
3180
3F80
1B00
1B20
3320
23F0
C1F0
ENDCHAR
STARTCHAR 5154
ENCODING 20820
SWIDTH 720 0
DWIDTH 12 0
BBX 12 12 0 -2
BITMAP
0C00
1F80
1B40
3FE0
F6C0
36C0
3FC0
0B80
1B40
1B60
33F0
C1F0
ENDCHAR
STARTCHAR 515A
ENCODING 20826
SWIDTH 720 0
DWIDTH 12 0
BBX 12 12 0 -2
BITMAP
36C0
52A0
FFF0
C060
3F80
3180
3180
3F80
1B20
1B20
33F0
C1F0
ENDCHAR
STARTCHAR 515C
ENCODING 20828
SWIDTH 720 0
DWIDTH 12 0
BBX 12 12 0 -2
BITMAP
3660
FCF0
DF60
DB60
DF60
FBE0
DF60
1B80
1B20
3320
33F0
C1F0
ENDCHAR
STARTCHAR 5162
ENCODING 20834
SWIDTH 720 0
DWIDTH 12 0
BBX 12 12 0 -2
BITMAP
39C0
35A0
FFF0
3180
7BE0
6B40
6B40
7BC0
5AD0
5ED0
5AF0
9470
ENDCHAR
STARTCHAR 5165
ENCODING 20837
SWIDTH 720 0
DWIDTH 12 0
BBX 12 12 0 -2
BITMAP
0600
1F00
0200
0200
0600
0700
0D00
0D80
1880
10F0
2060
C020
ENDCHAR
STARTCHAR 5168
ENCODING 20840
SWIDTH 720 0
DWIDTH 12 0
BBX 12 12 0 -2
BITMAP
0600
0600
0D00
10C0
3FF0
C620
0680
3FC0
0600
0640
7FE0
0000
ENDCHAR
STARTCHAR 5169
ENCODING 20841
SWIDTH 720 0
DWIDTH 12 0
BBX 12 12 0 -2
BITMAP
0060
FFF0
0600
4660
7FF0
6660
7FE0
6EE0
7760
6660
66E0
66C0
ENDCHAR
STARTCHAR 516A
ENCODING 20842
SWIDTH 720 0
DWIDTH 12 0
BBX 12 12 0 -2
BITMAP
0600
0F00
0880
3FF0
C0A0
3FE0
3540
3E80
3540
3D40
35E0
34A0
ENDCHAR
STARTCHAR 516B
ENCODING 20843
SWIDTH 720 0
DWIDTH 12 0
BBX 12 12 0 -2
BITMAP
0B00
0D00
0D00
0D00
0D00
1980
1880
1080
30C0
2070
4060
8020
ENDCHAR
STARTCHAR 516C
ENCODING 20844
SWIDTH 720 0
DWIDTH 12 0
BBX 12 12 0 -2
BITMAP
1D00
1900
1080
34C0
2670
4660
8C20
0D00
0880
17C0
7C60
3060
ENDCHAR
STARTCHAR 516D
ENCODING 20845
SWIDTH 720 0
DWIDTH 12 0
BBX 12 12 0 -2
BITMAP
0700
0600
0660
FFF0
0000
1900
1880
3040
2060
4030
8030
0000
ENDCHAR
STARTCHAR 516E
ENCODING 20846
SWIDTH 720 0
DWIDTH 12 0
BBX 12 12 0 -2
BITMAP
0D00
0D00
1980
1FC0
2C70
CDA0
1FC0
1980
0180
0300
0F00
0600
ENDCHAR
STARTCHAR 5171
ENCODING 20849
SWIDTH 720 0
DWIDTH 12 0
BBX 12 12 0 -2
BITMAP
1F80
1B00
1B40
7FE0
1B00
1B00
1B60
FFF0
1100
38C0
3060
C060
ENDCHAR
STARTCHAR 5175
ENCODING 20853
SWIDTH 720 0
DWIDTH 12 0
BBX 12 12 0 -2
BITMAP
0180
13C0
1E00
18C0
1FE0
1980
19A0
FFF0
0800
1DC0
3070
C030
ENDCHAR
STARTCHAR 5176
ENCODING 20854
SWIDTH 720 0
DWIDTH 12 0
BBX 12 12 0 -2
BITMAP
1DC0
19A0
7FE0
1980
1F80
1980
1F80
19A0
FFF0
1900
18E0
6060
ENDCHAR
STARTCHAR 5177
ENCODING 20855
SWIDTH 720 0
DWIDTH 12 0
BBX 12 12 0 -2
BITMAP
1180
1FC0
1980
1F80
1980
1F80
1980
19A0
FFF0
1180
38E0
C060
ENDCHAR
STARTCHAR 5178
ENCODING 20856
SWIDTH 720 0
DWIDTH 12 0
BBX 12 12 0 -2
BITMAP
0F00
4AC0
7FE0
6AC0
6AC0
7FC0
6AC0
6AC0
FFF0
1900
38E0
C070
ENDCHAR
STARTCHAR 517C
ENCODING 20860
SWIDTH 720 0
DWIDTH 12 0
BBX 12 12 0 -2
BITMAP
19A0
FFF0
1B00
7FE0
1B60
FFF0
1B60
7FE0
3B80
3BF0
5B60
9B20
ENDCHAR
STARTCHAR 5180
ENCODING 20864
SWIDTH 720 0
DWIDTH 12 0
BBX 12 12 0 -2
BITMAP
1B60
FBC0
1B20
FFF0
B6F0
3FC0
36C0
7FE0
0620
FFF0
36E0
DBB0
ENDCHAR
STARTCHAR 5182
ENCODING 20866
SWIDTH 720 0
DWIDTH 12 0
BBX 12 12 0 -2
BITMAP
4060
7FF0
6060
6060
6060
6060
6060
6060
6060
6060
61E0
60C0
ENDCHAR
STARTCHAR 5185
ENCODING 20869
SWIDTH 720 0
DWIDTH 12 0
BBX 12 12 0 -2
BITMAP
0700
4660
7FF0
6660
6660
6D60
69E0
70E0
6060
6060
61E0
60C0
ENDCHAR
STARTCHAR 5186
ENCODING 20870
SWIDTH 720 0
DWIDTH 12 0
BBX 12 12 0 -2
BITMAP
4060
7FF0
6660
6660
6660
7FE0
6060
6060
6060
6060
61E0
60C0
ENDCHAR
STARTCHAR 5189
ENCODING 20873
SWIDTH 720 0
DWIDTH 12 0
BBX 12 12 0 -2
BITMAP
0700
26C0
3FE0
36C0
3FC0
36C0
36C0
FFF0
30C0
30C0
33C0
3180
ENDCHAR
STARTCHAR 518A
ENCODING 20874
SWIDTH 720 0
DWIDTH 12 0
BBX 12 12 0 -2
BITMAP
40C0
7FE0
6AC0
6AC0
6AD0
FFF0
6AC0
6AC0
6AC0
6AC0
6BC0
6180
ENDCHAR
STARTCHAR 518C
ENCODING 20876
SWIDTH 720 0
DWIDTH 12 0
BBX 12 12 0 -2
BITMAP
5A60
7BF0
5B60
5B60
5B60
FFF0
5B60
5B60
5B60
5A60
BBE0
B4C0
ENDCHAR
STARTCHAR 518D
ENCODING 20877
SWIDTH 720 0
DWIDTH 12 0
BBX 12 12 0 -2
BITMAP
0060
FFF0
0600
3FE0
36C0
3FC0
36C0
36C0
FFF0
30C0
33C0
3180
ENDCHAR
STARTCHAR 518F
ENCODING 20879
SWIDTH 720 0
DWIDTH 12 0
BBX 12 12 0 -2
BITMAP
4060
7FF0
6B60
6B60
79E0
6F60
6D60
6D60
6F60
6D60
61E0
60C0
ENDCHAR
STARTCHAR 5190
ENCODING 20880
SWIDTH 720 0
DWIDTH 12 0
BBX 12 12 0 -2
BITMAP
4060
7FF0
6060
7FE0
6060
7FE0
1980
1F80
1980
1F80
1980
1B80
ENDCHAR
STARTCHAR 5191
ENCODING 20881
SWIDTH 720 0
DWIDTH 12 0
BBX 12 12 0 -2
BITMAP
26C0
3FE0
36C0
3FC0
36C0
3FC0
1980
1F80
1980
1F80
1980
1B80
ENDCHAR
STARTCHAR 5192
ENCODING 20882
SWIDTH 720 0
DWIDTH 12 0
BBX 12 12 0 -2
BITMAP
20C0
3FE0
30C0
3FC0
30C0
3FC0
1980
1F80
1980
1980
1F80
1980
ENDCHAR
STARTCHAR 5193
ENCODING 20883
SWIDTH 720 0
DWIDTH 12 0
BBX 12 12 0 -2
BITMAP
1B40
7FE0
1B00
3FC0
1B60
FFF0
36C0
3FC0
36C0
FFF0
30C0
31C0
ENDCHAR
STARTCHAR 5195
ENCODING 20885
SWIDTH 720 0
DWIDTH 12 0
BBX 12 12 0 -2
BITMAP
3FE0
30C0
3FC0
30C0
3FC0
1B00
3FE0
F6C0
3FC0
1320
3BF0
E1F0
ENDCHAR
STARTCHAR 5196
ENCODING 20886
SWIDTH 720 0
DWIDTH 12 0
BBX 12 12 0 -2
BITMAP
0000
0000
0000
4060
7FF0
C020
C040
0000
0000
0000
0000
0000
ENDCHAR
STARTCHAR 5197
ENCODING 20887
SWIDTH 720 0
DWIDTH 12 0
BBX 12 12 0 -2
BITMAP
4060
7FF0
C060
D340
1F80
1B00
1B00
1B00
1B20
3320
23F0
C1F0
ENDCHAR
STARTCHAR 5199
ENCODING 20889
SWIDTH 720 0
DWIDTH 12 0
BBX 12 12 0 -2
BITMAP
4060
7FF0
CCA0
9FC0
1800
3FC0
01A0
FFF0
0180
0300
0F00
0600
ENDCHAR
STARTCHAR 51A0
ENCODING 20896
SWIDTH 720 0
DWIDTH 12 0
BBX 12 12 0 -2
BITMAP
4060
FFF0
C860
7C60
03F0
FF60
6D60
6D60
6CE0
6CD0
4FF0
87F0
ENDCHAR
STARTCHAR 51A2
ENCODING 20898
SWIDTH 720 0
DWIDTH 12 0
BBX 12 12 0 -2
BITMAP
4060
FFF0
C020
7FC0
1C60
36C0
CA80
3780
CB40
3370
CE20
0C00
ENDCHAR
STARTCHAR 51A4
ENCODING 20900
SWIDTH 720 0
DWIDTH 12 0
BBX 12 12 0 -2
BITMAP
4060
FFF0
CC40
1F80
3340
FFE0
36C0
3FC0
1340
1B60
33F0
C1F0
ENDCHAR
STARTCHAR 51A5
ENCODING 20901
SWIDTH 720 0
DWIDTH 12 0
BBX 12 12 0 -2
BITMAP
4060
FFF0
C040
1FC0
1980
1F80
1980
19A0
FFF0
1900
38E0
C070
ENDCHAR
STARTCHAR 51A6
ENCODING 20902
SWIDTH 720 0
DWIDTH 12 0
BBX 12 12 0 -2
BITMAP
4060
FFF0
C9A0
79A0
05E0
FD80
5FE0
5AC0
5980
5A60
5FF0
8FF0
ENDCHAR
STARTCHAR 51A8
ENCODING 20904
SWIDTH 720 0
DWIDTH 12 0
BBX 12 12 0 -2
BITMAP
4060
FFF0
C040
3FC0
1980
3FE0
36C0
3FC0
36C0
36C0
3FC0
30C0
ENDCHAR
STARTCHAR 51A9
ENCODING 20905
SWIDTH 720 0
DWIDTH 12 0
BBX 12 12 0 -2
BITMAP
4060
FFF0
CC20
3BC0
3180
3B80
3180
3F80
3060
DFF0
3560
DBC0
ENDCHAR
STARTCHAR 51AA
ENCODING 20906
SWIDTH 720 0
DWIDTH 12 0
BBX 12 12 0 -2
BITMAP
4060
FFF0
CB20
3FC0
1980
1F80
19A0
FFF0
36C0
FFF0
36E0
37C0
ENDCHAR
STARTCHAR 51AB
ENCODING 20907
SWIDTH 720 0
DWIDTH 12 0
BBX 12 12 0 -2
BITMAP
0800
0400
0600
0280
0100
0100
0200
1600
0C00
0400
0600
0600
ENDCHAR
STARTCHAR 51AC
ENCODING 20908
SWIDTH 720 0
DWIDTH 12 0
BBX 12 12 0 -2
BITMAP
0E00
0D80
1FC0
1980
3700
C600
0DF0
36E0
C320
1C00
0600
0300
ENDCHAR
STARTCHAR 51B0
ENCODING 20912
SWIDTH 720 0
DWIDTH 12 0
BBX 12 12 0 -2
BITMAP
8380
4300
6340
1360
3F60
2780
2F80
4B40
DB60
5370
6F20
6600
ENDCHAR
STARTCHAR 51B1
ENCODING 20913
SWIDTH 720 0
DWIDTH 12 0
BBX 12 12 0 -2
BITMAP
80C0
5FE0
6600
16C0
27E0
26C0
6CC0
CFC0
4CC0
60C0
7FF0
6000
ENDCHAR
STARTCHAR 51B2
ENCODING 20914
SWIDTH 720 0
DWIDTH 12 0
BBX 12 12 0 -2
BITMAP
8380
4300
7360
1FF0
3B60
3B60
5B60
5FE0
DB60
4300
6300
6300
ENDCHAR
STARTCHAR 51B3
ENCODING 20915
SWIDTH 720 0
DWIDTH 12 0
BBX 12 12 0 -2
BITMAP
8700
46C0
7FE0
16C0
16C0
26C0
3FF0
6600
C500
4D80
68F0
7060
ENDCHAR
STARTCHAR 51B4
ENCODING 20916
SWIDTH 720 0
DWIDTH 12 0
BBX 12 12 0 -2
BITMAP
4060
2FF0
36C0
16C0
16D0
1FF0
21C0
E3C0
42C0
64C0
6BC0
3180
ENDCHAR
STARTCHAR 51B5
ENCODING 20917
SWIDTH 720 0
DWIDTH 12 0
BBX 12 12 0 -2
BITMAP
88C0
4FE0
6CC0
1CC0
2CC0
2FC0
6580
C780
4DA0
6DA0
69F0
70F0
ENDCHAR
STARTCHAR 51B6
ENCODING 20918
SWIDTH 720 0
DWIDTH 12 0
BBX 12 12 0 -2
BITMAP
4300
2300
3240
2220
15F0
3F30
2CC0
67E0
C6C0
66C0
67C0
66C0
ENDCHAR
STARTCHAR 51B7
ENCODING 20919
SWIDTH 720 0
DWIDTH 12 0
BBX 12 12 0 -2
BITMAP
8600
4700
6500
28C0
1FF0
2060
3FE0
E6C0
46C0
67C0
66C0
6600
ENDCHAR
STARTCHAR 51BD
ENCODING 20925
SWIDTH 720 0
DWIDTH 12 0
BBX 12 12 0 -2
BITMAP
8370
7FE0
6860
1F60
3B60
2B60
6F60
DA60
5660
6460
69E0
70C0
ENDCHAR
STARTCHAR 51C4
ENCODING 20932
SWIDTH 720 0
DWIDTH 12 0
BBX 12 12 0 -2
BITMAP
8320
5FF0
6300
3FE0
0360
3FF0
4360
FFF0
46C0
6D80
63C0
7E60
ENDCHAR
STARTCHAR 51C5
ENCODING 20933
SWIDTH 720 0
DWIDTH 12 0
BBX 12 12 0 -2
BITMAP
8860
4FF0
6D60
1D60
2FE0
2D60
6FE0
CEE0
4FE0
6C60
6FE0
6C60
ENDCHAR
STARTCHAR 51C6
ENCODING 20934
SWIDTH 720 0
DWIDTH 12 0
BBX 12 12 0 -2
BITMAP
4380
2360
36D0
37F0
0EC0
17F0
26C0
67F0
C6C0
66D0
67F0
6600
ENDCHAR
STARTCHAR 51C9
ENCODING 20937
SWIDTH 720 0
DWIDTH 12 0
BBX 12 12 0 -2
BITMAP
8380
4360
7FF0
0000
3FC0
2CC0
6CC0
CFC0
5B40
5B70
7730
6600
ENDCHAR
STARTCHAR 51CB
ENCODING 20939
SWIDTH 720 0
DWIDTH 12 0
BBX 12 12 0 -2
BITMAP
8860
4FF0
6D60
2FE0
1D60
2FE0
2C60
EFE0
4EE0
5BE0
72E0
60C0
ENDCHAR
STARTCHAR 51CC
ENCODING 20940
SWIDTH 720 0
DWIDTH 12 0
BBX 12 12 0 -2
BITMAP
4340
2FE0
3320
2FF0
16C0
24F0
3B00
E7C0
4680
5BF0
66E0
7820
ENDCHAR
STARTCHAR 51CD
ENCODING 20941
SWIDTH 720 0
DWIDTH 12 0
BBX 12 12 0 -2
BITMAP
8320
5FF0
6300
2FE0
1B60
2FE0
2B60
EFE0
4780
4F40
7370
6320
ENDCHAR
STARTCHAR 51D6
ENCODING 20950
SWIDTH 720 0
DWIDTH 12 0
BBX 12 12 0 -2
BITMAP
86C0
4D80
6FE0
1D80
2FE0
ED80
4FF0
6620
FFF0
0600
0600
0600
ENDCHAR
STARTCHAR 51DB
ENCODING 20955
SWIDTH 720 0
DWIDTH 12 0
BBX 12 12 0 -2
BITMAP
8320
5FF0
6C60
1F60
2D60
2FE0
6020
DFF0
4B40
5B70
7730
6600
ENDCHAR
STARTCHAR 51DC
ENCODING 20956
SWIDTH 720 0
DWIDTH 12 0
BBX 12 12 0 -2
BITMAP
0320
DFF0
6C60
6F60
0D60
1FE0
2380
6760
DFF0
4780
6FF0
7360
ENDCHAR
STARTCHAR 51DD
ENCODING 20957
SWIDTH 720 0
DWIDTH 12 0
BBX 12 12 0 -2
BITMAP
8D20
4FF0
4DA0
7F40
29F0
3FD0
58E0
DFD0
6AF0
5FC0
72F0
6470
ENDCHAR
STARTCHAR 51E0
ENCODING 20960
SWIDTH 720 0
DWIDTH 12 0
BBX 12 12 0 -2
BITMAP
2300
3F80
3300
3300
3300
3300
3300
3300
3320
2320
23F0
C1F0
ENDCHAR
STARTCHAR 51E1
ENCODING 20961
SWIDTH 720 0
DWIDTH 12 0
BBX 12 12 0 -2
BITMAP
1180
1FC0
1980
1980
1D80
1F80
1B80
1980
11A0
31A0
21F0
C0F0
ENDCHAR
STARTCHAR 51E6
ENCODING 20966
SWIDTH 720 0
DWIDTH 12 0
BBX 12 12 0 -2
BITMAP
3800
32C0
33E0
3EC0
6AC0
6AC0
BAD0
12F0
3C70
2800
47F0
83F0
ENDCHAR
STARTCHAR 51E7
ENCODING 20967
SWIDTH 720 0
DWIDTH 12 0
BBX 12 12 0 -2
BITMAP
20C0
3FE0
36C0
36C0
3FC0
36C0
36C0
36C0
37D0
6660
4670
8630
ENDCHAR
STARTCHAR 51E9
ENCODING 20969
SWIDTH 720 0
DWIDTH 12 0
BBX 12 12 0 -2
BITMAP
20C0
3FE0
36C0
36C0
3FC0
36C0
36C0
3FC0
2FD0
6EE0
56B0
8630
ENDCHAR
STARTCHAR 51EA
ENCODING 20970
SWIDTH 720 0
DWIDTH 12 0
BBX 12 12 0 -2
BITMAP
20C0
3FE0
36C0
36C0
36C0
37C0
36C0
36C0
36D0
7FE0
4070
8030
ENDCHAR
STARTCHAR 51ED
ENCODING 20973
SWIDTH 720 0
DWIDTH 12 0
BBX 12 12 0 -2
BITMAP
38E0
37C0
71A0
7FF0
B180
37E0
2100
3F80
3320
3320
23F0
C1F0
ENDCHAR
STARTCHAR 51F0
ENCODING 20976
SWIDTH 720 0
DWIDTH 12 0
BBX 12 12 0 -2
BITMAP
20C0
3FE0
34C0
3EC0
36C0
3EC0
36C0
3FC0
2CD0
7F60
4D70
BFB0
ENDCHAR
STARTCHAR 51F1
ENCODING 20977
SWIDTH 720 0
DWIDTH 12 0
BBX 12 12 0 -2
BITMAP
B6C0
B7E0
FEC0
02C0
FEC0
5AC0
5AC0
7AC0
4AD0
3ED0
F2F0
CC70
ENDCHAR
STARTCHAR 51F5
ENCODING 20981
SWIDTH 720 0
DWIDTH 12 0
BBX 12 12 0 -2
BITMAP
7070
6060
6060
6060
6060
6060
6060
6060
6060
6060
7FE0
6060
ENDCHAR
STARTCHAR 51F6
ENCODING 20982
SWIDTH 720 0
DWIDTH 12 0
BBX 12 12 0 -2
BITMAP
0100
63F0
7360
6B60
6E60
6660
6F60
6B60
71E0
6160
7FE0
6060
ENDCHAR
STARTCHAR 51F8
ENCODING 20984
SWIDTH 720 0
DWIDTH 12 0
BBX 12 12 0 -2
BITMAP
1300
1F80
1B00
1B00
9B60
FBF0
DB60
C060
C060
C060
FFE0
C060
ENDCHAR
STARTCHAR 51F9
ENCODING 20985
SWIDTH 720 0
DWIDTH 12 0
BBX 12 12 0 -2
BITMAP
0000
9A60
FBF0
DB60
DB60
DB60
DF60
DB60
C060
C060
FFE0
C060
ENDCHAR
STARTCHAR 51FA
ENCODING 20986
SWIDTH 720 0
DWIDTH 12 0
BBX 12 12 0 -2
BITMAP
0700
3EE0
36C0
36C0
3FC0
06C0
7670
6660
6660
6660
7FE0
6060
ENDCHAR
STARTCHAR 51FD
ENCODING 20989
SWIDTH 720 0
DWIDTH 12 0
BBX 12 12 0 -2
BITMAP
0060
FFF0
0C00
6F70
76E0
7FE0
6760
7EE0
76E0
6C60
7FE0
6060
ENDCHAR
STARTCHAR 51FE
ENCODING 20990
SWIDTH 720 0
DWIDTH 12 0
BBX 12 12 0 -2
BITMAP
0180
3FC0
0300
6670
7FE0
66E0
7F60
6FE0
7EE0
6C60
7FE0
6060
ENDCHAR
STARTCHAR 5200
ENCODING 20992
SWIDTH 720 0
DWIDTH 12 0
BBX 12 12 0 -2
BITMAP
00C0
FFE0
18C0
18C0
18C0
18C0
18C0
30C0
30C0
2180
4780
8300
ENDCHAR
STARTCHAR 5203
ENCODING 20995
SWIDTH 720 0
DWIDTH 12 0
BBX 12 12 0 -2
BITMAP
0060
FFF0
0C60
0C60
6C60
1C60
0E60
1B60
1AC0
30C0
23C0
C180
ENDCHAR
STARTCHAR 5204
ENCODING 20996
SWIDTH 720 0
DWIDTH 12 0
BBX 12 12 0 -2
BITMAP
0000
00C0
7FE0
2CC0
2CC0
1CC0
0EC0
1BC0
19F0
11B0
2780
C300
ENDCHAR
STARTCHAR 5206
ENCODING 20998
SWIDTH 720 0
DWIDTH 12 0
BBX 12 12 0 -2
BITMAP
0D00
0D00
1880
10C0
3FF0
D9E0
19A0
1980
1980
3300
2F00
4600
ENDCHAR
STARTCHAR 5207
ENCODING 20999
SWIDTH 720 0
DWIDTH 12 0
BBX 12 12 0 -2
BITMAP
7000
6060
6FF0
7B60
6360
E360
6B60
6B60
7A60
3EC0
05C0
1980
ENDCHAR
STARTCHAR 5208
ENCODING 21000
SWIDTH 720 0
DWIDTH 12 0
BBX 12 12 0 -2
BITMAP
1C70
1BE0
9B60
5B60
3B60
3360
1B60
3C60
2660
6660
41E0
80C0
ENDCHAR
STARTCHAR 520A
ENCODING 21002
SWIDTH 720 0
DWIDTH 12 0
BBX 12 12 0 -2
BITMAP
0C70
FFE0
3360
3360
3360
FF60
3360
3360
3060
3060
31E0
30C0
ENDCHAR
STARTCHAR 520B
ENCODING 21003
SWIDTH 720 0
DWIDTH 12 0
BBX 12 12 0 -2
BITMAP
1870
3F60
F360
3360
3360
FF60
3360
3360
2060
6060
41E0
80C0
ENDCHAR
STARTCHAR 520E
ENCODING 21006
SWIDTH 720 0
DWIDTH 12 0
BBX 12 12 0 -2
BITMAP
7070
6DE0
7F60
5D60
AD60
7D60
5D60
AD60
2D60
5860
B9E0
30C0
ENDCHAR
STARTCHAR 5211
ENCODING 21009
SWIDTH 720 0
DWIDTH 12 0
BBX 12 12 0 -2
BITMAP
0670
FFE0
6D60
6D60
6D60
FF60
6D60
6D60
6C60
4C60
4DE0
8CC0
ENDCHAR
STARTCHAR 5214
ENCODING 21012
SWIDTH 720 0
DWIDTH 12 0
BBX 12 12 0 -2
BITMAP
3870
35E0
FF60
3560
3560
FF60
3160
3160
2960
6C60
4DE0
80C0
ENDCHAR
STARTCHAR 5217
ENCODING 21015
SWIDTH 720 0
DWIDTH 12 0
BBX 12 12 0 -2
BITMAP
0C70
FFE0
3160
3560
3D60
6D60
6D60
7960
9860
3060
21E0
40C0
ENDCHAR
STARTCHAR 521D
ENCODING 21021
SWIDTH 720 0
DWIDTH 12 0
BBX 12 12 0 -2
BITMAP
7000
6860
FFF0
1B60
3760
2B60
7B60
EB60
6660
64C0
6BC0
7180
ENDCHAR
STARTCHAR 5224
ENCODING 21028
SWIDTH 720 0
DWIDTH 12 0
BBX 12 12 0 -2
BITMAP
3870
B7E0
7F60
7360
FF60
3360
3360
FF60
3360
3060
31E0
30C0
ENDCHAR
STARTCHAR 5225
ENCODING 21029
SWIDTH 720 0
DWIDTH 12 0
BBX 12 12 0 -2
BITMAP
8C70
FFE0
CD60
CD60
FD60
6160
7F60
6D60
6C60
4C60
7DE0
98C0
ENDCHAR
STARTCHAR 5227
ENCODING 21031
SWIDTH 720 0
DWIDTH 12 0
BBX 12 12 0 -2
BITMAP
3800
3660
FFF0
3360
3360
FF60
3360
2B60
4A60
FEC0
C5C0
1980
ENDCHAR
STARTCHAR 5229
ENCODING 21033
SWIDTH 720 0
DWIDTH 12 0
BBX 12 12 0 -2
BITMAP
0C70
3FE0
F360
3760
FF60
3360
7B60
7F60
B360
3060
31E0
30C0
ENDCHAR
STARTCHAR 522A
ENCODING 21034
SWIDTH 720 0
DWIDTH 12 0
BBX 12 12 0 -2
BITMAP
41B0
7FB0
6DB0
6DB0
6DB0
FFF0
6DB0
6DB0
6DB0
6DB0
6DF0
6DA0
ENDCHAR
STARTCHAR 522E
ENCODING 21038
SWIDTH 720 0
DWIDTH 12 0
BBX 12 12 0 -2
BITMAP
0C70
3F60
F360
3360
FF60
3360
B360
FF60
CC60
CC60
FDE0
CCC0
ENDCHAR
STARTCHAR 5230
ENCODING 21040
SWIDTH 720 0
DWIDTH 12 0
BBX 12 12 0 -2
BITMAP
0C70
FFE0
3360
6B60
FF60
B360
3360
FF60
3060
3E60
F1E0
C0C0
ENDCHAR
STARTCHAR 5233
ENCODING 21043
SWIDTH 720 0
DWIDTH 12 0
BBX 12 12 0 -2
BITMAP
3870
3360
FF60
6B60
7F60
8360
FF60
3360
7C60
6C60
1DE0
18C0
ENDCHAR
STARTCHAR 5236
ENCODING 21046
SWIDTH 720 0
DWIDTH 12 0
BBX 12 12 0 -2
BITMAP
5C70
7BE0
7F60
DB60
FF60
1B60
FF60
DB60
DA60
DE60
DBE0
18C0
ENDCHAR
STARTCHAR 5237
ENCODING 21047
SWIDTH 720 0
DWIDTH 12 0
BBX 12 12 0 -2
BITMAP
4370
7F60
6360
7F60
6D60
6D60
7F60
6D60
6D60
AF60
2DE0
0CC0
ENDCHAR
STARTCHAR 5238
ENCODING 21048
SWIDTH 720 0
DWIDTH 12 0
BBX 12 12 0 -2
BITMAP
36C0
1680
7FC0
0C20
FFF0
1900
30F0
3FE0
CDA0
1980
1780
6300
ENDCHAR
STARTCHAR 5239
ENCODING 21049
SWIDTH 720 0
DWIDTH 12 0
BBX 12 12 0 -2
BITMAP
0C70
EF60
3B60
3760
DF60
1B60
FF60
3B60
7E60
5A60
99E0
18C0
ENDCHAR
STARTCHAR 523A
ENCODING 21050
SWIDTH 720 0
DWIDTH 12 0
BBX 12 12 0 -2
BITMAP
1C70
1BE0
FF60
1B60
FF60
DB60
DF60
FB60
7C60
5E60
99E0
18C0
ENDCHAR
STARTCHAR 523B
ENCODING 21051
SWIDTH 720 0
DWIDTH 12 0
BBX 12 12 0 -2
BITMAP
3870
35E0
FF60
6160
D960
5960
3560
2D60
D860
1860
26E0
C6C0
ENDCHAR
STARTCHAR 5243
ENCODING 21059
SWIDTH 720 0
DWIDTH 12 0
BBX 12 12 0 -2
BITMAP
6C70
2BE0
FF60
1B60
FF60
D960
FF60
BB60
7A60
5E60
9DE0
18C0
ENDCHAR
STARTCHAR 5244
ENCODING 21060
SWIDTH 720 0
DWIDTH 12 0
BBX 12 12 0 -2
BITMAP
0C70
FF60
5760
AB60
FF60
5760
FF60
3360
3060
3E60
F1E0
C0C0
ENDCHAR
STARTCHAR 5247
ENCODING 21063
SWIDTH 720 0
DWIDTH 12 0
BBX 12 12 0 -2
BITMAP
4C70
7FE0
6D60
7D60
6D60
7D60
6D60
7D60
2860
6C60
67E0
84C0
ENDCHAR
STARTCHAR 524A
ENCODING 21066
SWIDTH 720 0
DWIDTH 12 0
BBX 12 12 0 -2
BITMAP
BA70
F7E0
3560
FF60
CD60
FD60
CD60
FD60
CC60
CC60
DDE0
D8C0
ENDCHAR
STARTCHAR 524B
ENCODING 21067
SWIDTH 720 0
DWIDTH 12 0
BBX 12 12 0 -2
BITMAP
3870
3360
FF60
3360
7F60
6F60
6F60
7C60
2DE0
6C40
4FF0
87F0
ENDCHAR
STARTCHAR 524C
ENCODING 21068
SWIDTH 720 0
DWIDTH 12 0
BBX 12 12 0 -2
BITMAP
3870
35E0
FF60
3160
FD60
B560
FD60
B160
7D60
7460
B3E0
30C0
ENDCHAR
STARTCHAR 524D
ENCODING 21069
SWIDTH 720 0
DWIDTH 12 0
BBX 12 12 0 -2
BITMAP
1980
0960
FFF0
0000
7DF0
6D60
7D60
6D60
7D60
6C60
6DE0
6CC0
ENDCHAR
STARTCHAR 524F
ENCODING 21071
SWIDTH 720 0
DWIDTH 12 0
BBX 12 12 0 -2
BITMAP
6C00
2A60
FFF0
6D60
6F60
FF60
6D60
6DE0
6D60
6D70
4EE0
8CC0
ENDCHAR
STARTCHAR 5254
ENCODING 21076
SWIDTH 720 0
DWIDTH 12 0
BBX 12 12 0 -2
BITMAP
4C70
7FE0
6D60
7D60
6D60
7D60
3160
7F60
AE60
5660
BEE0
4CC0
ENDCHAR
STARTCHAR 5256
ENCODING 21078
SWIDTH 720 0
DWIDTH 12 0
BBX 12 12 0 -2
BITMAP
1C70
19E0
7F60
2D60
3960
FF60
0160
7F60
6C60
6C60
7DE0
6CC0
ENDCHAR
STARTCHAR 525B
ENCODING 21083
SWIDTH 720 0
DWIDTH 12 0
BBX 12 12 0 -2
BITMAP
8C70
FFE0
DD60
AD60
AD60
FD60
AD60
AD60
FC60
8C60
BDE0
98C0
ENDCHAR
STARTCHAR 525E
ENCODING 21086
SWIDTH 720 0
DWIDTH 12 0
BBX 12 12 0 -2
BITMAP
3870
35E0
FF60
6960
4D60
FF60
4D60
7D60
6D60
7C60
5DE0
18C0
ENDCHAR
STARTCHAR 5263
ENCODING 21091
SWIDTH 720 0
DWIDTH 12 0
BBX 12 12 0 -2
BITMAP
1070
3BE0
2F60
7F60
9B60
7F60
5B60
7F60
5B60
3460
27E0
C6C0
ENDCHAR
STARTCHAR 5264
ENCODING 21092
SWIDTH 720 0
DWIDTH 12 0
BBX 12 12 0 -2
BITMAP
3870
35E0
FF60
4D60
3960
4F60
FD60
6D60
7C60
6C60
4DE0
8CC0
ENDCHAR
STARTCHAR 5265
ENCODING 21093
SWIDTH 720 0
DWIDTH 12 0
BBX 12 12 0 -2
BITMAP
1870
7FE0
1B60
7B60
1B60
FF60
B760
7B60
3C60
F660
B5E0
70C0
ENDCHAR
STARTCHAR 5269
ENCODING 21097
SWIDTH 720 0
DWIDTH 12 0
BBX 12 12 0 -2
BITMAP
0E70
7D60
1B60
FF60
3D60
FF60
3D60
FBE0
BC60
7E60
5BE0
98C0
ENDCHAR
STARTCHAR 526A
ENCODING 21098
SWIDTH 720 0
DWIDTH 12 0
BBX 12 12 0 -2
BITMAP
1980
0920
FFF0
6D60
7D60
6D60
7DE0
6CC0
FFF0
0C60
19E0
E0C0
ENDCHAR
STARTCHAR 526F
ENCODING 21103
SWIDTH 720 0
DWIDTH 12 0
BBX 12 12 0 -2
BITMAP
0C70
FFE0
0160
7D60
6D60
FF60
D760
FE60
D660
D660
FFE0
C6C0
ENDCHAR
STARTCHAR 5270
ENCODING 21104
SWIDTH 720 0
DWIDTH 12 0
BBX 12 12 0 -2
BITMAP
0C70
7FE0
1B60
FF60
5B60
FF60
5B60
FF60
3C60
7E60
5BE0
98C0
ENDCHAR
STARTCHAR 5271
ENCODING 21105
SWIDTH 720 0
DWIDTH 12 0
BBX 12 12 0 -2
BITMAP
3000
3860
6FF0
7D60
B560
FF60
B560
FDE0
B570
6AF0
4FC0
8580
ENDCHAR
STARTCHAR 5272
ENCODING 21106
SWIDTH 720 0
DWIDTH 12 0
BBX 12 12 0 -2
BITMAP
5A70
FFE0
DB60
7D60
1960
7F60
1960
FF60
6D60
6C60
7DE0
6CC0
ENDCHAR
STARTCHAR 5273
ENCODING 21107
SWIDTH 720 0
DWIDTH 12 0
BBX 12 12 0 -2
BITMAP
2A70
FFE0
2B60
3360
3B60
6760
7F60
8360
7C60
6C60
7DE0
6CC0
ENDCHAR
STARTCHAR 5274
ENCODING 21108
SWIDTH 720 0
DWIDTH 12 0
BBX 12 12 0 -2
BITMAP
5A70
7FE0
0560
FF60
0160
7D60
6D60
7D60
6C60
2B60
FDE0
60C0
ENDCHAR
STARTCHAR 5275
ENCODING 21109
SWIDTH 720 0
DWIDTH 12 0
BBX 12 12 0 -2
BITMAP
1870
35E0
3F60
7560
BD60
3560
3D60
6160
7E60
B660
3FE0
36C0
ENDCHAR
STARTCHAR 527D
ENCODING 21117
SWIDTH 720 0
DWIDTH 12 0
BBX 12 12 0 -2
BITMAP
0670
FFE0
2960
FD60
D560
FD60
0560
FF60
3160
FC60
B7E0
60C0
ENDCHAR
STARTCHAR 527F
ENCODING 21119
SWIDTH 720 0
DWIDTH 12 0
BBX 12 12 0 -2
BITMAP
F670
55E0
FD60
B560
FD60
B560
FD60
3560
FF60
7860
B5E0
34C0
ENDCHAR
STARTCHAR 5283
ENCODING 21123
SWIDTH 720 0
DWIDTH 12 0
BBX 12 12 0 -2
BITMAP
3070
FDE0
3560
FF60
3560
FD60
3160
FF60
B560
FC60
B5E0
FEC0
ENDCHAR
STARTCHAR 5287
ENCODING 21127
SWIDTH 720 0
DWIDTH 12 0
BBX 12 12 0 -2
BITMAP
1E70
5B60
7F60
6B60
7F60
6B60
7F60
7B60
6C60
5E60
ADE0
18C0
ENDCHAR
STARTCHAR 5288
ENCODING 21128
SWIDTH 720 0
DWIDTH 12 0
BBX 12 12 0 -2
BITMAP
7C80
6FE0
7D40
47F0
7D80
AFE0
3D80
05A0
7FF0
0C60
19E0
E0C0
ENDCHAR
STARTCHAR 5289
ENCODING 21129
SWIDTH 720 0
DWIDTH 12 0
BBX 12 12 0 -2
BITMAP
9B70
FFE0
DB60
FF60
DB60
F760
3F60
5A60
FE60
5A60
FFE0
70C0
ENDCHAR
STARTCHAR 528D
ENCODING 21133
SWIDTH 720 0
DWIDTH 12 0
BBX 12 12 0 -2
BITMAP
3070
3BE0
2760
7F60
8360
FF60
DB60
FF60
6C60
6E60
5BE0
92C0
ENDCHAR
STARTCHAR 5291
ENCODING 21137
SWIDTH 720 0
DWIDTH 12 0
BBX 12 12 0 -2
BITMAP
1970
FF60
2B60
FF60
5560
5B60
BB60
7E60
6660
7E60
47E0
86C0
ENDCHAR
STARTCHAR 5292
ENCODING 21138
SWIDTH 720 0
DWIDTH 12 0
BBX 12 12 0 -2
BITMAP
3000
3860
67F0
7D60
8560
FF60
B560
FDE0
6D60
6E60
5BE0
94C0
ENDCHAR
STARTCHAR 5294
ENCODING 21140
SWIDTH 720 0
DWIDTH 12 0
BBX 12 12 0 -2
BITMAP
3000
3860
67F0
7D60
8560
FF60
B560
FDE0
6D70
6E70
5BE0
94C0
ENDCHAR
STARTCHAR 529B
ENCODING 21147
SWIDTH 720 0
DWIDTH 12 0
BBX 12 12 0 -2
BITMAP
0E00
0C00
0C60
FFF0
0C60
0C60
0C60
0860
1860
10C0
23C0
C180
ENDCHAR
STARTCHAR 529F
ENCODING 21151
SWIDTH 720 0
DWIDTH 12 0
BBX 12 12 0 -2
BITMAP
0380
0B00
FB60
3FF0
3360
3360
3F60
F260
C660
04C0
0BC0
3180
ENDCHAR
STARTCHAR 52A0
ENCODING 21152
SWIDTH 720 0
DWIDTH 12 0
BBX 12 12 0 -2
BITMAP
7000
6000
6D60
FFF0
6D60
6D60
6D60
6D60
6D60
4DE0
7D60
9800
ENDCHAR
STARTCHAR 52A3
ENCODING 21155
SWIDTH 720 0
DWIDTH 12 0
BBX 12 12 0 -2
BITMAP
0700
36C0
3670
CEB0
0380
1E00
ECC0
3FE0
0CC0
18C0
3780
C300
ENDCHAR
STARTCHAR 52A9
ENCODING 21161
SWIDTH 720 0
DWIDTH 12 0
BBX 12 12 0 -2
BITMAP
4B80
7B00
6B60
7FF0
6B60
7B60
6B60
6F60
7A60
F6C0
C5C0
1980
ENDCHAR
STARTCHAR 52AA
ENCODING 21162
SWIDTH 720 0
DWIDTH 12 0
BBX 12 12 0 -2
BITMAP
3840
33E0
FEC0
6D80
FAF0
2C60
CC40
7FE0
0CC0
18C0
3780
C300
ENDCHAR
STARTCHAR 52AB
ENCODING 21163
SWIDTH 720 0
DWIDTH 12 0
BBX 12 12 0 -2
BITMAP
3B80
3300
FB60
37F0
3360
FF60
3360
2B60
6F60
5E60
F3E0
CCC0
ENDCHAR
STARTCHAR 52AC
ENCODING 21164
SWIDTH 720 0
DWIDTH 12 0
BBX 12 12 0 -2
BITMAP
7380
6B00
7B60
DFF0
FB60
DB60
DB60
FB60
DB60
3660
F5E0
68C0
ENDCHAR
STARTCHAR 52AD
ENCODING 21165
SWIDTH 720 0
DWIDTH 12 0
BBX 12 12 0 -2
BITMAP
0D80
FD00
6D60
6FF0
4D60
7D60
9960
7D60
6A60
6AC0
7DC0
6980
ENDCHAR
STARTCHAR 52B1
ENCODING 21169
SWIDTH 720 0
DWIDTH 12 0
BBX 12 12 0 -2
BITMAP
4580
7F00
6160
7FF0
6160
7F60
6D60
6D60
6D60
4D60
BDE0
1AC0
ENDCHAR
STARTCHAR 52B4
ENCODING 21172
SWIDTH 720 0
DWIDTH 12 0
BBX 12 12 0 -2
BITMAP
36C0
52A0
FFF0
CC20
0CC0
7FE0
0CC0
0CC0
18C0
1180
2780
C300
ENDCHAR
STARTCHAR 52B5
ENCODING 21173
SWIDTH 720 0
DWIDTH 12 0
BBX 12 12 0 -2
BITMAP
36C0
1480
7FE0
0D20
FFF0
1F00
36F0
3FE0
CDA0
1980
1780
6300
ENDCHAR
STARTCHAR 52B9
ENCODING 21177
SWIDTH 720 0
DWIDTH 12 0
BBX 12 12 0 -2
BITMAP
3B80
3300
FF60
6BF0
4F60
CB60
3B60
3360
3A60
6EC0
45C0
9980
ENDCHAR
STARTCHAR 52BC
ENCODING 21180
SWIDTH 720 0
DWIDTH 12 0
BBX 12 12 0 -2
BITMAP
3B80
3300
FF60
37F0
3360
FF60
0360
7F60
6B60
6A60
7BC0
6CC0
ENDCHAR
STARTCHAR 52BE
ENCODING 21182
SWIDTH 720 0
DWIDTH 12 0
BBX 12 12 0 -2
BITMAP
39C0
3580
FDA0
37F0
ED60
5960
3560
2D60
D960
1E60
35E0
C6C0
ENDCHAR
STARTCHAR 52C1
ENCODING 21185
SWIDTH 720 0
DWIDTH 12 0
BBX 12 12 0 -2
BITMAP
0B80
FF00
5760
ABF0
FF60
5760
FF60
3360
3360
3EC0
F5C0
C980
ENDCHAR
STARTCHAR 52C3
ENCODING 21187
SWIDTH 720 0
DWIDTH 12 0
BBX 12 12 0 -2
BITMAP
3B80
3300
FF60
33F0
7F60
C760
7B60
1F60
FB60
B660
75E0
68C0
ENDCHAR
STARTCHAR 52C5
ENCODING 21189
SWIDTH 720 0
DWIDTH 12 0
BBX 12 12 0 -2
BITMAP
3B80
3300
FF60
37F0
FF60
B360
FF60
B360
7B60
76C0
B5C0
3980
ENDCHAR
STARTCHAR 52C7
ENCODING 21191
SWIDTH 720 0
DWIDTH 12 0
BBX 12 12 0 -2
BITMAP
0180
3FC0
0B00
3FC0
36C0
3FC0
36C0
FFE0
0CC0
18C0
3780
C300
ENDCHAR
STARTCHAR 52C9
ENCODING 21193
SWIDTH 720 0
DWIDTH 12 0
BBX 12 12 0 -2
BITMAP
6380
7B00
5B60
ABF0
FF60
DB60
FF60
5B60
7AE0
5CD0
5FF0
8FF0
ENDCHAR
STARTCHAR 52CD
ENCODING 21197
SWIDTH 720 0
DWIDTH 12 0
BBX 12 12 0 -2
BITMAP
3B80
3300
FF60
07F0
7B60
6B60
7B60
7360
FE60
B660
75C0
6980
ENDCHAR
STARTCHAR 52D2
ENCODING 21202
SWIDTH 720 0
DWIDTH 12 0
BBX 12 12 0 -2
BITMAP
6B80
FF00
6B60
7FF0
3360
FF60
B760
FF60
3260
FEC0
35C0
3980
ENDCHAR
STARTCHAR 52D5
ENCODING 21205
SWIDTH 720 0
DWIDTH 12 0
BBX 12 12 0 -2
BITMAP
1D80
F900
3560
FFF0
B560
FD60
B560
B560
FD60
3260
FFC0
C580
ENDCHAR
STARTCHAR 52D7
ENCODING 21207
SWIDTH 720 0
DWIDTH 12 0
BBX 12 12 0 -2
BITMAP
1180
1FC0
1980
1F80
5980
7F80
6D60
7FF0
6D60
7D60
EDE0
CEC0
ENDCHAR
STARTCHAR 52D8
ENCODING 21208
SWIDTH 720 0
DWIDTH 12 0
BBX 12 12 0 -2
BITMAP
6DC0
FF80
6DA0
7FF0
6D60
7D60
6D60
FF60
DD60
ED60
FEE0
C4C0
ENDCHAR
STARTCHAR 52D9
ENCODING 21209
SWIDTH 720 0
DWIDTH 12 0
BBX 12 12 0 -2
BITMAP
0B80
FF60
5BF0
36C0
2D80
FF70
7B60
7FF0
B360
3660
F5E0
68C0
ENDCHAR
STARTCHAR 52DD
ENCODING 21213
SWIDTH 720 0
DWIDTH 12 0
BBX 12 12 0 -2
BITMAP
5DA0
7BC0
5FE0
59A0
7FF0
5B40
5BF0
7DB0
5FE0
5B60
7AE0
B4C0
ENDCHAR
STARTCHAR 52DE
ENCODING 21214
SWIDTH 720 0
DWIDTH 12 0
BBX 12 12 0 -2
BITMAP
1DC0
5BB0
DFA0
3540
4660
FFF0
CC20
7FC0
0CC0
18C0
1780
6300
ENDCHAR
STARTCHAR 52DF
ENCODING 21215
SWIDTH 720 0
DWIDTH 12 0
BBX 12 12 0 -2
BITMAP
19A0
FFF0
1980
3FC0
30C0
3FC0
36C0
FFF0
3680
DFF0
0DA0
3B00
ENDCHAR
STARTCHAR 52E0
ENCODING 21216
SWIDTH 720 0
DWIDTH 12 0
BBX 12 12 0 -2
BITMAP
3580
FD00
B560
7FF0
B560
7D60
D960
2F60
D560
2E60
DBE0
64C0
ENDCHAR
STARTCHAR 52E2
ENCODING 21218
SWIDTH 720 0
DWIDTH 12 0
BBX 12 12 0 -2
BITMAP
3300
FEC0
33E0
FEC0
5BD0
DB60
3DB0
EC70
BFE0
0CC0
1BC0
6180
ENDCHAR
STARTCHAR 52E3
ENCODING 21219
SWIDTH 720 0
DWIDTH 12 0
BBX 12 12 0 -2
BITMAP
3580
FF00
3560
7FF0
3160
FF60
6D60
7D60
6D60
7D60
6EC0
C6C0
ENDCHAR
STARTCHAR 52E4
ENCODING 21220
SWIDTH 720 0
DWIDTH 12 0
BBX 12 12 0 -2
BITMAP
6B80
FF00
6B60
FFF0
B760
FF60
3360
FF60
3360
FE60
37E0
FCC0
ENDCHAR
STARTCHAR 52E6
ENCODING 21222
SWIDTH 720 0
DWIDTH 12 0
BBX 12 12 0 -2
BITMAP
F780
5500
FD60
B7F0
FD60
B560
FD60
3160
FF60
7A60
77E0
B4C0
ENDCHAR
STARTCHAR 52E7
ENCODING 21223
SWIDTH 720 0
DWIDTH 12 0
BBX 12 12 0 -2
BITMAP
39C0
3580
7DA0
47F0
FD60
3560
7F60
E960
7F60
6960
7EE0
44C0
ENDCHAR
STARTCHAR 52F2
ENCODING 21234
SWIDTH 720 0
DWIDTH 12 0
BBX 12 12 0 -2
BITMAP
1D80
F900
3560
FFF0
B560
FD60
B560
FD60
32E0
FEC0
5B60
CDB0
ENDCHAR
STARTCHAR 52F3
ENCODING 21235
SWIDTH 720 0
DWIDTH 12 0
BBX 12 12 0 -2
BITMAP
1D80
F900
3560
FFF0
B560
FD60
B560
FD60
3260
FF60
6DE0
DAC0
ENDCHAR
STARTCHAR 52F5
ENCODING 21237
SWIDTH 720 0
DWIDTH 12 0
BBX 12 12 0 -2
BITMAP
4580
7F00
7560
7FF0
6B60
7F60
6B60
7F60
6B60
BF60
BAE0
26C0
ENDCHAR
STARTCHAR 52F8
ENCODING 21240
SWIDTH 720 0
DWIDTH 12 0
BBX 12 12 0 -2
BITMAP
2B80
FF00
2B60
FFF0
DB60
FF60
2F60
6B60
FF60
6A60
7FE0
6CC0
ENDCHAR
STARTCHAR 52F9
ENCODING 21241
SWIDTH 720 0
DWIDTH 12 0
BBX 12 12 0 -2
BITMAP
1C00
1860
1FF0
3060
2060
4060
8060
0060
00C0
00C0
0780
0300
ENDCHAR
STARTCHAR 52FA
ENCODING 21242
SWIDTH 720 0
DWIDTH 12 0
BBX 12 12 0 -2
BITMAP
1C00
1860
3FF0
3060
4860
8C60
0C60
0060
00C0
00C0
0780
0300
ENDCHAR
STARTCHAR 52FE
ENCODING 21246
SWIDTH 720 0
DWIDTH 12 0
BBX 12 12 0 -2
BITMAP
1C00
1860
3FF0
2060
4C60
8C60
1A60
1360
7F60
30C0
03C0
0180
ENDCHAR
STARTCHAR 52FF
ENCODING 21247
SWIDTH 720 0
DWIDTH 12 0
BBX 12 12 0 -2
BITMAP
1C00
1860
3FF0
2B60
5B60
9B60
1260
2660
4460
08C0
33C0
0180
ENDCHAR
STARTCHAR 5301
ENCODING 21249
SWIDTH 720 0
DWIDTH 12 0
BBX 12 12 0 -2
BITMAP
1C00
18C0
3FE0
26C0
56C0
9CC0
0CC0
1AC0
3380
C1F0
0F60
0600
ENDCHAR
STARTCHAR 5302
ENCODING 21250
SWIDTH 720 0
DWIDTH 12 0
BBX 12 12 0 -2
BITMAP
1C00
1860
3FF0
2060
7660
B660
3C60
3260
3F60
1EC0
01C0
0180
ENDCHAR
STARTCHAR 5305
ENCODING 21253
SWIDTH 720 0
DWIDTH 12 0
BBX 12 12 0 -2
BITMAP
1C00
18C0
3FE0
30C0
7EC0
86C0
3EC0
33C0
31A0
3020
3FF0
1FF0
ENDCHAR
STARTCHAR 5306
ENCODING 21254
SWIDTH 720 0
DWIDTH 12 0
BBX 12 12 0 -2
BITMAP
1C00
1860
3FF0
37E0
7560
9D60
0E60
1360
65E0
08C0
33C0
0180
ENDCHAR
STARTCHAR 5308
ENCODING 21256
SWIDTH 720 0
DWIDTH 12 0
BBX 12 12 0 -2
BITMAP
1C00
1860
3FF0
3660
77E0
BB60
3F60
3760
3F60
33C0
03C0
0180
ENDCHAR
STARTCHAR 530D
ENCODING 21261
SWIDTH 720 0
DWIDTH 12 0
BBX 12 12 0 -2
BITMAP
1C00
1860
3FF0
6D60
BFE0
0C60
3FE0
2D60
3F60
2D60
3FE0
2D40
ENDCHAR
STARTCHAR 530F
ENCODING 21263
SWIDTH 720 0
DWIDTH 12 0
BBX 12 12 0 -2
BITMAP
3B80
3360
FFF0
3260
6FE0
94E0
FFE0
6360
FBC0
1B20
7BF0
31F0
ENDCHAR
STARTCHAR 5310
ENCODING 21264
SWIDTH 720 0
DWIDTH 12 0
BBX 12 12 0 -2
BITMAP
1C00
1860
3FF0
2160
7FE0
9A60
3FE0
2D60
3F60
2DC0
3FC0
2180
ENDCHAR
STARTCHAR 5315
ENCODING 21269
SWIDTH 720 0
DWIDTH 12 0
BBX 12 12 0 -2
BITMAP
1C00
1800
1880
19C0
1B80
1E00
1800
7800
1840
1840
1FE0
0FE0
ENDCHAR
STARTCHAR 5316
ENCODING 21270
SWIDTH 720 0
DWIDTH 12 0
BBX 12 12 0 -2
BITMAP
1B80
1B00
1B00
3360
3360
73C0
B300
3300
3320
3320
33F0
31F0
ENDCHAR
STARTCHAR 5317
ENCODING 21271
SWIDTH 720 0
DWIDTH 12 0
BBX 12 12 0 -2
BITMAP
1F80
1B00
1B60
FB60
1BC0
1B00
3B00
FB20
DB20
1BF0
19F0
1800
ENDCHAR
STARTCHAR 5319
ENCODING 21273
SWIDTH 720 0
DWIDTH 12 0
BBX 12 12 0 -2
BITMAP
4C00
7FC0
6DB0
7DB0
6DE0
FF80
59A0
7FF0
58F0
7800
5FF0
8FF0
ENDCHAR
STARTCHAR 531A
ENCODING 21274
SWIDTH 720 0
DWIDTH 12 0
BBX 12 12 0 -2
BITMAP
40C0
7FE0
6000
6000
6000
6000
6000
6000
6000
6060
7FF0
6000
ENDCHAR
STARTCHAR 531D
ENCODING 21277
SWIDTH 720 0
DWIDTH 12 0
BBX 12 12 0 -2
BITMAP
40C0
7FE0
6300
6B40
6FE0
6B40
6B40
6BC0
6B40
6360
7FF0
6000
ENDCHAR
STARTCHAR 5320
ENCODING 21280
SWIDTH 720 0
DWIDTH 12 0
BBX 12 12 0 -2
BITMAP
40C0
7FE0
68C0
6F80
6C40
6FE0
6D80
6D80
6980
71A0
7FF0
6000
ENDCHAR
STARTCHAR 5321
ENCODING 21281
SWIDTH 720 0
DWIDTH 12 0
BBX 12 12 0 -2
BITMAP
4060
7FF0
6000
7FE0
6300
6FC0
6300
6340
7FE0
6020
7FF0
6000
ENDCHAR
STARTCHAR 5323
ENCODING 21283
SWIDTH 720 0
DWIDTH 12 0
BBX 12 12 0 -2
BITMAP
40C0
7FE0
6000
6FC0
6B40
6FC0
6B40
6FC0
6B40
6360
7FF0
6000
ENDCHAR
STARTCHAR 532A
ENCODING 21290
SWIDTH 720 0
DWIDTH 12 0
BBX 12 12 0 -2
BITMAP
4060
7FF0
6D80
7DE0
6D80
7DE0
6D80
7DE0
6D80
69A0
7FF0
6000
ENDCHAR
STARTCHAR 532F
ENCODING 21295
SWIDTH 720 0
DWIDTH 12 0
BBX 12 12 0 -2
BITMAP
40C0
7FE0
73C0
6A80
7BE0
6740
6BE0
7B40
6BE0
6820
7FF0
6000
ENDCHAR
STARTCHAR 5331
ENCODING 21297
SWIDTH 720 0
DWIDTH 12 0
BBX 12 12 0 -2
BITMAP
4060
7FF0
6B40
7FF0
6CC0
6FC0
6CC0
6FC0
6480
6CE0
7FF0
6000
ENDCHAR
STARTCHAR 5333
ENCODING 21299
SWIDTH 720 0
DWIDTH 12 0
BBX 12 12 0 -2
BITMAP
40C0
7FE0
6200
6700
64F0
7FE0
6AC0
6FC0
66C0
6B60
7FF0
6000
ENDCHAR
STARTCHAR 5338
ENCODING 21304
SWIDTH 720 0
DWIDTH 12 0
BBX 12 12 0 -2
BITMAP
0000
0060
FFF0
6000
6000
6000
6000
6000
6000
6000
7FF0
3FF0
ENDCHAR
STARTCHAR 5339
ENCODING 21305
SWIDTH 720 0
DWIDTH 12 0
BBX 12 12 0 -2
BITMAP
0000
80C0
FFE0
DB00
DB00
DB40
DB40
D3E0
E1E0
C040
FFF0
C000
ENDCHAR
STARTCHAR 533A
ENCODING 21306
SWIDTH 720 0
DWIDTH 12 0
BBX 12 12 0 -2
BITMAP
40C0
7FE0
6080
71C0
6D80
6700
6300
6580
79C0
6060
7FF0
6000
ENDCHAR
STARTCHAR 533B
ENCODING 21307
SWIDTH 720 0
DWIDTH 12 0
BBX 12 12 0 -2
BITMAP
40C0
7FE0
6C00
6FC0
6B00
7FE0
6300
66C0
64C0
6860
7FF0
6000
ENDCHAR
STARTCHAR 533F
ENCODING 21311
SWIDTH 720 0
DWIDTH 12 0
BBX 12 12 0 -2
BITMAP
40C0
7FE0
6D80
7FC0
6640
7FE0
6600
6FC0
7D80
6DA0
7FF0
6000
ENDCHAR
STARTCHAR 5340
ENCODING 21312
SWIDTH 720 0
DWIDTH 12 0
BBX 12 12 0 -2
BITMAP
40C0
7FE0
6480
67C0
6580
77A0
7DF0
7560
7DE0
6020
7FF0
6000
ENDCHAR
STARTCHAR 5341
ENCODING 21313
SWIDTH 720 0
DWIDTH 12 0
BBX 12 12 0 -2
BITMAP
0700
0600
0600
0600
0660
FFF0
0600
0600
0600
0600
0600
0600
ENDCHAR
STARTCHAR 5343
ENCODING 21315
SWIDTH 720 0
DWIDTH 12 0
BBX 12 12 0 -2
BITMAP
0180
0FC0
7E00
0600
0660
FFF0
0600
0600
0600
0600
0600
0600
ENDCHAR
STARTCHAR 5345
ENCODING 21317
SWIDTH 720 0
DWIDTH 12 0
BBX 12 12 0 -2
BITMAP
3FE0
36C0
36C0
36E0
FFF0
36C0
36C0
36C0
36C0
26C0
26C0
46C0
ENDCHAR
STARTCHAR 5346
ENCODING 21318
SWIDTH 720 0
DWIDTH 12 0
BBX 12 12 0 -2
BITMAP
0E00
0D80
7FC0
0DA0
19A0
31F0
C6F0
0620
FFF0
0600
0600
0600
ENDCHAR
STARTCHAR 5347
ENCODING 21319
SWIDTH 720 0
DWIDTH 12 0
BBX 12 12 0 -2
BITMAP
0DC0
1D80
F980
1980
19A0
FFF0
1980
1980
1180
3180
2180
C180
ENDCHAR
STARTCHAR 5348
ENCODING 21320
SWIDTH 720 0
DWIDTH 12 0
BBX 12 12 0 -2
BITMAP
3800
30C0
3FE0
6600
4600
8660
FFF0
0600
0600
0600
0600
0600
ENDCHAR
STARTCHAR 5349
ENCODING 21321
SWIDTH 720 0
DWIDTH 12 0
BBX 12 12 0 -2
BITMAP
0700
06C0
7FE0
0600
3FC0
3780
31A0
FFF0
3180
3180
2180
C180
ENDCHAR
STARTCHAR 534A
ENCODING 21322
SWIDTH 720 0
DWIDTH 12 0
BBX 12 12 0 -2
BITMAP
4740
36E0
3680
0740
7FE0
0600
0660
FFF0
0600
0600
0600
0600
ENDCHAR
STARTCHAR 534D
ENCODING 21325
SWIDTH 720 0
DWIDTH 12 0
BBX 12 12 0 -2
BITMAP
0670
FF60
0660
0660
4660
7FE0
6660
6600
6600
6660
67F0
6600
ENDCHAR
STARTCHAR 5351
ENCODING 21329
SWIDTH 720 0
DWIDTH 12 0
BBX 12 12 0 -2
BITMAP
0E00
2CC0
3FE0
36C0
3FC0
36C0
3FC0
1B00
1360
FFF0
0300
0300
ENDCHAR
STARTCHAR 5352
ENCODING 21330
SWIDTH 720 0
DWIDTH 12 0
BBX 12 12 0 -2
BITMAP
0700
06C0
7FE0
1980
1980
36C0
4660
FFF0
0600
0600
0600
0600
ENDCHAR
STARTCHAR 5353
ENCODING 21331
SWIDTH 720 0
DWIDTH 12 0
BBX 12 12 0 -2
BITMAP
0640
07E0
2600
3FE0
30C0
3FC0
30C0
3FC0
0660
FFF0
0600
0600
ENDCHAR
STARTCHAR 5354
ENCODING 21332
SWIDTH 720 0
DWIDTH 12 0
BBX 12 12 0 -2
BITMAP
7700
66C0
6FE0
FEC0
66C0
6DC0
6AA0
7FF0
6AA0
6AA0
7FE0
6540
ENDCHAR
STARTCHAR 5357
ENCODING 21335
SWIDTH 720 0
DWIDTH 12 0
BBX 12 12 0 -2
BITMAP
0700
0660
FFF0
0600
7FF0
6B60
7FE0
6660
7FE0
6660
66E0
66C0
ENDCHAR
STARTCHAR 5358
ENCODING 21336
SWIDTH 720 0
DWIDTH 12 0
BBX 12 12 0 -2
BITMAP
36C0
1280
3FC0
36C0
3FC0
36C0
3FC0
0660
FFF0
0600
0600
0600
ENDCHAR
STARTCHAR 535A
ENCODING 21338
SWIDTH 720 0
DWIDTH 12 0
BBX 12 12 0 -2
BITMAP
39E0
31A0
3FF0
FDA0
37E0
35A0
37E0
30D0
3FF0
34C0
37C0
3180
ENDCHAR
STARTCHAR 535C
ENCODING 21340
SWIDTH 720 0
DWIDTH 12 0
BBX 12 12 0 -2
BITMAP
0700
0600
0600
0600
0780
06E0
0660
0600
0600
0600
0600
0600
ENDCHAR
STARTCHAR 535E
ENCODING 21342
SWIDTH 720 0
DWIDTH 12 0
BBX 12 12 0 -2
BITMAP
0700
0660
FFF0
0600
0780
06E0
0660
0600
0600
0600
0600
0600
ENDCHAR
STARTCHAR 5360
ENCODING 21344
SWIDTH 720 0
DWIDTH 12 0
BBX 12 12 0 -2
BITMAP
0700
0600
06C0
07E0
0600
26C0
3FE0
30C0
30C0
30C0
3FC0
30C0
ENDCHAR
STARTCHAR 5366
ENCODING 21350
SWIDTH 720 0
DWIDTH 12 0
BBX 12 12 0 -2
BITMAP
1DC0
1980
7F80
1980
FFE0
19B0
19B0
7F80
1980
1F80
F980
6180
ENDCHAR
STARTCHAR 5369
ENCODING 21353
SWIDTH 720 0
DWIDTH 12 0
BBX 12 12 0 -2
BITMAP
1180
1FC0
1980
1980
1980
1980
1980
1F80
1B00
1800
1800
1800
ENDCHAR
STARTCHAR 536E
ENCODING 21358
SWIDTH 720 0
DWIDTH 12 0
BBX 12 12 0 -2
BITMAP
00C0
23E0
3F00
3060
3FF0
3040
3FE0
2CC0
6DC0
4CA0
8FF0
07F0
ENDCHAR
STARTCHAR 536F
ENCODING 21359
SWIDTH 720 0
DWIDTH 12 0
BBX 12 12 0 -2
BITMAP
0C00
9E60
F3F0
DF60
DB60
DB60
DB60
FB60
DBE0
9B60
1300
6300
ENDCHAR
STARTCHAR 5370
ENCODING 21360
SWIDTH 720 0
DWIDTH 12 0
BBX 12 12 0 -2
BITMAP
0600
4E60
7BF0
6360
6B60
7F60
6360
6B60
7FE0
6360
6300
0300
ENDCHAR
STARTCHAR 5371
ENCODING 21361
SWIDTH 720 0
DWIDTH 12 0
BBX 12 12 0 -2
BITMAP
1980
1F80
3260
3FF0
F440
37E0
36C0
37C0
66C0
4620
87F0
03F0
ENDCHAR
STARTCHAR 5373
ENCODING 21363
SWIDTH 720 0
DWIDTH 12 0
BBX 12 12 0 -2
BITMAP
4A60
7FF0
6B60
7B60
6B60
7B60
7360
6B60
7FE0
E760
C300
0300
ENDCHAR
STARTCHAR 5374
ENCODING 21364
SWIDTH 720 0
DWIDTH 12 0
BBX 12 12 0 -2
BITMAP
3A60
33F0
FF60
3360
3360
FF60
3360
6B60
4FE0
FF60
CB00
0300
ENDCHAR
STARTCHAR 5375
ENCODING 21365
SWIDTH 720 0
DWIDTH 12 0
BBX 12 12 0 -2
BITMAP
0C00
9E60
F3F0
DB60
FBE0
FBE0
DB60
DB60
FBE0
DB60
1300
6300
ENDCHAR
STARTCHAR 5377
ENCODING 21367
SWIDTH 720 0
DWIDTH 12 0
BBX 12 12 0 -2
BITMAP
36C0
1480
7FE0
0D40
FFF0
1900
1FF0
3B60
DB20
1840
1FE0
0FE0
ENDCHAR
STARTCHAR 5378
ENCODING 21368
SWIDTH 720 0
DWIDTH 12 0
BBX 12 12 0 -2
BITMAP
7000
6B60
7FF0
9B60
FF60
1B60
FB60
DF60
DBE0
DF60
F300
C300
ENDCHAR
STARTCHAR 537B
ENCODING 21371
SWIDTH 720 0
DWIDTH 12 0
BBX 12 12 0 -2
BITMAP
6A60
4FF0
7760
BB60
2B60
6760
7F60
EB60
6BE0
6B60
7B00
6B00
ENDCHAR
STARTCHAR 537F
ENCODING 21375
SWIDTH 720 0
DWIDTH 12 0
BBX 12 12 0 -2
BITMAP
3360
FFF0
DB60
DF60
DB60
DF60
DB60
FBE0
AF60
7F00
5B00
8300
ENDCHAR
STARTCHAR 5382
ENCODING 21378
SWIDTH 720 0
DWIDTH 12 0
BBX 12 12 0 -2
BITMAP
2060
3FF0
3000
3000
3000
3000
3000
3000
2000
6000
4000
8000
ENDCHAR
STARTCHAR 5384
ENCODING 21380
SWIDTH 720 0
DWIDTH 12 0
BBX 12 12 0 -2
BITMAP
2060
3FF0
3000
37E0
36C0
36C0
36C0
27C0
66E0
4620
87F0
03F0
ENDCHAR
STARTCHAR 5396
ENCODING 21398
SWIDTH 720 0
DWIDTH 12 0
BBX 12 12 0 -2
BITMAP
2060
3FF0
3700
36C0
3FB0
36E0
3750
2FB0
6B60
5BA0
93F0
61F0
ENDCHAR
STARTCHAR 5398
ENCODING 21400
SWIDTH 720 0
DWIDTH 12 0
BBX 12 12 0 -2
BITMAP
3FE0
3000
3FC0
36C0
3FC0
36C0
3FC0
3640
7FE0
4620
BFF0
0000
ENDCHAR
STARTCHAR 539A
ENCODING 21402
SWIDTH 720 0
DWIDTH 12 0
BBX 12 12 0 -2
BITMAP
2060
3FF0
3440
37E0
36C0
37C0
36C0
37C0
61A0
7FF0
8300
0700
ENDCHAR
STARTCHAR 539F
ENCODING 21407
SWIDTH 720 0
DWIDTH 12 0
BBX 12 12 0 -2
BITMAP
2060
3FF0
3300
37C0
36C0
37C0
36C0
27C0
6B00
5B60
9730
6630
ENDCHAR
STARTCHAR 53A0
ENCODING 21408
SWIDTH 720 0
DWIDTH 12 0
BBX 12 12 0 -2
BITMAP
4060
7FF0
6900
6F70
6B60
6F60
6B60
6F60
6B60
4F60
9BE0
31C0
ENDCHAR
STARTCHAR 53A5
ENCODING 21413
SWIDTH 720 0
DWIDTH 12 0
BBX 12 12 0 -2
BITMAP
4060
7FF0
76C0
6DA0
7FF0
6D60
6DC0
7F80
6D40
5B70
9260
2420
ENDCHAR
STARTCHAR 53A6
ENCODING 21414
SWIDTH 720 0
DWIDTH 12 0
BBX 12 12 0 -2
BITMAP
2060
3FF0
3040
3FE0
36C0
37C0
36C0
37C0
6D80
5B00
86F0
3860
ENDCHAR
STARTCHAR 53A8
ENCODING 21416
SWIDTH 720 0
DWIDTH 12 0
BBX 12 12 0 -2
BITMAP
4060
7FF0
6200
6F70
6060
6FF0
6B60
6FE0
5A60
4B60
BDE0
18C0
ENDCHAR
STARTCHAR 53A9
ENCODING 21417
SWIDTH 720 0
DWIDTH 12 0
BBX 12 12 0 -2
BITMAP
4060
7FF0
6000
6FE0
6AC0
6ED0
6BF0
6EC0
69C0
5F50
9970
0630
ENDCHAR
STARTCHAR 53AD
ENCODING 21421
SWIDTH 720 0
DWIDTH 12 0
BBX 12 12 0 -2
BITMAP
40C0
7FE0
6000
7DE0
6DA0
7FF0
6D80
7D80
6DC0
7D70
AD60
2E20
ENDCHAR
STARTCHAR 53AE
ENCODING 21422
SWIDTH 720 0
DWIDTH 12 0
BBX 12 12 0 -2
BITMAP
4060
7FF0
6D60
6DC0
7F20
6DF0
6F60
6D60
7F60
4B60
9B60
6660
ENDCHAR
STARTCHAR 53B0
ENCODING 21424
SWIDTH 720 0
DWIDTH 12 0
BBX 12 12 0 -2
BITMAP
4060
7FF0
6AC0
7EC0
6DA0
7FF0
6760
7EE0
76C0
7EF0
A6A0
2F20
ENDCHAR
STARTCHAR 53B3
ENCODING 21427
SWIDTH 720 0
DWIDTH 12 0
BBX 12 12 0 -2
BITMAP
36C0
52A0
7FF0
6180
7FA0
6DF0
7F60
7B60
5FC0
5B70
BFA0
3320
ENDCHAR
STARTCHAR 53B6
ENCODING 21430
SWIDTH 720 0
DWIDTH 12 0
BBX 12 12 0 -2
BITMAP
0700
0600
0600
0600
0C00
0C00
1900
1080
2040
FFE0
7C70
4030
ENDCHAR
STARTCHAR 53BB
ENCODING 21435
SWIDTH 720 0
DWIDTH 12 0
BBX 12 12 0 -2
BITMAP
0700
06C0
7FE0
0600
0660
FFF0
0600
0D00
0880
17C0
7C60
3060
ENDCHAR
STARTCHAR 53C2
ENCODING 21442
SWIDTH 720 0
DWIDTH 12 0
BBX 12 12 0 -2
BITMAP
0E00
0900
7FC0
3640
FFF0
1A80
37F0
DA60
0580
3B00
0600
3800
ENDCHAR
STARTCHAR 53C3
ENCODING 21443
SWIDTH 720 0
DWIDTH 12 0
BBX 12 12 0 -2
BITMAP
0D00
18C0
7FE0
31C0
5A60
FFF0
DB00
3EF0
E360
3DA0
0300
1C00
ENDCHAR
STARTCHAR 53C8
ENCODING 21448
SWIDTH 720 0
DWIDTH 12 0
BBX 12 12 0 -2
BITMAP
0000
0180
7FC0
1180
1180
0B00
0B00
0600
0700
09F0
30E0
C020
ENDCHAR
STARTCHAR 53C9
ENCODING 21449
SWIDTH 720 0
DWIDTH 12 0
BBX 12 12 0 -2
BITMAP
0180
7FC0
2980
2D80
1580
1B00
0B00
0600
0F00
09F0
30E0
C020
ENDCHAR
STARTCHAR 53CA
ENCODING 21450
SWIDTH 720 0
DWIDTH 12 0
BBX 12 12 0 -2
BITMAP
0180
7FC0
1980
1B40
1FE0
1CC0
14C0
3380
2300
47F0
8CE0
7020
ENDCHAR
STARTCHAR 53CB
ENCODING 21451
SWIDTH 720 0
DWIDTH 12 0
BBX 12 12 0 -2
BITMAP
0E00
0C60
FFF0
0C00
0FC0
0D80
1D80
1B00
3700
4DF0
98E0
6020
ENDCHAR
STARTCHAR 53CC
ENCODING 21452
SWIDTH 720 0
DWIDTH 12 0
BBX 12 12 0 -2
BITMAP
18C0
FFE0
1AC0
1AC0
7AC0
1180
3D80
3580
2740
6270
4460
8820
ENDCHAR
STARTCHAR 53CD
ENCODING 21453
SWIDTH 720 0
DWIDTH 12 0
BBX 12 12 0 -2
BITMAP
2060
3FF0
3000
3180
3FC0
3580
3580
2700
6600
4DF0
98E0
6020
ENDCHAR
STARTCHAR 53CE
ENCODING 21454
SWIDTH 720 0
DWIDTH 12 0
BBX 12 12 0 -2
BITMAP
1C00
78C0
5FE0
5AC0
5AC0
5A80
5980
7900
D980
DAF0
1C60
1820
ENDCHAR
STARTCHAR 53D4
ENCODING 21460
SWIDTH 720 0
DWIDTH 12 0
BBX 12 12 0 -2
BITMAP
38C0
33E0
3EC0
32C0
FEC0
3180
B980
FD80
B540
B170
7260
6C20
ENDCHAR
STARTCHAR 53D6
ENCODING 21462
SWIDTH 720 0
DWIDTH 12 0
BBX 12 12 0 -2
BITMAP
0400
FE60
6FF0
7D60
6D60
7D40
6CC0
7C80
6DC0
ED70
CE60
0C20
ENDCHAR
STARTCHAR 53D7
ENCODING 21463
SWIDTH 720 0
DWIDTH 12 0
BBX 12 12 0 -2
BITMAP
00E0
7FC0
12C0
5B20
FFF0
C060
3FC0
1180
0B00
0FF0
18E0
E020
ENDCHAR
STARTCHAR 53D9
ENCODING 21465
SWIDTH 720 0
DWIDTH 12 0
BBX 12 12 0 -2
BITMAP
3000
38C0
4FE0
7AC0
B2C0
FEC0
3180
F980
BD80
B170
7260
6C20
ENDCHAR
STARTCHAR 53DB
ENCODING 21467
SWIDTH 720 0
DWIDTH 12 0
BBX 12 12 0 -2
BITMAP
3460
BFF0
F600
36C0
FFE0
36C0
3FC0
F680
AD80
6B70
5260
8C20
ENDCHAR
STARTCHAR 53DF
ENCODING 21471
SWIDTH 720 0
DWIDTH 12 0
BBX 12 12 0 -2
BITMAP
2CC0
3FE0
36C0
3FC0
36C0
3FC0
0600
7FC0
1180
0F00
19F0
E060
ENDCHAR
STARTCHAR 53E1
ENCODING 21473
SWIDTH 720 0
DWIDTH 12 0
BBX 12 12 0 -2
BITMAP
1C00
5A60
FFF0
D560
7D60
AB40
7DC0
7680
BCC0
3570
3D60
3620
ENDCHAR
STARTCHAR 53E2
ENCODING 21474
SWIDTH 720 0
DWIDTH 12 0
BBX 12 12 0 -2
BITMAP
5B40
3BA0
FFF0
1980
7FC0
0660
FFF0
6C40
7FE0
6D40
FDF0
CE60
ENDCHAR
STARTCHAR 53E3
ENCODING 21475
SWIDTH 720 0
DWIDTH 12 0
BBX 12 12 0 -2
BITMAP
0000
40C0
7FE0
60C0
60C0
60C0
60C0
60C0
60C0
60C0
7FC0
60C0
ENDCHAR
STARTCHAR 53E4
ENCODING 21476
SWIDTH 720 0
DWIDTH 12 0
BBX 12 12 0 -2
BITMAP
0700
0600
0660
FFF0
0600
0600
26C0
3FE0
30C0
30C0
3FC0
30C0
ENDCHAR
STARTCHAR 53E5
ENCODING 21477
SWIDTH 720 0
DWIDTH 12 0
BBX 12 12 0 -2
BITMAP
3800
3060
3FF0
6060
6660
BF60
3660
3660
3E60
20C0
03C0
0180
ENDCHAR
STARTCHAR 53E8
ENCODING 21480
SWIDTH 720 0
DWIDTH 12 0
BBX 12 12 0 -2
BITMAP
0000
9860
FFF0
DB60
DB60
DB60
DB60
FA60
CE60
04C0
0BC0
1180
ENDCHAR
STARTCHAR 53E9
ENCODING 21481
SWIDTH 720 0
DWIDTH 12 0
BBX 12 12 0 -2
BITMAP
0000
9A60
FFF0
DB60
DB60
DB60
DB60
FBE0
DB60
0300
0300
0300
ENDCHAR
STARTCHAR 53EA
ENCODING 21482
SWIDTH 720 0
DWIDTH 12 0
BBX 12 12 0 -2
BITMAP
20C0
3FE0
30C0
30C0
30C0
3FC0
30C0
1900
18C0
3060
2030
C030
ENDCHAR
STARTCHAR 53EB
ENCODING 21483
SWIDTH 720 0
DWIDTH 12 0
BBX 12 12 0 -2
BITMAP
00E0
97C0
FEC0
D6C0
D6C0
D6D0
D6F0
F7C0
DEC0
00C0
00C0
00C0
ENDCHAR
STARTCHAR 53EC
ENCODING 21484
SWIDTH 720 0
DWIDTH 12 0
BBX 12 12 0 -2
BITMAP
0060
FFF0
0C60
0C60
18C0
33C0
C180
3FC0
3180
3180
3F80
3180
ENDCHAR
STARTCHAR 53ED
ENCODING 21485
SWIDTH 720 0
DWIDTH 12 0
BBX 12 12 0 -2
BITMAP
0480
9780
FE80
D680
D680
D680
D680
F4C0
DC40
0870
1060
2020
ENDCHAR
STARTCHAR 53EE
ENCODING 21486
SWIDTH 720 0
DWIDTH 12 0
BBX 12 12 0 -2
BITMAP
0060
9FF0
F980
D980
D980
D980
D980
F980
D980
0180
0780
0300
ENDCHAR
STARTCHAR 53EF
ENCODING 21487
SWIDTH 720 0
DWIDTH 12 0
BBX 12 12 0 -2
BITMAP
0060
FFF0
00C0
26C0
3EC0
36C0
36C0
3EC0
36C0
00C0
03C0
0180
ENDCHAR
STARTCHAR 53F0
ENCODING 21488
SWIDTH 720 0
DWIDTH 12 0
BBX 12 12 0 -2
BITMAP
0600
0600
0C80
0840
FFE0
7030
20F0
3FC0
30C0
30C0
3FC0
30C0
ENDCHAR
STARTCHAR 53F1
ENCODING 21489
SWIDTH 720 0
DWIDTH 12 0
BBX 12 12 0 -2
BITMAP
0700
9600
F600
D660
D6E0
D780
DE00
F600
D620
0620
07F0
03F0
ENDCHAR
STARTCHAR 53F2
ENCODING 21490
SWIDTH 720 0
DWIDTH 12 0
BBX 12 12 0 -2
BITMAP
0700
4660
7FF0
6660
6660
7FE0
6660
1600
0E00
1BF0
30E0
C020
ENDCHAR
STARTCHAR 53F3
ENCODING 21491
SWIDTH 720 0
DWIDTH 12 0
BBX 12 12 0 -2
BITMAP
0E00
0C60
FFF0
0C00
1800
10C0
3FE0
D8C0
18C0
18C0
1FC0
18C0
ENDCHAR
STARTCHAR 53F6
ENCODING 21494
SWIDTH 720 0
DWIDTH 12 0
BBX 12 12 0 -2
BITMAP
01C0
9180
F980
D1A0
DFF0
D180
D180
F180
D180
0180
0180
0180
ENDCHAR
STARTCHAR 53F7
ENCODING 21495
SWIDTH 720 0
DWIDTH 12 0
BBX 12 12 0 -2
BITMAP
1180
1FC0
1980
1F80
0060
FFF0
0C00
1FC0
1980
0180
0F00
0600
ENDCHAR
STARTCHAR 53F8
ENCODING 21496
SWIDTH 720 0
DWIDTH 12 0
BBX 12 12 0 -2
BITMAP
0060
FFF0
0260
7F60
0060
3F60
3660
3660
3E60
3660
01E0
00C0
ENDCHAR
STARTCHAR 53FA
ENCODING 21498
SWIDTH 720 0
DWIDTH 12 0
BBX 12 12 0 -2
BITMAP
0300
9F80
F100
D100
D380
D280
D680
F680
D4C0
0C70
0860
3020
ENDCHAR
STARTCHAR 5401
ENCODING 21505
SWIDTH 720 0
DWIDTH 12 0
BBX 12 12 0 -2
BITMAP
00C0
9FE0
F980
D980
D9A0
DFF0
D980
F980
D980
0180
0780
0300
ENDCHAR
STARTCHAR 5403
ENCODING 21507
SWIDTH 720 0
DWIDTH 12 0
BBX 12 12 0 -2
BITMAP
0700
9660
FFF0
D800
D180
DFC0
D300
F600
CC20
0C20
0FF0
07F0
ENDCHAR
STARTCHAR 5404
ENCODING 21508
SWIDTH 720 0
DWIDTH 12 0
BBX 12 12 0 -2
BITMAP
0E00
0D80
1FC0
1980
3700
CD80
18F0
3FE0
D9A0
1980
1F80
1980
ENDCHAR
STARTCHAR 5408
ENCODING 21512
SWIDTH 720 0
DWIDTH 12 0
BBX 12 12 0 -2
BITMAP
0C00
0E00
1A00
1180
3FF0
C060
2180
3FC0
3180
3180
3F80
3180
ENDCHAR
STARTCHAR 5409
ENCODING 21513
SWIDTH 720 0
DWIDTH 12 0
BBX 12 12 0 -2
BITMAP
0700
0660
FFF0
0600
06C0
7FE0
0000
3FE0
30C0
30C0
3FC0
30C0
ENDCHAR
STARTCHAR 540A
ENCODING 21514
SWIDTH 720 0
DWIDTH 12 0
BBX 12 12 0 -2
BITMAP
1180
1FC0
1980
1980
1F80
4660
7FF0
6660
6660
67E0
66C0
0600
ENDCHAR
STARTCHAR 540B
ENCODING 21515
SWIDTH 720 0
DWIDTH 12 0
BBX 12 12 0 -2
BITMAP
00E0
90C0
F0D0
DFF0
D8C0
D4C0
D6C0
F6C0
D0C0
00C0
03C0
0180
ENDCHAR
STARTCHAR 540C
ENCODING 21516
SWIDTH 720 0
DWIDTH 12 0
BBX 12 12 0 -2
BITMAP
4060
7FF0
6160
7FE0
6060
6F60
6B60
6B60
6F60
6B60
61E0
60C0
ENDCHAR
STARTCHAR 540D
ENCODING 21517
SWIDTH 720 0
DWIDTH 12 0
BBX 12 12 0 -2
BITMAP
0E00
0D80
1FC0
1980
6F00
0600
0CC0
3FE0
D8C0
18C0
1FC0
18C0
ENDCHAR
STARTCHAR 540E
ENCODING 21518
SWIDTH 720 0
DWIDTH 12 0
BBX 12 12 0 -2
BITMAP
0180
23C0
3E00
3060
3FF0
3000
38C0
2FE0
6CC0
4CC0
8FC0
0CC0
ENDCHAR
STARTCHAR 540F
ENCODING 21519
SWIDTH 720 0
DWIDTH 12 0
BBX 12 12 0 -2
BITMAP
0700
0660
FFF0
0600
3FE0
36C0
3FC0
16C0
0E00
0FF0
19E0
E020
ENDCHAR
STARTCHAR 5410
ENCODING 21520
SWIDTH 720 0
DWIDTH 12 0
BBX 12 12 0 -2
BITMAP
0380
9B00
FB00
DB40
DFE0
DB00
DB00
FB00
DB00
0360
1FF0
0000
ENDCHAR
STARTCHAR 5411
ENCODING 21521
SWIDTH 720 0
DWIDTH 12 0
BBX 12 12 0 -2
BITMAP
1C00
9860
FFF0
C060
DF60
DB60
DB60
DF60
DB60
C060
C1E0
C0C0
ENDCHAR
STARTCHAR 541B
ENCODING 21531
SWIDTH 720 0
DWIDTH 12 0
BBX 12 12 0 -2
BITMAP
0180
7FC0
0DA0
FFF0
0D80
7F80
18C0
1FE0
38C0
D8C0
1FC0
18C0
ENDCHAR
STARTCHAR 541D
ENCODING 21533
SWIDTH 720 0
DWIDTH 12 0
BBX 12 12 0 -2
BITMAP
0700
0660
FFF0
1180
0B00
0E00
19F0
3FE0
D9A0
1980
1F80
1980
ENDCHAR
STARTCHAR 541F
ENCODING 21535
SWIDTH 720 0
DWIDTH 12 0
BBX 12 12 0 -2
BITMAP
0200
9700
F500
D8C0
DFF0
D060
DFA0
F180
D300
0300
0600
0600
ENDCHAR
STARTCHAR 5420
ENCODING 21536
SWIDTH 720 0
DWIDTH 12 0
BBX 12 12 0 -2
BITMAP
0380
9360
FB60
D320
DFF0
D300
D680
F680
D4C0
0C70
0860
3020
ENDCHAR
STARTCHAR 5426
ENCODING 21542
SWIDTH 720 0
DWIDTH 12 0
BBX 12 12 0 -2
BITMAP
0060
FFF0
0E00
1FC0
3670
C630
26C0
3FE0
30C0
30C0
3FC0
30C0
ENDCHAR
STARTCHAR 5429
ENCODING 21545
SWIDTH 720 0
DWIDTH 12 0
BBX 12 12 0 -2
BITMAP
0480
9780
F680
D4C0
D870
DFE0
D6C0
F6C0
D6C0
0CC0
0B80
3300
ENDCHAR
STARTCHAR 542B
ENCODING 21547
SWIDTH 720 0
DWIDTH 12 0
BBX 12 12 0 -2
BITMAP
0600
0700
0C80
1FC0
2070
DFA0
0300
1680
1FC0
1980
1F80
1980
ENDCHAR
STARTCHAR 542C
ENCODING 21548
SWIDTH 720 0
DWIDTH 12 0
BBX 12 12 0 -2
BITMAP
00C0
95E0
FF00
D660
D7F0
D6C0
D6C0
F6C0
CCC0
08C0
10C0
00C0
ENDCHAR
STARTCHAR 542D
ENCODING 21549
SWIDTH 720 0
DWIDTH 12 0
BBX 12 12 0 -2
BITMAP
0380
9360
FFF0
D000
D4C0
D7E0
D6C0
F6C0
D6D0
06D0
04F0
1870
ENDCHAR
STARTCHAR 542E
ENCODING 21550
SWIDTH 720 0
DWIDTH 12 0
BBX 12 12 0 -2
BITMAP
0380
9300
FE80
D460
DFF0
DED0
D6C0
F6C0
D6D0
0CD0
0CF0
3070
ENDCHAR
STARTCHAR 5436
ENCODING 21558
SWIDTH 720 0
DWIDTH 12 0
BBX 12 12 0 -2
BITMAP
0380
9360
FFF0
DB60
DB60
DBE0
DAE0
FC60
D860
1860
19E0
18C0
ENDCHAR
STARTCHAR 5438
ENCODING 21560
SWIDTH 720 0
DWIDTH 12 0
BBX 12 12 0 -2
BITMAP
1180
9FC0
F980
D980
DB00
DFE0
FAC0
DAC0
3180
23F0
4660
1820
ENDCHAR
STARTCHAR 5439
ENCODING 21561
SWIDTH 720 0
DWIDTH 12 0
BBX 12 12 0 -2
BITMAP
0700
9660
F7F0
DC60
DB40
D380
D300
F680
D680
04F0
0860
3020
ENDCHAR
STARTCHAR 543B
ENCODING 21563
SWIDTH 720 0
DWIDTH 12 0
BBX 12 12 0 -2
BITMAP
0700
9660
FFF0
DD60
D560
D560
D560
FB60
D2C0
04C0
0BC0
0180
ENDCHAR
STARTCHAR 543C
ENCODING 21564
SWIDTH 720 0
DWIDTH 12 0
BBX 12 12 0 -2
BITMAP
01E0
9FC0
F3C0
D6C0
D6C0
D7C0
DEC0
FEC0
D6D0
06D0
1EF0
0C70
ENDCHAR
STARTCHAR 543D
ENCODING 21565
SWIDTH 720 0
DWIDTH 12 0
BBX 12 12 0 -2
BITMAP
05C0
9780
FDC0
D7E0
D980
D1A0
DFF0
F180
D180
0180
0180
0180
ENDCHAR
STARTCHAR 543E
ENCODING 21566
SWIDTH 720 0
DWIDTH 12 0
BBX 12 12 0 -2
BITMAP
00C0
7FE0
0C00
3FC0
1980
19A0
FFF0
0000
3FE0
30C0
3FC0
30C0
ENDCHAR
STARTCHAR 5440
ENCODING 21568
SWIDTH 720 0
DWIDTH 12 0
BBX 12 12 0 -2
BITMAP
00C0
9FE0
F6C0
D6C0
D6E0
DFF0
D1C0
F3C0
D6C0
0CC0
33C0
0180
ENDCHAR
STARTCHAR 5442
ENCODING 21570
SWIDTH 720 0
DWIDTH 12 0
BBX 12 12 0 -2
BITMAP
1180
1FC0
1980
1980
1F80
0C80
28C0
3FE0
30C0
30C0
3FC0
30C0
ENDCHAR
STARTCHAR 5446
ENCODING 21574
SWIDTH 720 0
DWIDTH 12 0
BBX 12 12 0 -2
BITMAP
1180
1FC0
1980
1980
1F80
0660
FFF0
1F00
1680
36F0
C660
0620
ENDCHAR
STARTCHAR 5448
ENCODING 21576
SWIDTH 720 0
DWIDTH 12 0
BBX 12 12 0 -2
BITMAP
1180
1FC0
1980
1980
1F80
00C0
7FE0
0600
3FC0
0660
FFF0
0000
ENDCHAR
STARTCHAR 5449
ENCODING 21577
SWIDTH 720 0
DWIDTH 12 0
BBX 12 12 0 -2
BITMAP
0980
7FC0
6D80
6F80
60C0
7FE0
60C0
00C0
FFF0
1100
38E0
E070
ENDCHAR
STARTCHAR 544A
ENCODING 21578
SWIDTH 720 0
DWIDTH 12 0
BBX 12 12 0 -2
BITMAP
3700
36C0
3FE0
6600
4660
FFF0
0000
3FE0
30C0
30C0
3FC0
30C0
ENDCHAR
STARTCHAR 544E
ENCODING 21582
SWIDTH 720 0
DWIDTH 12 0
BBX 12 12 0 -2
BITMAP
10C0
9FE0
F8C0
D8C0
DFC0
DAC0
D900
F980
D880
10F0
1060
6020
ENDCHAR
STARTCHAR 5451
ENCODING 21585
SWIDTH 720 0
DWIDTH 12 0
BBX 12 12 0 -2
BITMAP
0180
07C0
7E00
0660
FFF0
0D00
18F0
3FE0
D9A0
1980
1F80
1980
ENDCHAR
STARTCHAR 545F
ENCODING 21599
SWIDTH 720 0
DWIDTH 12 0
BBX 12 12 0 -2
BITMAP
0380
9360
FFF0
D300
D2C0
DD80
D500
F300
D280
0440
1FE0
0C60
ENDCHAR
STARTCHAR 5468
ENCODING 21608
SWIDTH 720 0
DWIDTH 12 0
BBX 12 12 0 -2
BITMAP
20C0
3FE0
36C0
3FC0
36C0
3FC0
30C0
3FC0
2AC0
6EC0
4BC0
8180
ENDCHAR
STARTCHAR 546A
ENCODING 21610
SWIDTH 720 0
DWIDTH 12 0
BBX 12 12 0 -2
BITMAP
04C0
97E0
FEC0
D6C0
D6C0
D7C0
F580
D780
05A0
0DA0
09F0
30F0
ENDCHAR
STARTCHAR 5470
ENCODING 21616
SWIDTH 720 0
DWIDTH 12 0
BBX 12 12 0 -2
BITMAP
1FA0
DB60
DFC0
DB20
DF20
FBF0
D1F0
1F80
1980
1980
1F80
1980
ENDCHAR
STARTCHAR 5471
ENCODING 21617
SWIDTH 720 0
DWIDTH 12 0
BBX 12 12 0 -2
BITMAP
00C0
99E0
FF40
DB40
DB40
DB40
DB40
FB60
DBA0
1370
3FF0
4C50
ENDCHAR
STARTCHAR 5473
ENCODING 21619
SWIDTH 720 0
DWIDTH 12 0
BBX 12 12 0 -2
BITMAP
0380
9340
FFE0
D300
D360
DFF0
D780
F740
DF70
0B60
3320
0300
ENDCHAR
STARTCHAR 5475
ENCODING 21621
SWIDTH 720 0
DWIDTH 12 0
BBX 12 12 0 -2
BITMAP
0060
9FF0
F860
DB60
DFE0
DB60
DB60
FF60
DB60
0060
01E0
00C0
ENDCHAR
STARTCHAR 5476
ENCODING 21622
SWIDTH 720 0
DWIDTH 12 0
BBX 12 12 0 -2
BITMAP
0700
9660
F7F0
DF60
DB60
DB40
DAC0
FC80
CEC0
0B70
1160
2220
ENDCHAR
STARTCHAR 5477
ENCODING 21623
SWIDTH 720 0
DWIDTH 12 0
BBX 12 12 0 -2
BITMAP
1060
DFF0
FB60
DB60
DFE0
DB60
DB60
FFE0
DB60
0300
0300
0300
ENDCHAR
STARTCHAR 547B
ENCODING 21627
SWIDTH 720 0
DWIDTH 12 0
BBX 12 12 0 -2
BITMAP
0380
9B60
FFF0
DB60
DFE0
DB60
DB60
FFE0
DB60
0300
0300
0300
ENDCHAR
STARTCHAR 547C
ENCODING 21628
SWIDTH 720 0
DWIDTH 12 0
BBX 12 12 0 -2
BITMAP
00C0
93E0
FF40
DB60
D740
D7A0
DFF0
F300
D300
0300
0F00
0600
ENDCHAR
STARTCHAR 547D
ENCODING 21629
SWIDTH 720 0
DWIDTH 12 0
BBX 12 12 0 -2
BITMAP
0C00
0E00
1900
1F80
20F0
FBE0
6B40
6B40
6B40
7BC0
6B40
0300
ENDCHAR
STARTCHAR 5480
ENCODING 21632
SWIDTH 720 0
DWIDTH 12 0
BBX 12 12 0 -2
BITMAP
04C0
97E0
FEC0
D6C0
D7C0
D6C0
D6C0
F7C0
D6C0
06C0
3FF0
0000
ENDCHAR
STARTCHAR 5484
ENCODING 21636
SWIDTH 720 0
DWIDTH 12 0
BBX 12 12 0 -2
BITMAP
0380
9F70
FB60
DB60
DB60
DFF0
DB60
FB60
DB60
1B60
1FE0
1860
ENDCHAR
STARTCHAR 5486
ENCODING 21638
SWIDTH 720 0
DWIDTH 12 0
BBX 12 12 0 -2
BITMAP
0700
96C0
FFE0
D8C0
DFC0
DAC0
DAC0
FFC0
D980
1920
1FF0
0FF0
ENDCHAR
STARTCHAR 548B
ENCODING 21643
SWIDTH 720 0
DWIDTH 12 0
BBX 12 12 0 -2
BITMAP
0380
9360
FFF0
D580
D5A0
D9E0
D180
F1A0
D1F0
0180
0180
0180
ENDCHAR
STARTCHAR 548C
ENCODING 21644
SWIDTH 720 0
DWIDTH 12 0
BBX 12 12 0 -2
BITMAP
1800
3E60
F3F0
3360
FF60
3360
7B60
7F60
B360
33E0
3360
3000
ENDCHAR
STARTCHAR 548E
ENCODING 21646
SWIDTH 720 0
DWIDTH 12 0
BBX 12 12 0 -2
BITMAP
39C0
3580
7D80
6D40
9A60
3FF0
27F0
5000
9FC0
1980
1F80
1980
ENDCHAR
STARTCHAR 548F
ENCODING 21647
SWIDTH 720 0
DWIDTH 12 0
BBX 12 12 0 -2
BITMAP
0380
91C0
FF40
D360
DF60
D780
D7C0
FF40
CB70
1360
2F20
0600
ENDCHAR
STARTCHAR 5490
ENCODING 21648
SWIDTH 720 0
DWIDTH 12 0
BBX 12 12 0 -2
BITMAP
0EE0
8CC0
F8C0
DFF0
DCC0
DAC0
DBC0
F9C0
D8C0
18C0
1BC0
1980
ENDCHAR
STARTCHAR 5492
ENCODING 21650
SWIDTH 720 0
DWIDTH 12 0
BBX 12 12 0 -2
BITMAP
9B20
FFF0
DB60
DB60
FBE0
D360
1F80
1B00
1B20
1320
33F0
C1F0
ENDCHAR
STARTCHAR 54A2
ENCODING 21666
SWIDTH 720 0
DWIDTH 12 0
BBX 12 12 0 -2
BITMAP
9A60
FFF0
DB60
FBE0
0060
FFF0
1800
3FC0
3180
0180
0F00
0600
ENDCHAR
STARTCHAR 54A4
ENCODING 21668
SWIDTH 720 0
DWIDTH 12 0
BBX 12 12 0 -2
BITMAP
0380
9B60
FFF0
D8E0
DF80
DB60
DFF0
FB00
DB20
0320
03F0
01F0
ENDCHAR
STARTCHAR 54A5
ENCODING 21669
SWIDTH 720 0
DWIDTH 12 0
BBX 12 12 0 -2
BITMAP
0060
9FF0
FB80
DA40
DFE0
DF60
DB40
FFE0
DB00
0360
1FF0
0000
ENDCHAR
STARTCHAR 54A8
ENCODING 21672
SWIDTH 720 0
DWIDTH 12 0
BBX 12 12 0 -2
BITMAP
0700
3660
FFF0
0B60
3680
E4F0
D860
21A0
3FC0
3180
3F80
3180
ENDCHAR
STARTCHAR 54AB
ENCODING 21675
SWIDTH 720 0
DWIDTH 12 0
BBX 12 12 0 -2
BITMAP
4560
7FF0
6D60
6D60
6D60
7DE0
6940
6B30
6430
4600
43F0
81E0
ENDCHAR
STARTCHAR 54AC
ENCODING 21676
SWIDTH 720 0
DWIDTH 12 0
BBX 12 12 0 -2
BITMAP
01C0
99A0
FFF0
DB80
DA60
DEF0
DA80
F980
DBC0
0270
0460
1820
ENDCHAR
STARTCHAR 54AF
ENCODING 21679
SWIDTH 720 0
DWIDTH 12 0
BBX 12 12 0 -2
BITMAP
0380
9340
F7E0
D6C0
D980
D340
D470
FFE0
D6C0
06C0
07C0
06C0
ENDCHAR
STARTCHAR 54B2
ENCODING 21682
SWIDTH 720 0
DWIDTH 12 0
BBX 12 12 0 -2
BITMAP
0860
96C0
F2A0
DFE0
D300
D360
DFF0
F300
D680
06F0
0C60
3020
ENDCHAR
STARTCHAR 54B3
ENCODING 21683
SWIDTH 720 0
DWIDTH 12 0
BBX 12 12 0 -2
BITMAP
0380
9360
FFF0
D300
DAC0
D580
D760
F2C0
C580
1B60
0630
1830
ENDCHAR
STARTCHAR 54B8
ENCODING 21688
SWIDTH 720 0
DWIDTH 12 0
BBX 12 12 0 -2
BITMAP
03C0
2360
3FF0
3300
3F60
3360
3FE0
36C0
7FD0
5360
8670
1830
ENDCHAR
STARTCHAR 54BC
ENCODING 21692
SWIDTH 720 0
DWIDTH 12 0
BBX 12 12 0 -2
BITMAP
1180
1FC0
1980
1F80
59A0
7FF0
6060
6F60
6D60
6F60
6DE0
60C0
ENDCHAR
STARTCHAR 54BD
ENCODING 21693
SWIDTH 720 0
DWIDTH 12 0
BBX 12 12 0 -2
BITMAP
1060
9FF0
FB60
DB60
DFE0
DB60
DB60
FBE0
DCE0
1860
1FE0
1860
ENDCHAR
STARTCHAR 54BE
ENCODING 21694
SWIDTH 720 0
DWIDTH 12 0
BBX 12 12 0 -2
BITMAP
0380
9B60
FFE0
DB40
DBA0
DFF0
DB40
FFE0
CF80
3340
03E0
01E0
ENDCHAR
STARTCHAR 54C0
ENCODING 21696
SWIDTH 720 0
DWIDTH 12 0
BBX 12 12 0 -2
BITMAP
0620
FFF0
0000
1FC0
1980
1980
1FC0
1A60
3940
DB80
3CF0
3060
ENDCHAR
STARTCHAR 54C1
ENCODING 21697
SWIDTH 720 0
DWIDTH 12 0
BBX 12 12 0 -2
BITMAP
1180
1FC0
1980
1980
1F80
1980
8A60
FBF0
DB60
DB60
FBE0
DB60
ENDCHAR
STARTCHAR 54C2
ENCODING 21698
SWIDTH 720 0
DWIDTH 12 0
BBX 12 12 0 -2
BITMAP
0060
9FF0
FB00
DB60
DFF0
DB60
DB60
FBE0
DDE0
1860
1FE0
1860
ENDCHAR
STARTCHAR 54C4
ENCODING 21700
SWIDTH 720 0
DWIDTH 12 0
BBX 12 12 0 -2
BITMAP
07E0
96C0
F6C0
DFE0
D6C0
D6C0
D6D0
FFF0
D080
0C60
0C30
3030
ENDCHAR
STARTCHAR 54C7
ENCODING 21703
SWIDTH 720 0
DWIDTH 12 0
BBX 12 12 0 -2
BITMAP
0380
9B00
FFC0
DB00
DFE0
DB00
DB40
FFE0
DB00
0320
1FF0
0000
ENDCHAR
STARTCHAR 54C8
ENCODING 21704
SWIDTH 720 0
DWIDTH 12 0
BBX 12 12 0 -2
BITMAP
0300
9300
F680
D4C0
D470
DFE0
D020
F7C0
D6C0
06C0
07C0
06C0
ENDCHAR
STARTCHAR 54C9
ENCODING 21705
SWIDTH 720 0
DWIDTH 12 0
BBX 12 12 0 -2
BITMAP
3B80
3360
FF60
3320
FFF0
0300
7B60
6960
69D0
79E0
6370
1C30
ENDCHAR
STARTCHAR 54D8
ENCODING 21720
SWIDTH 720 0
DWIDTH 12 0
BBX 12 12 0 -2
BITMAP
0EC0
9DE0
F800
D660
D7F0
DC60
DC60
FC60
DC60
0C60
0DE0
0CC0
ENDCHAR
STARTCHAR 54E1
ENCODING 21729
SWIDTH 720 0
DWIDTH 12 0
BBX 12 12 0 -2
BITMAP
1100
1F80
1B00
3FC0
3180
3F80
3180
3F80
3180
3F80
19C0
F0E0
ENDCHAR
STARTCHAR 54E2
ENCODING 21730
SWIDTH 720 0
DWIDTH 12 0
BBX 12 12 0 -2
BITMAP
0060
9FF0
F300
D7E0
D320
DFF0
D6C0
F6C0
DFF0
06C0
04C0
18C0
ENDCHAR
STARTCHAR 54E5
ENCODING 21733
SWIDTH 720 0
DWIDTH 12 0
BBX 12 12 0 -2
BITMAP
00C0
7FE0
36C0
3EC0
36C0
01E0
FFF0
00C0
3EC0
36C0
3FC0
3180
ENDCHAR
STARTCHAR 54E6
ENCODING 21734
SWIDTH 720 0
DWIDTH 12 0
BBX 12 12 0 -2
BITMAP
02C0
97E0
FEF0
D6D0
DFF0
D6C0
D7F0
FED0
DE70
06E0
1EB0
0D30
ENDCHAR
STARTCHAR 54E8
ENCODING 21736
SWIDTH 720 0
DWIDTH 12 0
BBX 12 12 0 -2
BITMAP
09A0
9DB0
F7A0
D5C0
D7F0
D660
D7E0
F660
D7E0
0660
06E0
06C0
ENDCHAR
STARTCHAR 54E9
ENCODING 21737
SWIDTH 720 0
DWIDTH 12 0
BBX 12 12 0 -2
BITMAP
0420
97F0
FDA0
D7E0
D5A0
D7E0
D5A0
F180
DFE0
01A0
1FF0
0000
ENDCHAR
STARTCHAR 54ED
ENCODING 21741
SWIDTH 720 0
DWIDTH 12 0
BBX 12 12 0 -2
BITMAP
9B60
FFF0
DB60
FBE0
9F20
06C0
FFF0
0E00
0D00
19F0
30E0
C020
ENDCHAR
STARTCHAR 54EE
ENCODING 21742
SWIDTH 720 0
DWIDTH 12 0
BBX 12 12 0 -2
BITMAP
0380
9B60
FFC0
DBA0
DFF0
DB00
DFC0
F9A0
DFF0
0300
0F00
0600
ENDCHAR
STARTCHAR 54F2
ENCODING 21746
SWIDTH 720 0
DWIDTH 12 0
BBX 12 12 0 -2
BITMAP
3CE0
37C0
FE20
37F0
FEC0
B4C0
78C0
3FE0
30C0
30C0
3FC0
30C0
ENDCHAR
STARTCHAR 54FA
ENCODING 21754
SWIDTH 720 0
DWIDTH 12 0
BBX 12 12 0 -2
BITMAP
03C0
9340
FFF0
D300
DFF0
DB60
DFE0
FB60
DFE0
1B60
1BE0
1B40
ENDCHAR
STARTCHAR 54FD
ENCODING 21757
SWIDTH 720 0
DWIDTH 12 0
BBX 12 12 0 -2
BITMAP
0060
9FF0
FB00
DFE0
DB60
DFE0
DB60
FFE0
DB60
0680
0CF0
3060
ENDCHAR
STARTCHAR 5504
ENCODING 21764
SWIDTH 720 0
DWIDTH 12 0
BBX 12 12 0 -2
BITMAP
04C0
97E0
FEC0
D7C0
D6C0
D7C0
D6C0
F6C0
D7C0
06C0
0670
1830
ENDCHAR
STARTCHAR 5506
ENCODING 21766
SWIDTH 720 0
DWIDTH 12 0
BBX 12 12 0 -2
BITMAP
0340
9660
FFF0
DAD0
D2F0
DC70
D340
F3C0
D680
1BF0
06E0
1820
ENDCHAR
STARTCHAR 5507
ENCODING 21767
SWIDTH 720 0
DWIDTH 12 0
BBX 12 12 0 -2
BITMAP
20C0
3FE0
3020
3FF0
3D60
2EC0
7C70
5FE0
9980
1980
1F80
1980
ENDCHAR
STARTCHAR 550F
ENCODING 21775
SWIDTH 720 0
DWIDTH 12 0
BBX 12 12 0 -2
BITMAP
0040
9CC0
F300
DFC0
D360
DFF0
D580
FFE0
D5A0
05E0
05A0
0180
ENDCHAR
STARTCHAR 5510
ENCODING 21776
SWIDTH 720 0
DWIDTH 12 0
BBX 12 12 0 -2
BITMAP
0380
4360
7FF0
6300
6FE0
6360
7FF0
6360
4FE0
4CC0
8FC0
0CC0
ENDCHAR
STARTCHAR 5514
ENCODING 21780
SWIDTH 720 0
DWIDTH 12 0
BBX 12 12 0 -2
BITMAP
00C0
9FE0
F300
DFE0
D6C0
DFF0
D000
F7E0
D6C0
06C0
07C0
06C0
ENDCHAR
STARTCHAR 5516
ENCODING 21782
SWIDTH 720 0
DWIDTH 12 0
BBX 12 12 0 -2
BITMAP
0060
1FF0
9580
F5A0
DFF0
D5A0
D5A0
FFE0
D580
05A0
1FF0
0000
ENDCHAR
STARTCHAR 552E
ENCODING 21806
SWIDTH 720 0
DWIDTH 12 0
BBX 12 12 0 -2
BITMAP
1D80
1B40
3FE0
7600
BFC0
3660
3FF0
1080
1FC0
1980
1F80
1980
ENDCHAR
STARTCHAR 552F
ENCODING 21807
SWIDTH 720 0
DWIDTH 12 0
BBX 12 12 0 -2
BITMAP
0380
9360
FED0
D7F0
DEC0
D7E0
D6C0
F7E0
D6C0
06D0
07F0
0600
ENDCHAR
STARTCHAR 5531
ENCODING 21809
SWIDTH 720 0
DWIDTH 12 0
BBX 12 12 0 -2
BITMAP
07E0
96C0
FFC0
D6C0
D7C0
D460
D7F0
F660
D7E0
0660
07E0
0660
ENDCHAR
STARTCHAR 5533
ENCODING 21811
SWIDTH 720 0
DWIDTH 12 0
BBX 12 12 0 -2
BITMAP
0060
9FF0
F000
DFE0
D8C0
DFC0
DB60
FFF0
DB00
1680
24F0
1860
ENDCHAR
STARTCHAR 5538
ENCODING 21816
SWIDTH 720 0
DWIDTH 12 0
BBX 12 12 0 -2
BITMAP
0300
9380
F4C0
DFF0
D0A0
DFC0
D180
F740
D7A0
16B0
77D0
63C0
ENDCHAR
STARTCHAR 5539
ENCODING 21817
SWIDTH 720 0
DWIDTH 12 0
BBX 12 12 0 -2
BITMAP
0E80
8CC0
FFC0
D9B0
DB30
DFA0
DB60
FB60
DB80
1340
1F60
2660
ENDCHAR
STARTCHAR 553E
ENCODING 21822
SWIDTH 720 0
DWIDTH 12 0
BBX 12 12 0 -2
BITMAP
00C0
97E0
F180
DFF0
D5A0
DFF0
D5A0
F5A0
DFF0
01A0
1FF0
0000
ENDCHAR
STARTCHAR 5540
ENCODING 21824
SWIDTH 720 0
DWIDTH 12 0
BBX 12 12 0 -2
BITMAP
1060
9FF0
F980
DBC0
D980
DFE0
F980
DFE0
1980
11A0
2FF0
0000
ENDCHAR
STARTCHAR 5544
ENCODING 21828
SWIDTH 720 0
DWIDTH 12 0
BBX 12 12 0 -2
BITMAP
0060
9FF0
F300
D640
DB60
D5C0
DB80
F7C0
D5E0
19B0
07A0
0300
ENDCHAR
STARTCHAR 5545
ENCODING 21829
SWIDTH 720 0
DWIDTH 12 0
BBX 12 12 0 -2
BITMAP
0340
93E0
FB00
D7E0
D6C0
D7C0
D6C0
F7C0
D360
1FF0
0300
0300
ENDCHAR
STARTCHAR 5546
ENCODING 21830
SWIDTH 720 0
DWIDTH 12 0
BBX 12 12 0 -2
BITMAP
0700
0660
FFF0
1B00
4A60
7FF0
6A60
7FE0
6B60
6F60
6BE0
60C0
ENDCHAR
STARTCHAR 554C
ENCODING 21836
SWIDTH 720 0
DWIDTH 12 0
BBX 12 12 0 -2
BITMAP
0380
9360
FFF0
D6A0
D6F0
DCF0
D080
FFC0
D300
0360
1FF0
0000
ENDCHAR
STARTCHAR 554F
ENCODING 21839
SWIDTH 720 0
DWIDTH 12 0
BBX 12 12 0 -2
BITMAP
9A60
FBF0
DB60
FBE0
DB60
FBE0
C060
DF60
DB60
DF60
DBE0
C0C0
ENDCHAR
STARTCHAR 5553
ENCODING 21843
SWIDTH 720 0
DWIDTH 12 0
BBX 12 12 0 -2
BITMAP
0B80
FF60
43F0
7EC0
6D80
7DC0
6E70
50E0
9F80
1980
1F80
1980
ENDCHAR
STARTCHAR 5556
ENCODING 21846
SWIDTH 720 0
DWIDTH 12 0
BBX 12 12 0 -2
BITMAP
0380
9760
FF40
DB80
D2E0
DC60
D380
F760
DF40
0280
06F0
1860
ENDCHAR
STARTCHAR 5557
ENCODING 21847
SWIDTH 720 0
DWIDTH 12 0
BBX 12 12 0 -2
BITMAP
0700
96C0
F7E0
D4C0
D580
DB40
DFE0
F8C0
DDC0
18C0
1FC0
18C0
ENDCHAR
STARTCHAR 555C
ENCODING 21852
SWIDTH 720 0
DWIDTH 12 0
BBX 12 12 0 -2
BITMAP
0660
9FF0
FB60
D6C0
DAA0
DB30
DFF0
FB60
CB40
06C0
0B70
3260
ENDCHAR
STARTCHAR 555D
ENCODING 21853
SWIDTH 720 0
DWIDTH 12 0
BBX 12 12 0 -2
BITMAP
0300
9760
FDF0
D5A0
DFA0
D5A0
FFA0
CFA0
1DE0
15A0
2400
0400
ENDCHAR
STARTCHAR 5563
ENCODING 21859
SWIDTH 720 0
DWIDTH 12 0
BBX 12 12 0 -2
BITMAP
0700
9690
FFF0
DED0
D6D0
DFD0
D6D0
F7D0
D6F0
17D0
1EC0
18C0
ENDCHAR
STARTCHAR 557B
ENCODING 21883
SWIDTH 720 0
DWIDTH 12 0
BBX 12 12 0 -2
BITMAP
0640
7FE0
1980
7FF0
C660
FFC0
36C0
36C0
1F80
1980
1F80
1980
ENDCHAR
STARTCHAR 557C
ENCODING 21884
SWIDTH 720 0
DWIDTH 12 0
BBX 12 12 0 -2
BITMAP
0380
9340
FFE0
D6C0
DFF0
DB20
DFE0
FB60
DB60
1BE0
0300
0300
ENDCHAR
STARTCHAR 557E
ENCODING 21886
SWIDTH 720 0
DWIDTH 12 0
BBX 12 12 0 -2
BITMAP
03C0
9780
FDA0
D5B0
DFA0
D5C0
DF80
FD80
D540
2570
0660
0420
ENDCHAR
STARTCHAR 5580
ENCODING 21888
SWIDTH 720 0
DWIDTH 12 0
BBX 12 12 0 -2
BITMAP
0380
9B60
FFF0
DA40
D7C0
D6C0
D980
F7F0
DEE0
06C0
07C0
06C0
ENDCHAR
STARTCHAR 5583
ENCODING 21891
SWIDTH 720 0
DWIDTH 12 0
BBX 12 12 0 -2
BITMAP
0380
9360
FFF0
D300
DFF0
DDE0
DB60
FFE0
DB60
1FE0
1B60
1BE0
ENDCHAR
STARTCHAR 5584
ENCODING 21892
SWIDTH 720 0
DWIDTH 12 0
BBX 12 12 0 -2
BITMAP
1980
0940
7FE0
0600
3FC0
16A0
FFF0
0000
1FC0
1980
1F80
1980
ENDCHAR
STARTCHAR 5587
ENCODING 21895
SWIDTH 720 0
DWIDTH 12 0
BBX 12 12 0 -2
BITMAP
0770
96E0
FFE0
D660
DFE0
D6E0
DFE0
F660
DF60
0FE0
16E0
0640
ENDCHAR
STARTCHAR 5589
ENCODING 21897
SWIDTH 720 0
DWIDTH 12 0
BBX 12 12 0 -2
BITMAP
0CC0
8FE0
F8C0
DFF0
DB00
DBE0
DDA0
FFF0
D980
1B70
1A60
1C20
ENDCHAR
STARTCHAR 558A
ENCODING 21898
SWIDTH 720 0
DWIDTH 12 0
BBX 12 12 0 -2
BITMAP
01E0
91A0
FFF0
D980
DFB0
D9B0
DFE0
FBE0
DED0
11E0
2330
4C30
ENDCHAR
STARTCHAR 558B
ENCODING 21899
SWIDTH 720 0
DWIDTH 12 0
BBX 12 12 0 -2
BITMAP
07E0
96C0
FFF0
D6C0
D6C0
D660
D7F0
F320
DFF0
0F80
0B70
3360
ENDCHAR
STARTCHAR 5598
ENCODING 21912
SWIDTH 720 0
DWIDTH 12 0
BBX 12 12 0 -2
BITMAP
0380
9B70
FB60
DFE0
D020
DFF0
D620
FFF0
DB60
1B60
1B60
1BE0
ENDCHAR
STARTCHAR 5599
ENCODING 21913
SWIDTH 720 0
DWIDTH 12 0
BBX 12 12 0 -2
BITMAP
00C0
97E0
F8C0
D7C0
D0C0
DFF0
DB20
F5E0
DBC0
05E0
1BB0
0320
ENDCHAR
STARTCHAR 559A
ENCODING 21914
SWIDTH 720 0
DWIDTH 12 0
BBX 12 12 0 -2
BITMAP
0340
03C0
96A0
FFF0
DB60
DFE0
DB60
FFF0
D300
06F0
0460
1820
ENDCHAR
STARTCHAR 559C
ENCODING 21916
SWIDTH 720 0
DWIDTH 12 0
BBX 12 12 0 -2
BITMAP
0640
7FE0
0600
3FC0
1980
1F80
0980
0D60
FFF0
1980
1F80
1980
ENDCHAR
STARTCHAR 559D
ENCODING 21917
SWIDTH 720 0
DWIDTH 12 0
BBX 12 12 0 -2
BITMAP
04C0
97E0
FEC0
D7C0
D6C0
D7C0
D360
F7F0
DD60
0EE0
07E0
00C0
ENDCHAR
STARTCHAR 559E
ENCODING 21918
SWIDTH 720 0
DWIDTH 12 0
BBX 12 12 0 -2
BITMAP
1320
9FF0
FBA0
DFA0
DBA0
DFA0
D9A0
FFA0
DBE0
1FA0
3980
3180
ENDCHAR
STARTCHAR 559F
ENCODING 21919
SWIDTH 720 0
DWIDTH 12 0
BBX 12 12 0 -2
BITMAP
1060
9FF0
FB60
DFE0
DB60
DFE0
D6C0
F7C0
D6C0
07C0
06C0
06C0
ENDCHAR
STARTCHAR 55A7
ENCODING 21927
SWIDTH 720 0
DWIDTH 12 0
BBX 12 12 0 -2
BITMAP
0380
9B60
FFF0
D840
D7E0
D6C0
D7C0
F6C0
D7C0
0060
1FF0
0000
ENDCHAR
STARTCHAR 55A8
ENCODING 21928
SWIDTH 720 0
DWIDTH 12 0
BBX 12 12 0 -2
BITMAP
0380
9360
FFF0
D6C0
D7C0
D860
DFF0
F5A0
D7C0
0DA0
0DF0
30F0
ENDCHAR
STARTCHAR 55A9
ENCODING 21929
SWIDTH 720 0
DWIDTH 12 0
BBX 12 12 0 -2
BITMAP
0300
9380
FEC0
D470
DB60
DF60
DB60
FF60
DB60
1F60
1BE0
1B40
ENDCHAR
STARTCHAR 55AA
ENCODING 21930
SWIDTH 720 0
DWIDTH 12 0
BBX 12 12 0 -2
BITMAP
0700
06C0
7FE0
0600
76E0
56A0
FFF0
34C0
3280
3380
FCF0
6060
ENDCHAR
STARTCHAR 55AB
ENCODING 21931
SWIDTH 720 0
DWIDTH 12 0
BBX 12 12 0 -2
BITMAP
0560
9FF0
F560
DF60
D560
D6E0
DFC0
F320
9FF0
0380
06F0
1860
ENDCHAR
STARTCHAR 55AC
ENCODING 21932
SWIDTH 720 0
DWIDTH 12 0
BBX 12 12 0 -2
BITMAP
01C0
3F80
0660
FFF0
1900
3FE0
CD70
7FE0
6D60
6F60
6DE0
60C0
ENDCHAR
STARTCHAR 55AE
ENCODING 21934
SWIDTH 720 0
DWIDTH 12 0
BBX 12 12 0 -2
BITMAP
9A60
FFF0
DB60
FBE0
C040
3FE0
36C0
3FC0
36E0
FFF0
0600
0600
ENDCHAR
STARTCHAR 55B0
ENCODING 21936
SWIDTH 720 0
DWIDTH 12 0
BBX 12 12 0 -2
BITMAP
0100
9380
FAC0
D7F0
DEE0
D7C0
D6C0
F7F0
D6A0
07C0
1EF0
1860
ENDCHAR
STARTCHAR 55B6
ENCODING 21942
SWIDTH 720 0
DWIDTH 12 0
BBX 12 12 0 -2
BITMAP
36C0
52A0
7FF0
C060
DF80
1980
1F80
2440
3FE0
30C0
3FC0
30C0
ENDCHAR
STARTCHAR 55C4
ENCODING 21956
SWIDTH 720 0
DWIDTH 12 0
BBX 12 12 0 -2
BITMAP
0060
9FF0
F300
D7E0
D6C0
D7C0
D6C0
F7C0
D6C0
1D80
0370
1C20
ENDCHAR
STARTCHAR 55C5
ENCODING 21957
SWIDTH 720 0
DWIDTH 12 0
BBX 12 12 0 -2
BITMAP
0380
9340
FFE0
D6C0
D7C0
D6C0
D7C0
F6C0
DFF0
0300
06F0
1860
ENDCHAR
STARTCHAR 55C7
ENCODING 21959
SWIDTH 720 0
DWIDTH 12 0
BBX 12 12 0 -2
BITMAP
0700
06C0
7FE0
36C0
5F60
FFF0
6D60
6D60
6F60
6060
7FE0
6060
ENDCHAR
STARTCHAR 55D4
ENCODING 21972
SWIDTH 720 0
DWIDTH 12 0
BBX 12 12 0 -2
BITMAP
0340
9FE0
FB00
D7E0
D6C0
D7C0
D6C0
F7C0
C6C0
1FF0
06E0
1C30
ENDCHAR
STARTCHAR 55DA
ENCODING 21978
SWIDTH 720 0
DWIDTH 12 0
BBX 12 12 0 -2
BITMAP
0380
9340
F7E0
D6C0
D7C0
D640
D7E0
F620
D7F0
0D60
1AE0
36C0
ENDCHAR
STARTCHAR 55DC
ENCODING 21980
SWIDTH 720 0
DWIDTH 12 0
BBX 12 12 0 -2
BITMAP
0340
9FC0
F3A0
DFF0
D340
D7C0
DB60
F7E0
D6C0
07C0
06C0
07C0
ENDCHAR
STARTCHAR 55DF
ENCODING 21983
SWIDTH 720 0
DWIDTH 12 0
BBX 12 12 0 -2
BITMAP
06C0
9FE0
F300
DFC0
D320
DFF0
D300
FFE0
CD80
31A0
0FF0
0000
ENDCHAR
STARTCHAR 55E3
ENCODING 21987
SWIDTH 720 0
DWIDTH 12 0
BBX 12 12 0 -2
BITMAP
9860
FFF0
D860
FFE0
8860
FBE0
DB60
DB60
FBE0
D860
D9E0
D8C0
ENDCHAR
STARTCHAR 55E4
ENCODING 21988
SWIDTH 720 0
DWIDTH 12 0
BBX 12 12 0 -2
BITMAP
1FF0
9B60
FFE0
D620
DFF0
D300
DFE0
FB60
DFE0
0320
1FF0
0C30
ENDCHAR
STARTCHAR 55F7
ENCODING 22007
SWIDTH 720 0
DWIDTH 12 0
BBX 12 12 0 -2
BITMAP
06E0
9FC0
F6D0
DFF0
D760
DF60
D6E0
FFC0
DB60
1BB0
16A0
2720
ENDCHAR
STARTCHAR 55F9
ENCODING 22009
SWIDTH 720 0
DWIDTH 12 0
BBX 12 12 0 -2
BITMAP
01A0
97F0
F980
DFE0
D5A0
D7E0
DDA0
FFF0
CD80
0D80
1FF0
1BF0
ENDCHAR
STARTCHAR 55FD
ENCODING 22013
SWIDTH 720 0
DWIDTH 12 0
BBX 12 12 0 -2
BITMAP
07C0
96D0
FFF0
D6B0
DFE0
D6C0
DFC0
F6C0
DFE0
16F0
26A0
0720
ENDCHAR
STARTCHAR 55FE
ENCODING 22014
SWIDTH 720 0
DWIDTH 12 0
BBX 12 12 0 -2
BITMAP
0FC0
8DA0
FFF0
D980
DB60
DFE0
D6C0
F7F0
D6C0
35F0
2D20
4A20
ENDCHAR
STARTCHAR 5606
ENCODING 22022
SWIDTH 720 0
DWIDTH 12 0
BBX 12 12 0 -2
BITMAP
02C0
9FF0
F2C0
D7E0
D5A0
DFF0
D1A0
FFF0
D180
0370
0660
1820
ENDCHAR
STARTCHAR 5609
ENCODING 22025
SWIDTH 720 0
DWIDTH 12 0
BBX 12 12 0 -2
BITMAP
0640
7FE0
0600
3FC0
1980
1F80
0960
FFF0
3120
FFF0
6D60
DDE0
ENDCHAR
STARTCHAR 5614
ENCODING 22036
SWIDTH 720 0
DWIDTH 12 0
BBX 12 12 0 -2
BITMAP
10C0
9FE0
F800
DBC0
DAC0
DBC0
DFE0
FB60
DFE0
1860
1FF0
1800
ENDCHAR
STARTCHAR 5616
ENCODING 22038
SWIDTH 720 0
DWIDTH 12 0
BBX 12 12 0 -2
BITMAP
0340
9FE0
F300
D7C0
D320
DFF0
D6C0
F7C0
D6C0
07C0
0660
1C70
ENDCHAR
STARTCHAR 5617
ENCODING 22039
SWIDTH 720 0
DWIDTH 12 0
BBX 12 12 0 -2
BITMAP
36C0
52A0
FFF0
D9A0
1F80
61C0
7FA0
6070
3FF0
1980
1F80
1980
ENDCHAR
STARTCHAR 5618
ENCODING 22040
SWIDTH 720 0
DWIDTH 12 0
BBX 12 12 0 -2
BITMAP
03C0
9320
FFF0
DB20
DFC0
DB20
F9E0
D6D0
3EF0
26C0
5FF0
0000
ENDCHAR
STARTCHAR 561B
ENCODING 22043
SWIDTH 720 0
DWIDTH 12 0
BBX 12 12 0 -2
BITMAP
0380
9360
FFF0
D6C0
D6D0
DFF0
D6C0
F7E0
DEF0
17D0
26C0
06C0
ENDCHAR
STARTCHAR 5629
ENCODING 22057
SWIDTH 720 0
DWIDTH 12 0
BBX 12 12 0 -2
BITMAP
06C0
1FF0
96C0
FFE0
DB40
DFF0
DB40
FFE0
D340
0FE0
0300
0300
ENDCHAR
STARTCHAR 562F
ENCODING 22063
SWIDTH 720 0
DWIDTH 12 0
BBX 12 12 0 -2
BITMAP
0300
9FE0
F360
DFF0
D360
DFF0
DFE0
FB60
DFE0
1B60
17E0
2B60
ENDCHAR
STARTCHAR 5631
ENCODING 22065
SWIDTH 720 0
DWIDTH 12 0
BBX 12 12 0 -2
BITMAP
1FE0
98C0
FFC0
D980
DFE0
DB40
DFC0
F360
DFF0
3AE0
5FE0
1A60
ENDCHAR
STARTCHAR 5632
ENCODING 22066
SWIDTH 720 0
DWIDTH 12 0
BBX 12 12 0 -2
BITMAP
0F60
8DF0
FF60
DB60
DFE0
DB60
FF60
CDE0
3F60
0D60
0DE0
0EC0
ENDCHAR
STARTCHAR 5634
ENCODING 22068
SWIDTH 720 0
DWIDTH 12 0
BBX 12 12 0 -2
BITMAP
06D0
97F0
F6C0
DFF0
DD70
D3C0
D6A0
FFF0
D660
07E0
0660
1CE0
ENDCHAR
STARTCHAR 5636
ENCODING 22070
SWIDTH 720 0
DWIDTH 12 0
BBX 12 12 0 -2
BITMAP
1E60
9AE0
FF80
DB60
DFF0
DB60
FF60
DB60
7F60
1B60
1660
2460
ENDCHAR
STARTCHAR 5638
ENCODING 22072
SWIDTH 720 0
DWIDTH 12 0
BBX 12 12 0 -2
BITMAP
0E00
8C60
FFF0
DB60
DB60
DFF0
DB60
FB60
DFF0
3360
6DB0
6DB0
ENDCHAR
STARTCHAR 5642
ENCODING 22082
SWIDTH 720 0
DWIDTH 12 0
BBX 12 12 0 -2
BITMAP
0660
92C0
FFF0
D6C0
DFE0
DB60
FFE0
D860
1FF0
0CC0
05C0
0180
ENDCHAR
STARTCHAR 564C
ENCODING 22092
SWIDTH 720 0
DWIDTH 12 0
BBX 12 12 0 -2
BITMAP
06C0
92A0
FFF0
DB60
DFE0
DB60
DFE0
F6C0
D7C0
06C0
07C0
06C0
ENDCHAR
STARTCHAR 564E
ENCODING 22094
SWIDTH 720 0
DWIDTH 12 0
BBX 12 12 0 -2
BITMAP
0340
9FE0
F300
D7C0
D020
DFF0
DEE0
F7C0
D6C0
02A0
1FF0
0000
ENDCHAR
STARTCHAR 5650
ENCODING 22096
SWIDTH 720 0
DWIDTH 12 0
BBX 12 12 0 -2
BITMAP
7BE0
6B60
7BE0
40A0
3FC0
0660
FFF0
0000
7FF0
6B60
7BE0
6B60
ENDCHAR
STARTCHAR 565B
ENCODING 22107
SWIDTH 720 0
DWIDTH 12 0
BBX 12 12 0 -2
BITMAP
0340
1BE0
9B20
FFF0
D820
DFF0
DB60
FFE0
DBE0
1F60
1FE0
1860
ENDCHAR
STARTCHAR 5664
ENCODING 22116
SWIDTH 720 0
DWIDTH 12 0
BBX 12 12 0 -2
BITMAP
07E0
96C0
FFF0
D6C0
DFF0
D6E0
DFE0
F020
DFF0
0DC0
0BB0
3330
ENDCHAR
STARTCHAR 5668
ENCODING 22120
SWIDTH 720 0
DWIDTH 12 0
BBX 12 12 0 -2
BITMAP
5AC0
7FE0
5AC0
7BC0
0660
FFF0
1B00
32F0
FFE0
5AC0
7BC0
5AC0
ENDCHAR
STARTCHAR 566A
ENCODING 22122
SWIDTH 720 0
DWIDTH 12 0
BBX 12 12 0 -2
BITMAP
03C0
9AC0
FBC0
D860
DFF0
DB60
DFE0
FB20
DFF0
0F80
0B70
3320
ENDCHAR
STARTCHAR 566B
ENCODING 22123
SWIDTH 720 0
DWIDTH 12 0
BBX 12 12 0 -2
BITMAP
0380
9340
FFE0
D2A0
DFF0
D6C0
D7C0
F6C0
D7E0
0AB0
1BF0
19C0
ENDCHAR
STARTCHAR 566C
ENCODING 22124
SWIDTH 720 0
DWIDTH 12 0
BBX 12 12 0 -2
BITMAP
19A0
9FF0
F540
D660
DFE0
DB40
DB40
F760
D7B0
2320
3FF0
0000
ENDCHAR
STARTCHAR 5674
ENCODING 22132
SWIDTH 720 0
DWIDTH 12 0
BBX 12 12 0 -2
BITMAP
0180
DFF0
F5A0
DFF0
D420
D7F0
D660
F7E0
D660
07E0
0670
1C30
ENDCHAR
STARTCHAR 5678
ENCODING 22136
SWIDTH 720 0
DWIDTH 12 0
BBX 12 12 0 -2
BITMAP
1C60
9BF0
FEC0
DDF0
D960
DBE0
DF60
F9E0
DF60
0FE0
01B0
0330
ENDCHAR
STARTCHAR 567A
ENCODING 22138
SWIDTH 720 0
DWIDTH 12 0
BBX 12 12 0 -2
BITMAP
0E60
ADE0
FF00
AB60
BFF0
AD60
BF60
ED60
BF60
1D60
2E60
0C60
ENDCHAR
STARTCHAR 5680
ENCODING 22144
SWIDTH 720 0
DWIDTH 12 0
BBX 12 12 0 -2
BITMAP
0380
9B60
FFF0
DBA0
D770
DDD0
D020
FFF0
CD60
1FF0
0300
0700
ENDCHAR
STARTCHAR 5686
ENCODING 22150
SWIDTH 720 0
DWIDTH 12 0
BBX 12 12 0 -2
BITMAP
06C0
9FF0
F6C0
DFE0
D680
D780
D860
FFF0
DB60
1F60
1BE0
18C0
ENDCHAR
STARTCHAR 5687
ENCODING 22151
SWIDTH 720 0
DWIDTH 12 0
BBX 12 12 0 -2
BITMAP
1DC0
99A0
FFE0
D980
D9A0
FFF0
D540
B760
7770
5550
3DC0
4A80
ENDCHAR
STARTCHAR 568A
ENCODING 22154
SWIDTH 720 0
DWIDTH 12 0
BBX 12 12 0 -2
BITMAP
0300
97E0
F6C0
D7C0
D6C0
DFE0
DB60
FFE0
DB60
3FF0
06C0
1CC0
ENDCHAR
STARTCHAR 568F
ENCODING 22159
SWIDTH 720 0
DWIDTH 12 0
BBX 12 12 0 -2
BITMAP
0340
9FE0
F320
DFF0
DB60
D7C0
DB60
FFF0
DBA0
1F00
13F0
61F0
ENDCHAR
STARTCHAR 5694
ENCODING 22164
SWIDTH 720 0
DWIDTH 12 0
BBX 12 12 0 -2
BITMAP
0340
9FE0
F320
DFF0
DB60
D7C0
DB60
FFF0
DBD0
1F00
13F0
61F0
ENDCHAR
STARTCHAR 56A0
ENCODING 22176
SWIDTH 720 0
DWIDTH 12 0
BBX 12 12 0 -2
BITMAP
1570
9FE0
FB60
DB60
DD60
D760
DF60
F5E0
BF60
1560
3EE0
18C0
ENDCHAR
STARTCHAR 56A2
ENCODING 22178
SWIDTH 720 0
DWIDTH 12 0
BBX 12 12 0 -2
BITMAP
0640
7FE0
4620
7FF0
D9A0
7FE0
19A0
FFF0
1AC0
F180
3EF0
7060
ENDCHAR
STARTCHAR 56A5
ENCODING 22181
SWIDTH 720 0
DWIDTH 12 0
BBX 12 12 0 -2
BITMAP
06D0
9FF0
F6C0
D7C0
D6F0
DFE0
D6D0
FFF0
D6F0
1B60
35B0
37B0
ENDCHAR
STARTCHAR 56AE
ENCODING 22190
SWIDTH 720 0
DWIDTH 12 0
BBX 12 12 0 -2
BITMAP
62B0
7FF0
DDB0
6FE0
5DB0
FFB0
ADF0
4EA0
FFF0
6D60
6F60
6DE0
ENDCHAR
STARTCHAR 56B4
ENCODING 22196
SWIDTH 720 0
DWIDTH 12 0
BBX 12 12 0 -2
BITMAP
3DE0
2D60
3DE0
2020
3FF0
3180
3FF0
3560
7FE0
5B40
BFF0
3320
ENDCHAR
STARTCHAR 56B6
ENCODING 22198
SWIDTH 720 0
DWIDTH 12 0
BBX 12 12 0 -2
BITMAP
1360
9FF0
FB60
DFE0
DB60
DFE0
D6C0
FB60
DFF0
0C80
03C0
1E60
ENDCHAR
STARTCHAR 56BC
ENCODING 22204
SWIDTH 720 0
DWIDTH 12 0
BBX 12 12 0 -2
BITMAP
01E0
9FC0
F560
DFF0
DB60
DFE0
DB60
FFF0
DD60
1AE0
3FE0
30C0
ENDCHAR
STARTCHAR 56C0
ENCODING 22208
SWIDTH 720 0
DWIDTH 12 0
BBX 12 12 0 -2
BITMAP
19C0
BFA0
DBF0
FF60
DBE0
FF60
DBE0
FE60
DBF0
7E60
1BE0
18C0
ENDCHAR
STARTCHAR 56C1
ENCODING 22209
SWIDTH 720 0
DWIDTH 12 0
BBX 12 12 0 -2
BITMAP
00C0
9FE0
F6C0
D7C0
D6E0
DFC0
D0C0
FFF0
DB60
1FF0
3BE0
0360
ENDCHAR
STARTCHAR 56C2
ENCODING 22210
SWIDTH 720 0
DWIDTH 12 0
BBX 12 12 0 -2
BITMAP
7BC0
6B40
7BC0
0060
FFF0
1980
1F80
39C0
FFF0
5AD0
7BC0
5AC0
ENDCHAR
ENDFONT
